<?xml version="1.0" standalone="no"?>
<svg viewBox="0 0 200 200" xmlns="http://www.w3.org/2000/svg">
  <path fill="#A32A29" d="M27.9,-44C37.6,-37.1,47.8,-31.8,55.3,-23C62.7,-14.2,67.4,-1.9,64.2,8.1C61.1,18.2,50.2,26.1,41.3,35.2C32.5,44.2,25.7,54.5,16.5,58C7.3,61.5,-4.5,58.3,-17,55.7C-29.6,53,-43,51,-50.5,43.3C-58,35.5,-59.6,22.2,-59.5,9.8C-59.4,-2.6,-57.6,-14.1,-55.2,-27.7C-52.9,-41.4,-49.9,-57.2,-40.6,-64.3C-31.3,-71.3,-15.7,-69.4,-3.3,-64.3C9.1,-59.2,18.2,-50.8,27.9,-44Z" transform="translate(100 100)" />
</svg>
