<?xml version="1.0" standalone="no"?>
<svg viewBox="0 0 200 200" xmlns="http://www.w3.org/2000/svg">
  <path fill="#A32A29" d="M39.8,-72C49.1,-63.6,52.5,-47.9,60.3,-34.7C68.2,-21.5,80.5,-10.7,78.7,-1C76.9,8.7,60.9,17.3,52.8,30C44.6,42.6,44.2,59.3,36.7,64.6C29.2,69.9,14.6,63.8,3.1,58.4C-8.4,53.1,-16.9,48.5,-24.9,43.5C-32.8,38.5,-40.3,33,-51.9,25.7C-63.5,18.4,-79.2,9.2,-83.2,-2.3C-87.2,-13.8,-79.5,-27.6,-71,-40.4C-62.6,-53.2,-53.5,-65,-41.5,-71.8C-29.6,-78.6,-14.8,-80.4,0.2,-80.9C15.3,-81.3,30.5,-80.3,39.8,-72Z" transform="translate(100 100)" />
</svg>
