<?xml version="1.0" encoding="utf-8"?>
<!-- Generator: Adobe Illustrator 15.0.0, SVG Export Plug-In . SVG Version: 6.00 Build 0)  -->
<!DOCTYPE svg PUBLIC "-//W3C//DTD SVG 1.1//EN" "http://www.w3.org/Graphics/SVG/1.1/DTD/svg11.dtd">
<svg version="1.1" xmlns="http://www.w3.org/2000/svg" xmlns:xlink="http://www.w3.org/1999/xlink" x="0px" y="0px" width="800px"
	 height="448.908px" viewBox="0 0 800 448.908" enable-background="new 0 0 800 448.908" xml:space="preserve">
<g id="BG">
</g>
<g id="text">
</g>
<g id="graph_calc">
</g>
<g id="man">
	<path d="M442.242,575.113c0,0,0,0.011,0.006,0.018c-0.041,0.948-0.146,1.667-0.312,2.236
		C442.107,576.746,442.201,576.021,442.242,575.113z"/>
	<path d="M359.425,575.113c0.041,0.907,0.134,1.633,0.298,2.253C359.466,576.482,359.396,575.166,359.425,575.113z"/>
	<g>
		<g>
			<g>
				<polygon fill="#34415E" points="231.852,154.283 226.913,149.353 268.089,108.095 331.735,108.095 373.139,67.082 
					378.049,72.039 334.606,115.072 270.983,115.072 				"/>
			</g>
			<g>
				<g>
					<g>
						<polygon fill="#34415E" points="356.031,190.083 206.614,190.083 206.614,22.513 212.048,22.513 212.048,184.648 
							356.031,184.648 						"/>
					</g>
				</g>
			</g>
			<g>
				<g>
					<g>
						<rect x="223.881" y="31" fill="#34415E" width="0.801" height="153.648"/>
					</g>
					<g>
						<rect x="245.093" y="31" fill="#34415E" width="0.8" height="153.648"/>
					</g>
					<g>
						<rect x="266.304" y="31" fill="#34415E" width="0.8" height="153.648"/>
					</g>
					<g>
						<rect x="287.516" y="31" fill="#34415E" width="0.801" height="153.648"/>
					</g>
					<g>
						<rect x="308.727" y="31" fill="#34415E" width="0.801" height="153.648"/>
					</g>
					<g>
						<rect x="329.938" y="31" fill="#34415E" width="0.8" height="153.648"/>
					</g>
					<g>
						<rect x="351.15" y="31" fill="#34415E" width="0.8" height="153.648"/>
					</g>
				</g>
				<g>
					<g>
						<rect x="211.091" y="43.79" fill="#34415E" width="153.648" height="0.8"/>
					</g>
					<g>
						<rect x="211.091" y="65.001" fill="#34415E" width="153.648" height="0.801"/>
					</g>
					<g>
						<rect x="211.091" y="86.213" fill="#34415E" width="153.648" height="0.8"/>
					</g>
					<g>
						<rect x="211.091" y="107.424" fill="#34415E" width="153.648" height="0.801"/>
					</g>
					<g>
						<rect x="211.091" y="128.636" fill="#34415E" width="153.648" height="0.799"/>
					</g>
					<g>
						<rect x="211.091" y="149.847" fill="#34415E" width="153.648" height="0.8"/>
					</g>
					<g>
						<rect x="211.091" y="171.059" fill="#34415E" width="153.648" height="0.8"/>
					</g>
				</g>
			</g>
			<polygon fill="#34415E" points="194.922,31.958 209.331,7 223.741,31.958 			"/>
			<polygon fill="#34415E" points="343.552,172.956 368.51,187.365 343.552,201.774 			"/>
			<circle fill="#F1C40F" cx="229.382" cy="151.818" r="8.152"/>
			<circle fill="#3598DB" cx="269.536" cy="111.583" r="8.153"/>
			<circle fill="#E74B3C" cx="333.171" cy="111.583" r="8.153"/>
			<circle fill="#16A086" cx="375.594" cy="69.56" r="8.153"/>
		</g>
		<g>
			<path fill="#34415E" d="M353.284,99.619l-17.788,17.62h-63.614L256.54,132.61c-1.965-3.602-3.503-7.439-4.568-11.431l15.22-15.25
				h63.653l18.832-18.654C351.378,91.202,352.595,95.346,353.284,99.619z"/>
			<path fill="#3598DB" d="M269.537,121.901c-5.689,0-10.318-4.629-10.318-10.318c0-5.689,4.628-10.318,10.318-10.318
				c5.689,0,10.317,4.628,10.317,10.318C279.854,117.272,275.226,121.901,269.537,121.901z"/>
			<path fill="#E74B3C" d="M333.17,121.901c-5.689,0-10.318-4.629-10.318-10.318c0-5.689,4.629-10.318,10.318-10.318
				c5.689,0,10.318,4.628,10.318,10.318C343.488,117.272,338.86,121.901,333.17,121.901z"/>
		</g>
	</g>
	<g>
		<g>
			<g>
				<path fill="#34415E" d="M512.986,432.253c0.001-6.371,2.49-9.688,6.401-9.688c3.911,0,6.399,3.349,6.397,9.689
					c-0.001,6.37-2.489,9.866-6.401,9.865C515.473,442.12,512.985,438.623,512.986,432.253z M522.526,432.254
					c0.001-5.333-1.303-7.021-3.14-7.022c-1.808,0-3.141,1.688-3.143,7.021c0,5.333,1.333,7.201,3.141,7.201
					C521.222,439.454,522.526,437.588,522.526,432.254z"/>
				<path fill="#34415E" d="M480.307,393.753h4.207l0.002-12.384l-3.467-0.001v-2.132c1.867-0.356,3.171-0.829,4.355-1.541h2.549
					l-0.002,16.059h3.702v2.786l-11.348-0.002L480.307,393.753z"/>
				<path fill="#34415E" d="M536.261,394.739c5.245-5.065,8.534-8.382,8.534-11.257c0.001-1.986-1.097-3.26-3.11-3.26
					c-1.452,0-2.667,0.977-3.674,2.103l-1.896-1.896c1.719-1.836,3.437-2.903,6.015-2.903c3.614,0.001,5.954,2.283,5.954,5.779
					c-0.002,3.347-3.112,6.784-6.847,10.724c0.979-0.088,2.223-0.207,3.142-0.207l4.621,0.001l-0.001,2.904l-12.738-0.002V394.739z"
					/>
				<path fill="#34415E" d="M594.259,392.053c1.126,1.155,2.578,2.075,4.474,2.075c2.044,0,3.467-1.067,3.467-2.844
					c0-1.955-1.243-3.2-5.539-3.201v-2.488c3.704,0,4.918-1.273,4.918-3.021c0.002-1.571-1.065-2.52-2.784-2.52
					c-1.481,0-2.637,0.711-3.793,1.777l-1.747-2.104c1.601-1.422,3.407-2.37,5.66-2.37c3.614,0.001,6.102,1.779,6.102,4.979
					c-0.001,2.103-1.245,3.524-3.289,4.325v0.118c2.222,0.592,3.91,2.193,3.909,4.681c0,3.438-2.992,5.451-6.607,5.45
					c-3.052,0-5.065-1.186-6.398-2.667L594.259,392.053z"/>
				<path fill="#34415E" d="M492.936,346.455h-2.371v4.858h-3.199v-4.859l-8.325-0.001v-2.312l7.469-11.672l4.058,0.001
					l-0.001,11.347l2.37,0.001V346.455z M487.366,343.817v-4.267c0.001-1.096,0.09-2.814,0.148-3.911h-0.118
					c-0.475,0.978-1.007,1.926-1.541,2.933l-3.438,5.243L487.366,343.817z"/>
				<path fill="#34415E" d="M537.602,346.699c1.125,1.066,2.518,2.015,4.414,2.016c2.103,0,3.644-1.333,3.645-3.614
					c0.001-2.251-1.392-3.525-3.466-3.526c-1.215,0-1.896,0.326-3.021,1.066l-1.63-1.038l0.564-9.303l10.073,0.002l-0.001,2.873
					l-7.11-0.001l-0.387,4.563c0.801-0.384,1.512-0.622,2.489-0.622c3.229,0,5.926,1.838,5.926,5.897
					c-0.001,4.118-3.173,6.488-6.639,6.487c-3.051,0-5.035-1.215-6.429-2.607L537.602,346.699z"/>
				<path fill="#34415E" d="M603.364,336.34c-0.682-0.83-1.866-1.422-2.992-1.422c-2.37,0-4.297,1.747-4.446,6.962
					c1.098-1.392,2.728-2.222,4.09-2.221c3.259,0,5.51,1.896,5.509,5.836c0,3.763-2.696,6.192-5.927,6.192
					c-3.703-0.001-6.842-2.875-6.841-9.216c0.001-7.318,3.557-10.34,7.409-10.339c2.28,0.001,3.91,0.95,5.035,2.134L603.364,336.34z
					 M602.355,345.495c0.001-2.222-1.096-3.349-2.963-3.349c-1.066,0-2.311,0.593-3.377,2.163c0.354,3.347,1.688,4.77,3.525,4.77
					C601.109,349.079,602.355,347.805,602.355,345.495z"/>
				<path fill="#34415E" d="M488.59,290.118l-8.919-0.002v-2.875l12.652,0.003v2.074c-4.417,5.481-5.188,9.421-5.515,16.768h-3.467
					C483.669,299.39,484.944,295.183,488.59,290.118z"/>
				<path fill="#34415E" d="M539.595,296.437v-0.12c-1.451-1.036-2.606-2.429-2.606-4.415c0.001-3.051,2.43-5.007,5.689-5.005
					c3.377,0,5.54,2.045,5.54,5.096c-0.001,1.867-1.305,3.437-2.52,4.325v0.119c1.748,0.979,3.258,2.371,3.258,4.889
					c-0.001,2.904-2.549,5.126-6.371,5.125c-3.673-0.001-6.398-2.134-6.398-5.187C536.187,298.924,537.817,297.384,539.595,296.437z
					 M542.645,304.021c1.808,0,3.112-1.065,3.112-2.814c0-2.044-1.985-2.785-4.532-3.822c-1.187,0.858-2.045,2.072-2.046,3.524
					C539.179,302.777,540.719,304.021,542.645,304.021z M545.402,292.201c0-1.659-1.036-2.875-2.785-2.875
					c-1.45-0.001-2.577,0.947-2.577,2.577c0,1.896,1.688,2.726,3.792,3.556C544.839,294.452,545.401,293.386,545.402,292.201z"/>
				<path fill="#34415E" d="M594.911,302.251c0.71,0.83,1.866,1.424,3.021,1.424c2.37,0,4.297-1.748,4.444-6.962
					c-1.096,1.363-2.755,2.192-4.117,2.192c-3.229-0.001-5.481-1.897-5.48-5.838c0-3.763,2.697-6.162,5.927-6.162
					c3.673,0.001,6.813,2.846,6.813,9.186c-0.001,7.318-3.527,10.369-7.409,10.369c-2.251-0.001-3.91-0.949-5.037-2.134
					L594.911,302.251z M602.289,294.254c-0.354-3.318-1.718-4.741-3.555-4.741c-1.541-0.001-2.814,1.273-2.815,3.555
					c0,2.221,1.096,3.377,2.992,3.377C599.979,296.446,601.252,295.825,602.289,294.254z"/>
				<path fill="#34415E" d="M654.417,343.153l-5.304-0.001l0.001-2.488l5.304,0.001v-5.6l2.579,0.001l-0.002,5.599l5.305,0.001
					l-0.001,2.489l-5.304-0.002l-0.001,5.6h-2.578L654.417,343.153z"/>
				<path fill="#34415E" d="M653.915,251.434l-3.749-3.75l1.76-1.76l3.75,3.75l3.96-3.958l1.822,1.823l-3.96,3.959l3.749,3.75
					l-1.761,1.759l-3.749-3.75l-3.96,3.959l-1.822-1.824L653.915,251.434z"/>
				<path fill="#34415E" d="M649.114,403.046l13.186,0.003v2.488l-13.186-0.002V403.046z M649.113,409.684l13.186,0.002v2.488
					l-13.186-0.002V409.684z"/>
				<path fill="#34415E" d="M599.165,430.042c1.243,0,2.191,0.978,2.19,2.312c0,1.333-0.948,2.311-2.191,2.31
					c-1.245,0-2.223-0.978-2.223-2.311C596.941,431.018,597.919,430.042,599.165,430.042z"/>
				<path fill="#34415E" d="M540.893,251.231l-4.087-7.449l3.031,0.001l1.69,3.406c0.376,0.706,0.705,1.433,1.175,2.35h0.095
					c0.375-0.916,0.681-1.645,1.032-2.349l1.623-3.406h2.89l-4.09,7.565l4.369,7.8l-3.031-0.001l-1.879-3.618
					c-0.399-0.799-0.774-1.574-1.244-2.514h-0.095c-0.399,0.939-0.752,1.715-1.128,2.513l-1.833,3.618h-2.89L540.893,251.231z"/>
				<path fill="#34415E" d="M662.77,295.662l-0.001,2.043l-14.103-0.002l0.001-2.043L662.77,295.662z"/>
				<g>
					<path fill="#34415E" d="M599.143,243.459c1.245,0.001,2.192,0.979,2.192,2.311c-0.001,1.333-0.949,2.311-2.193,2.311
						s-2.221-0.979-2.221-2.311C596.921,244.437,597.898,243.459,599.143,243.459z"/>
					<path fill="#34415E" d="M599.141,254.974c1.244,0,2.192,0.979,2.192,2.311c0,1.333-0.948,2.312-2.192,2.312
						c-1.245,0-2.224-0.979-2.222-2.312C596.919,255.952,597.896,254.974,599.141,254.974z"/>
					<path fill="#34415E" d="M606.178,250.445l-0.001,2.044l-14.103-0.002l0.001-2.044L606.178,250.445z"/>
				</g>
				<g>
					<path fill="#34415E" d="M476.993,251.465c0-7.801,4.585-12.57,10.76-12.57c2.958,0,5.251,1.405,6.655,2.995l-1.663,1.996
						c-1.295-1.368-2.884-2.292-4.954-2.292c-4.585,0-7.617,3.771-7.617,9.799c0,6.101,2.92,9.945,7.505,9.945
						c2.33,0,4.067-1.035,5.621-2.735l1.7,1.922c-1.922,2.219-4.289,3.513-7.433,3.513
						C481.504,264.037,476.993,259.378,476.993,251.465z"/>
				</g>
			</g>
			<path fill="#34415E" d="M677.281,276.895v-1.655h-52.873v-42.133h-1.654v42.133h-52.045v-42.133h-1.655v42.133H517.01v-42.133
				h-1.656v42.133h-52.872v1.655h52.872V318.2h-52.872v1.655h52.872v41.305h-52.872v1.655h52.872v41.306h-52.872v1.655h106.572
				v42.133h1.655v-42.133h52.045v42.133h1.654v-85.093h52.873v-1.655h-52.873v-41.305h52.873V318.2h-52.873v-41.305H677.281z
				 M517.01,276.895h52.044V318.2H517.01V276.895z M517.01,319.854h52.044v41.305H517.01V319.854z M517.01,404.12v-41.306h52.044
				v41.306H517.01z M622.754,404.12h-52.045v-41.306h52.045V404.12z M622.754,361.159h-52.045v-41.305h52.045V361.159z
				 M622.754,318.2h-52.045v-41.305h52.045V318.2z"/>
		</g>
	</g>
	<g>
		<g>
			<rect x="122.718" y="399.06" fill="#DBE6EC" width="172.931" height="8.633"/>
			<rect x="122.718" y="412.465" fill="#DBE6EC" width="172.931" height="8.631"/>
			<rect x="122.718" y="425.871" fill="#DBE6EC" width="172.931" height="8.631"/>
			<rect x="122.718" y="439.276" fill="#DBE6EC" width="172.931" height="8.631"/>
			<rect x="122.718" y="399.06" fill="#F1C40F" width="106.34" height="8.631"/>
			<rect x="122.718" y="412.465" fill="#3598DB" width="78.27" height="8.632"/>
			<rect x="122.718" y="425.871" fill="#E74B3C" width="71.874" height="8.631"/>
			<rect x="122.718" y="439.276" fill="#16A086" width="117.854" height="8.631"/>
		</g>
		<g>
			<rect x="122.718" y="343.208" fill="#DBE6EC" width="13.798" height="29.953"/>
			<rect x="140.556" y="310.562" fill="#DBE6EC" width="13.798" height="62.599"/>
			<rect x="158.393" y="282.628" fill="#DBE6EC" width="13.798" height="90.532"/>
			<rect x="176.23" y="245.607" fill="#DBE6EC" width="13.798" height="127.554"/>
			<rect x="205.005" y="272.531" fill="#DBE6EC" width="13.798" height="100.629"/>
			<rect x="222.843" y="242.578" fill="#DBE6EC" width="13.798" height="130.583"/>
			<rect x="240.68" y="332.438" fill="#DBE6EC" width="13.799" height="40.723"/>
			<rect x="258.517" y="304.84" fill="#DBE6EC" width="13.799" height="68.32"/>
			<rect x="122.718" y="361.017" fill="#F1C40F" width="13.798" height="12.144"/>
			<rect x="140.556" y="347.781" fill="#3598DB" width="13.798" height="25.38"/>
			<rect x="158.393" y="336.456" fill="#E74B3C" width="13.798" height="36.705"/>
			<rect x="176.23" y="321.446" fill="#16A086" width="13.798" height="51.715"/>
			<rect x="205.005" y="332.362" fill="#F1C40F" width="13.798" height="40.798"/>
			<rect x="222.843" y="320.219" fill="#3598DB" width="13.798" height="52.941"/>
			<rect x="240.68" y="356.65" fill="#E74B3C" width="13.799" height="16.511"/>
			<rect x="258.517" y="345.461" fill="#16A086" width="13.799" height="27.699"/>
		</g>
	</g>
	<g>
		<g opacity="0.21">
			<path d="M550.014,177.7l-93.184-25.344c0.043-0.632,0.068-1.074,0.068-1.221c-0.01-1.451-2.273-1.672-2.566-0.533
				c0.051-0.281,0.012-0.078,0.082-0.433c0.311-1.767-2.854-2.352-3.166-0.581c0.307-1.706-2.828-2.507-3.195-0.394
				c-0.086-1.368-2.43-1.854-2.697,0.039l-54.473-14.817c-7.76-2.096-13.584-8.535-14.896-16.463
				c0-26.05-18.108-52.399-47.155-59.898c-33.017-8.522-67.09,11.154-76.219,44.006c-9.348,33.632,10.492,68.385,44.129,77.483
				c27.695,7.491,56.074-4.754,70.199-28.155c3.958-4.771,9.782-7.426,15.801-7.426c3.767,0,0.797-0.528,59.96,15.566
				c0.502,1.719,3.459,2.126,4.441,5.071l-1.438,0.004l0.014,2.213l-0.602,0.004l-1.924,27.959l-22.313,18.468v0.004
				c-0.004,0-0.004-0.004-0.004-0.004s-2.932,0.165-5.842,0.329l-1.494-2.853c-0.438-0.2-0.918-0.381-1.434-0.551l-1.029-2.233
				c-0.402-0.208-0.861-0.394-1.377-0.563c0.293-1.909,1.139-2.173,4.996-8.058c2.365-3.598,4.555-5.708,5.75-10.639
				c1.615-6.647-3.83-10.912-3.83-10.912c-13.117-11.505-20.604-3.049-20.604-3.049s0.125,0.13,0.316,0.36
				c-3.967,4.364-3.98,4.217-4.439,5.867c-0.203,0.823-0.359,1.624-0.359,2.481l-3.174,3.451l0.559,2.213
				c0,0-1.144,2.187-1.503,2.901c-0.359,0.719-0.251,2.403-0.502,3.226c-0.403,1.316-1.853,3.421,0.584,5.105
				c0.45,0.337,4.629,2.887,5.145,5.212c0.108,0.455,0.143,1.135,0.139,1.815c-0.542,0.172-1.031,0.368-1.451,0.589l-1.117,2.416
				c-0.321,0.117-0.628,0.238-0.914,0.369l-1.542,2.935c-0.394,0.112-5.434,4.018-5.434,4.018s-9.44,3.676-11.666,4.478
				c-2.775,4.426-9.383,33.216-11.18,40.912c-1.507,6.429-0.329-0.72-1.079,47.678l0.463,0.004v1.649h0.814
				c-1.048,6.551-3.689,7.4-2.403,9.262c1.853,2.685,4.065,6.071,6.145,6.599v1.819c-0.958,0-0.308-0.342-5.608,3.815
				c-0.632,0.559-0.433-2.754-0.433,47.241c0,0.706,0.572,1.278,1.278,1.278c10.228,0,10.084,0.208,10.574-0.62h0.004l4.438-6.664
				c0.333-0.493,0.226,2.239,0.226-43.769c0-0.715-0.598-1.282-1.282-1.282h-2.979v-5.78c2.3-2.872,0.321-7.119-0.9-11.9h0.347
				v-1.615c0.68,0,0.567,0,0.81,0.004c3.035-41.058,3.356-36.918,5.911-52.03c0.84,4.36,1.459,9.413,0.957,15.834
				c-2.208,22.01-1.407,12.583-3.516,41.24l2.586-0.125c-0.1,7.252,0.043-3.417-1.152,85.437
				c-2.048,5.347-11.912,20.52-12.834,22.469c-0.108,0.156-1.372,2.048-0.022,2.835c1.265,0.746,2.625,1.538,2.625,1.538
				l-0.364,1.004l1.03,1.723c4.611,2.728,10.171,0.191,10.171,0.191l1.005-2.763c0.528-0.628,1.104-2.118,1.347-2.871h0.008
				c0.169-0.55,0.303-1.1,0.368-1.598l0.25-0.082l12.263-22.447l10.141-75.483c0.42,3.118,6.075,45.189,10.145,75.483
				c-2.078,11.397-6.438,29.761-6.438,29.761s3.707,2.537,10.313-0.191l2.287-1.723l0.363-1.004c0,0,1.936-0.792,3.75-1.538
				c1.918-0.787,2.035-2.68,2.039-2.835c0-0.004,0-0.004,0-0.009c-0.16,0.376-0.324,0.693-0.494,0.953
				c0.174-0.277,0.334-0.593,0.494-0.965c0,0,0,0.004,0,0.008c0.391-1.537,0.619-5.075-2.545-4.897l6.074-17.559l-1.189-88.589
				l3.17-0.291l-4.094-48.29c-0.146-2.091-0.559,1.407,4.283-28.012c4.494-5.395,28.598-34.264,30.641-36.715l-1.305-32.506h-0.775
				l0.023-2.178l-1.59,0.004c0.039-0.411,0.078-0.896,0.125-1.437l91.297,24.833c3.281,0.888,6.561-0.693,7.326-3.525
				C555.33,181.606,553.295,178.588,550.014,177.7z M363.195,132.433c-7.478,27.639-35.948,43.99-63.586,36.512
				c-27.645-7.478-43.986-35.944-36.508-63.588c7.473-27.643,35.94-43.985,63.583-36.507
				C354.323,76.324,370.673,104.79,363.195,132.433z M361.632,424.69c0.017-0.472,0.194-1.065,0.226-1.096
				C361.728,424.027,361.654,424.382,361.632,424.69z"/>
		</g>
		<g>
			<g>
				<g>
					<path fill="#34415E" d="M241.543,90.994c-9.345,33.631,10.493,68.384,44.128,77.483c27.696,7.492,56.078-4.752,70.201-28.156
						l0,0c5.133-6.187,13.404-8.81,21.164-6.71L536.17,176.9c3.279,0.887,6.561-0.693,7.328-3.527
						c0.766-2.833-1.271-5.852-4.553-6.739L379.813,123.35c-7.761-2.099-13.582-8.535-14.896-16.466v-0.002
						c-0.404-27.563-19.057-52.643-47.154-59.896C284.749,38.464,250.673,58.143,241.543,90.994z M352.127,121.365
						c-7.478,27.642-35.947,43.989-63.588,36.512s-43.985-35.945-36.507-63.587c7.477-27.642,35.941-43.986,63.583-36.509
						C343.256,65.257,359.604,93.723,352.127,121.365z"/>
				</g>
			</g>
			<path opacity="0.25" fill="#8DD8FF" d="M352.128,121.365c-7.479,27.639-35.949,43.99-63.588,36.511
				c-27.644-7.478-43.985-35.944-36.507-63.587c7.474-27.643,35.94-43.985,63.583-36.507
				C343.255,65.256,359.606,93.722,352.128,121.365z"/>
			<g>
				<g>
					<g>
						<path fill="#1D2329" d="M358.959,420.506c0,0-0.701,2.752,1.004,3.868c1.539,1.007,3.188,2.082,3.188,2.082v1.361l1.657,2.338
							c5.611,3.697,10.244,0.254,10.244,0.254v-3.74c-4.319,2.69-9.273,1.423-11.093-0.723
							C361.298,422.808,359.129,424.932,358.959,420.506z"/>
						<path fill="#273147" d="M358.954,420.533c0.01-0.021,0.01-0.031,0.01-0.031c0.031,0.694,0.102,1.245,0.234,1.714
							c0.664,2.152,2.541,1.112,4.764,3.733c1.714,2.02,6.232,3.264,10.364,1.132c0.245-0.122,0.49-0.254,0.725-0.408
							c0.357-1.02,0.52-4.886-0.133-7.049c-6.684-3.654-9.258-5.061-11.052-5.639c-1.092-0.353-2.286,0.036-2.966,0.96
							C359.925,416.271,359.142,418.192,358.954,420.533z"/>
						<path fill="#1D2329" d="M362.489,417.743l7.951,7.42l4.916-2.387c-0.04-1.132-0.172-2.285-0.438-3.152
							c-6.681-3.652-9.262-5.06-11.048-5.64C362.932,413.688,362.489,417.743,362.489,417.743z"/>
					</g>
					<g>
						<path fill="#1D2329" d="M420.234,420.506c0,0,0.701,2.752-1.004,3.868c-1.539,1.007-3.188,2.082-3.188,2.082v1.361
							l-1.658,2.338c-5.609,3.697-10.242,0.254-10.242,0.254v-3.74c4.318,2.69,9.271,1.423,11.092-0.723
							C417.896,422.808,420.064,424.932,420.234,420.506z"/>
						<path fill="#273147" d="M420.24,420.533c-0.01-0.021-0.01-0.031-0.01-0.031c-0.031,0.694-0.104,1.245-0.236,1.714
							c-0.662,2.152-2.539,1.112-4.764,3.733c-1.713,2.02-6.23,3.264-10.363,1.132c-0.244-0.122-0.489-0.254-0.725-0.408
							c-0.355-1.02-0.52-4.886,0.133-7.049c6.684-3.654,9.26-5.061,11.053-5.639c1.094-0.353,2.285,0.036,2.967,0.96
							C419.27,416.271,420.053,418.192,420.24,420.533z"/>
						<path fill="#1D2329" d="M418.018,418.666l-9.264,6.498l-4.916-2.387c0.041-1.132,0.174-2.285,0.438-3.152
							c6.682-3.652,9.264-5.06,11.049-5.64c0.938-0.297,1.957-0.051,2.641,0.602L418.018,418.666z"/>
					</g>
					<g>
						<polygon fill="#34415E" points="415.955,417.615 408.561,422.797 403.828,420.502 389.597,314.587 375.367,420.502 
							370.634,422.797 363.238,417.615 364.86,296.99 414.334,296.99 						"/>
					</g>
					<polygon fill="#273147" points="414.336,296.992 414.334,296.992 414.334,296.99 414.33,296.992 391.604,296.992 
						389.872,285.05 388.224,296.992 364.861,296.992 364.708,308.282 377.583,307.446 370.634,422.799 375.366,420.504 
						389.594,314.586 396.633,366.961 394.515,306.346 401.615,305.885 408.559,422.799 415.955,417.614 					"/>
				</g>
				<polygon fill="#3D464F" points="414.051,292.948 389.512,293.802 414.051,292.945 				"/>
				<g>
					<g>
						<g>
							<path fill="#273147" d="M362.826,320.293v43.037c0,0.26-0.077,0.515-0.222,0.732l-4.438,6.665l-4.838,0.621v-48.845h3.744
								l4.477-3.489l0,0C362.253,319.015,362.826,319.587,362.826,320.293z"/>
							<path fill="#515D69" d="M352.522,319.014h9.026l-4.477,3.49h-9.511l4.096-3.192
								C351.904,319.119,352.208,319.014,352.522,319.014z"/>
							<path fill="#1C2126" d="M355.52,307.665h1.919c0.622,0,1.126,0.503,1.126,1.126v11.417h-4.172v-11.417
								C354.393,308.168,354.898,307.665,355.52,307.665z"/>
							<path fill="#34415E" d="M357.07,322.503h-9.114l4.566-3.49h-0.459c-0.295,0-0.583,0.1-0.816,0.282l-4.51,3.531l0.005,0.001
								c-0.265,0.235-0.436,0.573-0.436,0.954v46.289c0,0.706,0.572,1.278,1.278,1.278h9.485c0.707,0,1.278-0.573,1.278-1.278
								v-46.289C358.349,323.076,357.777,322.503,357.07,322.503z"/>
							<g>
								<g>
									<g>
										<path fill="#E39253" d="M357.094,314.777c-0.51,0.672-4.511,1.653-5.05,1.706c-0.502,0.051-1.97-1.772-2.165-2.02
											c0.458-2.365,0.436-4.4,1.939-5.179c0.005,0.024,1.293-0.262,1.529-0.259c0.138,0.453,0.189,1.029-0.051,1.66
											c0,0,0.774-0.026,1.106,0.354c0,0,0.739-0.986,1.355-1.069c0,0-0.072-0.193-0.016-0.559
											c0.138,0.061,1.381,1.236,1.542,1.619C357.733,311.371,357.571,314.146,357.094,314.777z"/>
									</g>
								</g>
								<path fill="#FFA55F" d="M357.165,314.707c0.068-0.925,0.431-2.061-0.024-3.363c-0.677-1.925-2.291-2.024-3.75-2.068
									c-1.733-0.052-2.012,0.737-2.355,2.458c0.152,0.02,0.977,1.474,2.112,2.698c1.373,0.305,3.545,0.912,3.324,2.287
									c-0.079,0.494-0.822,0.594-2.929,0.594c-2.212,0.089-3.494-1.152-7.335-6.714c-0.419-0.606-0.447-1.395-0.08-2.028
									l1.378-2.893c0.745-1.446,1.395-5.813,1.418-7.153h8.193c-0.053,0.909,1.206,5.312,1.925,7.713
									c0.581,1.938,0.587,4.233,0.566,3.835C359.73,312.406,358.326,313.528,357.165,314.707z"/>
								<path fill="#E39253" d="M346.206,310.598c2.254,3.26,1.29,2.021,4.232,5.43c0.84,0.909,1.874,1.286,3.139,1.286
									c1.44-0.057,2.56,0.016,2.836-0.434c-0.566,0.05-1.485-0.007-2.11-0.007c-1.173-0.01-2.283-0.534-3.041-1.434l-2.261-2.887
									c-2.676-4.285-2.711-3.194,0.138-7.578c1.261-2.179,3.387-5.399,7.996-6.122c-0.018-0.135-0.021-0.245-0.018-0.327h-8.191
									c-0.025,1.336-0.676,5.704-1.421,7.15l-1.377,2.893C345.759,309.204,345.788,309.994,346.206,310.598z"/>
								<rect x="347.793" y="298.916" fill="#DBE6EC" width="10.22" height="2.42"/>
								<g>
									<g>
										<path fill="#F6E2CA" d="M353.36,317.264c0,0,2.695,0.062,2.812-0.207c0.117-0.268-0.307-0.672-0.665-0.792
											C355.148,316.144,353.335,316.909,353.36,317.264z"/>
										<path fill="#FAEEDF" d="M353.834,317.269c-0.018-0.159-0.065-0.3-0.103-0.392c-0.227,0.142-0.378,0.282-0.372,0.387
											C353.36,317.264,353.551,317.268,353.834,317.269z"/>
									</g>
								</g>
							</g>
							<path fill="#273147" d="M353.473,309.268h1.92c0.622,0,1.126,0.504,1.126,1.126v11.418h-4.172v-11.418
								C352.347,309.772,352.851,309.268,353.473,309.268z"/>
							<rect x="351.329" y="322.504" fill="#273147" width="1.999" height="48.845"/>
							<path fill="#404C59" d="M362.826,320.293l-4.476,3.489c0-0.707-0.573-1.279-1.279-1.279l4.477-3.489
								c0.354,0,0.671,0.145,0.904,0.374C362.684,319.621,362.826,319.942,362.826,320.293z"/>
						</g>
					</g>
					<path fill="#34415E" d="M364.732,247.692c-2.578,15.166-2.9,11.301-5.909,52.028l-11.492-0.04
						c0.749-48.398-0.43-41.25,1.076-47.681c9.101-38.958,10.56-39.911,11.181-40.911c-0.88,7.002,1.63,17.541,3.092,26.717
						C363.167,240.871,364.026,244.035,364.732,247.692z"/>
					<path fill="#273147" d="M364.732,247.692c-2.578,15.166-2.9,11.301-5.909,52.027l-1.673-0.004l0.892-38.252l4.272-19.321
						c-0.311-1.415-0.598-2.785-0.813-4.144c-1.462-9.169-3.343-16.879-3.255-23.992c0.012-0.028,0.02-0.06,0.032-0.091
						c0.758-2.111,1.088-2.462,1.311-2.826c-0.88,7.002,1.63,17.541,3.092,26.717C363.167,240.871,364.026,244.035,364.732,247.692z
						"/>
				</g>
				<g>
					<g>
						<path fill="#FFA55F" d="M377.13,189.742c2.404,1.505,4.159,3.511,4.443,4.728c0.161,0.674,0.153,1.849,0.12,2.766h16.898
							c-0.008-0.426-0.111-1.627,1.062-3.283l-12.57-28.652l-1.673-1.448c0,0-3.298,3.601-3.837,4.282
							c-0.535,0.682-1.108,2.617-1.108,4.227l-3.174,3.452l0.558,2.212c0,0-1.146,2.186-1.505,2.901
							c-0.359,0.719-0.251,2.403-0.501,3.227c-0.251,0.824-0.502,0.933-0.682,2.007S374.73,188.237,377.13,189.742z"/>
						<path opacity="0.85" fill="#DC9964" d="M379.904,172.972l0.488,1.254c0,0,0.502-0.538,0.609-1.326
							c0.107-0.789-0.178-3.02-0.178-3.02c-0.213,0.775-0.359,1.669-0.359,2.482L379.904,172.972z"/>
						<path fill="#E39253" d="M383.757,185.597c0.062-0.488,0.471-1.731,1.366-2.506c0.489-0.424,1.231-1.281,1.255-2.6
							c0.058-3.114,4.8-1.969,2.433,3.023c-0.739,1.559-1.896,2.395-2.916,2.747c-0.456,0.157-0.875,0.404-1.214,0.748
							c-1.394,1.413-3.402,4.073-3.106,7.462c-0.286-1.217-2.042-3.224-4.443-4.73c-1.567-0.982-2.004-1.75-2.068-2.464
							C375.149,187.282,379.979,187.612,383.757,185.597z"/>
						<path fill="#273147" d="M409.382,177.612c-1.197,4.933-3.386,7.042-5.751,10.642c-2.365,3.602-3.978,5.698-3.978,5.698
							c-4.354-0.967-10.481-0.753-10.481-0.753s-0.371-0.813-0.215-1.881c1.685-11.592-0.139-12.146-0.327-12.287
							c-1.608-1.204-4.295,2.343-4.295,2.343l-2.365-2.634c0.283-0.486,3.565-5.512,4.943-8.86c1.22-2.965-1.969-6.226-1.969-6.226
							s7.489-8.457,20.603,3.045C405.547,166.7,410.994,170.965,409.382,177.612z"/>
					</g>
					<path fill="#DBE6EC" d="M376.716,204.545c3.786-2.258,23.044-2.261,26.834,0l-3.543-7.671c-4.255-2.208-15.451-2.23-19.748,0
						L376.716,204.545z"/>
				</g>
				<g>
					<path fill="#273147" d="M417.756,224.896L417.756,224.896L417.756,224.896z"/>
				</g>
				<g>
					<path fill="#34415E" d="M448.395,188.182c-4.125,4.932,0.682-0.827-30.639,36.715c-3.299-16.48-7.803-22.525-7.941-22.711
						v-0.004l22.313-18.468l1.924-27.96l13.041-0.078L448.395,188.182z"/>
				</g>
				<g>
					<path fill="#34415E" d="M417.563,301.2l-25.014,2.295l-2.677-18.445l-2.553,18.508l-25.146,1.209
						c2.11-28.658,1.307-19.228,3.516-41.238c0.921-11.811-1.939-19.002-3.01-25.721c-1.463-9.179-3.972-19.717-3.088-26.721
						c2.227-0.801,11.66-4.474,11.66-4.474s5.042-3.908,5.436-4.02l1.542-2.935c5.69-2.59,18.545-2.594,24.243,0l1.497,2.852
						c2.908-0.164,5.84-0.329,5.84-0.329s4.601,5.975,7.946,22.719c-4.869,29.476-4.424,25.99-4.285,28.009
						C416.002,287.237,415.121,276.92,417.563,301.2z"/>
					<path fill="#273147" d="M413.473,252.909l4.09,48.291l-5.791,0.531l-1.961-50.492l7.355-29.112
						c0.203,0.889,0.4,1.813,0.59,2.773C412.887,254.375,413.332,250.892,413.473,252.909z"/>
				</g>
				<g>
					<g>
						<g>
							<g>
								<g>
									<path fill="#FFA55F" d="M445.832,140.065c0.004,0.987-1.168,14.454-1.203,14.831l-8.318-0.419
										c-0.365-2.167-1.594-3.219-2.605-3.897c-0.33-0.222-1.311-0.949-1.637-1.361c-0.193-0.247-0.367-0.518-0.436-0.756
										l1.109,0.303l1.59-10.908c0.371-1.438,2.566-1.108,2.654,0.269c0.367-2.113,3.502-1.312,3.195,0.394
										c0.131-0.74,0.949-1.208,1.818-1.047c0.879,0.164,1.477,0.896,1.348,1.628c-0.07,0.355-0.031,0.151-0.084,0.433
										C443.559,138.395,445.822,138.615,445.832,140.065z"/>
								</g>
							</g>
						</g>
					</g>
					<polygon fill="#FFFFFF" points="446.338,153.498 446.316,155.68 434.65,155.75 434.639,153.537 					"/>
					<path fill="#273147" d="M448.395,188.182c-2.754,3.299-12.924,15.479-30.639,36.715c-3.295-16.48-7.799-22.53-7.938-22.711
						l-0.004-0.004l1.021-0.762c0.416,0.563,3.961,5.833,7.027,18.373c1.191-1.376,21.977-26.418,27.656-32.986l-0.432-31.121
						l2.004-0.008L448.395,188.182z"/>
				</g>
			</g>
		</g>
	</g>
</g>
</svg>
