<?xml version="1.0" encoding="utf-8"?>
<!-- Generator: Adobe Illustrator 15.0.0, SVG Export Plug-In . SVG Version: 6.00 Build 0)  -->
<!DOCTYPE svg PUBLIC "-//W3C//DTD SVG 1.1//EN" "http://www.w3.org/Graphics/SVG/1.1/DTD/svg11.dtd">
<svg version="1.1" xmlns="http://www.w3.org/2000/svg" xmlns:xlink="http://www.w3.org/1999/xlink" x="0px" y="0px" width="800px"
	 height="587px" viewBox="0 0 800 587" enable-background="new 0 0 800 587" xml:space="preserve">
<g id="background">
</g>
<g id="mobile">
	<g>
		<g>
			<path opacity="0.3" d="M549.832,86.361l-3.834-3.034c-7.999-6.34-21.205-3.072-29.334,7.268l-15.795,20.075V46.468
				c0-10.21-8.349-18.565-18.56-18.565H318.604c-10.204,0-18.559,8.355-18.559,18.565v134.494
				c-3.712-4.732-9.418-8.513-17.945-6.966c-19.473,3.547-19.473,15.924-8.853,46.014c10.618,30.082,8.853,71.371,6.482,96.736
				c-2.354,25.365,2.951,63.71,64.299,70.784v15.184l-5.306,0.016l0.958,21.705l-14.724,0.03L325.583,587h188.711l-0.054-162.908
				l-19.004,0.031l-0.949-21.697l-11.049,0.022v-15.976c8.233-3.586,32.836-17.534,44.79-59.584h0.009l0.037-0.165
				c1.004-3.524,1.908-7.253,2.71-11.185l2.784-11.479c4.348-6.527,4.234-15.418-0.891-21.871l-3.05-3.834
				c-4.43-5.569-11.479-7.901-18.044-6.648l12.951-10.302c7.983-6.354,9.327-18.09,2.972-26.082l-3.047-3.826
				c-5.721-7.192-15.804-8.988-23.592-4.642v-0.03l23.108-18.377c7.983-6.354,9.327-18.09,2.974-26.074l-3.049-3.834
				c-4.348-5.464-11.216-7.812-17.676-6.717l43.38-55.146C557.734,106.338,557.84,92.7,549.832,86.361z"/>
			<g>
				<path fill="#D4A984" d="M513.739,326.724c0.999-3.527,1.907-7.252,2.709-11.184l2.782-11.487l-33.386,26.633l0.688,0.511v16.901
					c0,10.211-8.354,18.559-18.559,18.559H304.27c-10.211,0-18.559-8.348-18.559-18.559V180.967
					c-3.716-4.736-9.418-8.521-17.954-6.97c-19.469,3.543-19.469,15.926-8.852,46.013c10.617,30.08,8.852,71.37,6.488,96.734
					c-2.357,25.364,2.951,63.711,64.296,70.783v22.82h139.21v-23.875c8.236-3.586,32.837-17.53,44.791-59.582l0.009-0.002
					L513.739,326.724z"/>
				<path fill="#DFB28B" d="M535.497,86.361l-3.836-3.038c-8.004-6.336-21.204-3.065-29.336,7.272l-45.863,58.3
					c-8.132,10.336-8.236,23.979-0.232,30.315l3.835,3.038c8.004,6.337,21.204,3.064,29.336-7.271l45.863-58.3
					C543.396,106.34,543.501,92.698,535.497,86.361z"/>
				<path fill="#1A1A1A" d="M486.53,46.468v301.635c0,10.203-8.347,18.558-18.558,18.558H304.265
					c-10.203,0-18.558-8.355-18.558-18.558V46.468c0-10.21,8.354-18.565,18.558-18.565h163.708
					C478.184,27.902,486.53,36.257,486.53,46.468z"/>
				<g>
					<path fill="#666666" d="M397.883,44.053L362.822,44.2c-1.007,0.004-1.829,0.833-1.826,1.841l0.003,0.699
						c0.005,1.008,0.834,1.83,1.841,1.825l35.062-0.146c1.009-0.004,1.829-0.833,1.826-1.842l-0.003-0.698
						C399.721,44.87,398.893,44.048,397.883,44.053z"/>
					<circle fill="#666666" cx="408.646" cy="46.605" r="2.598"/>
				</g>
				<g>
					<path fill="#666666" d="M386.065,336.518c-6.99,0.031-12.643,5.721-12.612,12.725c0.023,6.988,5.721,12.641,12.717,12.61
						c6.996-0.031,12.641-5.728,12.619-12.716C398.759,342.133,393.061,336.488,386.065,336.518z M386.17,360.849
						c-6.43,0.024-11.689-5.176-11.713-11.614c-0.03-6.43,5.177-11.683,11.615-11.713c6.43-0.031,11.691,5.185,11.713,11.615
						C397.816,355.574,392.6,360.819,386.17,360.849z"/>
					<path fill="#666666" d="M386.16,358.846c-5.326,0.022-9.676-4.292-9.698-9.618c-0.023-5.326,4.292-9.677,9.617-9.699
						s9.676,4.292,9.698,9.618C395.801,354.473,391.486,358.824,386.16,358.846z"/>
				</g>
				<g>
					<polygon fill="#DFB28B" points="332.944,424.416 456.605,424.177 332.944,424.423 					"/>
					<g>
						<polygon fill="#F2F2F2" points="480.902,424.126 479.945,402.425 455.659,402.472 456.615,424.173 						"/>
						<polygon fill="#FFFFFF" points="455.659,402.472 324.383,402.727 325.339,424.43 456.615,424.173 						"/>
						<polygon fill="#181818" points="456.81,587 311.245,587 310.618,424.464 325.342,424.434 332.941,424.418 456.26,424.177 
							456.605,424.177 						"/>
						<polygon fill="#161616" points="499.954,587 456.81,587 456.605,424.177 456.614,424.177 480.905,424.131 499.902,424.092 
													"/>
					</g>
				</g>
				<g>
					<polygon fill="#4AB5CD" points="305.127,59.755 305.127,134.02 379.392,59.755 					"/>
					<polygon fill="#53B9CF" points="379.392,59.755 305.127,134.02 305.127,162.267 407.639,59.755 					"/>
					<polygon fill="#4AB5CD" points="407.639,59.755 305.127,162.267 305.127,182.002 427.374,59.755 					"/>
					<polygon fill="#53B9CF" points="427.374,59.755 305.127,182.002 305.127,277.143 467.112,115.157 467.112,59.755 					"/>
					<polygon fill="#4AB5CD" points="305.127,332.311 467.112,332.311 467.112,115.157 305.127,277.143 					"/>
				</g>
				<g>
					<g>
						<path fill="#DFB28B" d="M509.636,208.45l-45.061,35.841c-7.988,6.355-19.725,5.017-26.08-2.972l-3.046-3.829
							c-6.354-7.989-5.018-19.725,2.974-26.08l45.06-35.841c7.988-6.355,19.726-5.017,26.079,2.972l3.046,3.829
							C518.963,190.359,517.626,202.095,509.636,208.45z"/>
					</g>
					<g>
						<path fill="#DFB28B" d="M510.194,261.404l-45.061,35.842c-7.988,6.354-19.725,5.017-26.078-2.972l-3.046-3.829
							c-6.355-7.99-5.02-19.725,2.972-26.08l45.06-35.842c7.99-6.354,19.726-5.017,26.081,2.972l3.046,3.83
							C519.521,243.314,518.185,255.05,510.194,261.404z"/>
					</g>
					<g>
						<path fill="#DFB28B" d="M515.363,308.267l-45.061,35.841c-7.988,6.355-19.726,5.018-26.078-2.972l-3.047-3.829
							c-6.354-7.99-5.019-19.726,2.972-26.08l45.061-35.842c7.988-6.354,19.726-5.018,26.079,2.971l3.047,3.83
							C524.689,290.176,523.354,301.912,515.363,308.267z"/>
						<path fill="#DFB28B" d="M515.363,308.267l-45.061,35.841c-7.988,6.355-19.726,5.018-26.078-2.972l-3.047-3.829
							c-6.354-7.99-5.019-19.726,2.972-26.08l45.061-35.842c7.988-6.354,19.726-5.018,26.079,2.971l3.047,3.83
							C524.689,290.176,523.354,301.912,515.363,308.267z"/>
						<path fill="#DFB28B" d="M515.363,308.267l-45.061,35.841c-7.988,6.355-19.726,5.018-26.078-2.972l-3.047-3.829
							c-6.354-7.99-5.019-19.726,2.972-26.08l45.061-35.842c7.988-6.354,19.726-5.018,26.079,2.971l3.047,3.83
							C524.689,290.176,523.354,301.912,515.363,308.267z"/>
					</g>
				</g>
				<g>
					<path opacity="0.3" d="M426.156,106.466v130.003c0,6.076-4.928,11.003-11.003,11.003h-26.241l-2.417,36.626l-27.743-24.038
						l-14.519-12.588h-58.526V95.462h129.446C421.229,95.462,426.156,100.391,426.156,106.466z"/>
					<path fill="#FFFFFF" d="M405.342,92.441H166.073c-6.079,0-11.007,4.928-11.007,11.007V233.45
						c0,6.079,4.928,11.007,11.007,11.007h168.348l14.524,12.587l27.739,24.037l2.42-36.625h26.237
						c6.079,0,11.006-4.928,11.006-11.007V103.448C416.348,97.369,411.421,92.441,405.342,92.441z"/>
				</g>
			</g>
			<g>
				<g>
					<g>
						<path fill="#F9A526" d="M346.87,171.82c-12.612,5.846-27.628,0.341-33.474-12.271c-5.846-12.612-0.341-27.628,12.27-33.475
							c12.611-5.845,27.628-0.341,33.474,12.271S359.48,165.974,346.87,171.82z"/>
						<circle fill="#E09422" cx="336.268" cy="148.947" r="20.242"/>
						
							<rect x="336.166" y="147.371" transform="matrix(0.9073 -0.4204 0.4204 0.9073 -30.7922 155.0347)" fill="none" width="0.279" height="0"/>
						<g>
						</g>
					</g>
					<path fill="#F9A526" d="M344.924,148.702c-1.318-1.494-4.04-2.779-7.346-2.645l-2.322-8.402
						c2.101,0.072,3.93,1.249,3.954,1.265l0.97-1.461l0.976-1.458c-0.152-0.103-3.245-2.137-6.861-1.83l-0.609-2.199l-2.632,0.728
						l0.594,2.15c-3.861,1.642-5.947,5.296-5.216,9.279c0.354,1.924,1.434,3.568,3.044,4.629c1.745,1.152,3.976,1.532,6.316,1.086
						l2.68,9.692c-0.627,0.157-1.266,0.219-1.88,0.145c-1.692-0.206-3.112-1.395-4.222-3.535l-3.115,1.616
						c2.087,4.025,4.912,5.159,6.915,5.402c1.097,0.133,2.192,0.028,3.238-0.242l0.729,2.644l2.634-0.728l-0.812-2.937
						c1.25-0.687,2.335-1.572,3.139-2.488C348.324,155.734,346.544,150.54,344.924,148.702z M331.405,145.83
						c-0.815-0.538-1.342-1.345-1.524-2.334c-0.408-2.226,0.621-4.162,2.712-5.222l2.26,8.173
						C333.526,146.643,332.318,146.431,331.405,145.83z M342.46,157.102c-0.398,0.454-0.903,0.895-1.473,1.284l-2.44-8.824
						c2.054,0.124,3.372,1.037,3.746,1.461C342.779,151.575,344.374,154.917,342.46,157.102z"/>
				</g>
				<g>
					<g>
						<path fill="#F9A526" d="M369.412,196.766c-13.713,2.274-26.72-7.032-28.995-20.745s7.032-26.72,20.745-28.995
							c13.714-2.274,26.722,7.031,28.997,20.745C392.433,181.483,383.126,194.491,369.412,196.766z"/>
						<circle fill="#E09422" cx="365.287" cy="171.896" r="20.243"/>
						
							<rect x="365.604" y="170.385" transform="matrix(0.9867 -0.1627 0.1627 0.9867 -22.848 61.7754)" fill="none" width="0.279" height="0"/>
						<g>
						</g>
					</g>
					<path fill="#F9A526" d="M373.696,173.966c-0.873-1.792-3.154-3.756-6.375-4.506v-8.717c2.006,0.629,3.454,2.251,3.473,2.272
						l1.325-1.15l1.33-1.145c-0.122-0.14-2.56-2.925-6.127-3.592v-2.282h-2.732v2.23c-4.16,0.554-7.143,3.521-7.499,7.555
						c-0.172,1.949,0.432,3.821,1.699,5.273c1.377,1.575,3.426,2.536,5.8,2.73v10.056c-0.646-0.016-1.277-0.126-1.849-0.361
						c-1.576-0.649-2.629-2.173-3.129-4.531l-3.433,0.727c0.94,4.436,3.36,6.282,5.227,7.049c1.022,0.42,2.104,0.611,3.184,0.629
						v2.743h2.732v-3.047c1.389-0.329,2.671-0.893,3.689-1.561C375.1,181.649,374.768,176.168,373.696,173.966z M361.431,167.595
						c-0.643-0.736-0.935-1.654-0.847-2.656c0.199-2.254,1.708-3.846,4.004-4.311v8.479
						C363.259,168.944,362.15,168.417,361.431,167.595z M369.083,181.404c-0.505,0.332-1.109,0.623-1.762,0.845v-9.155
						c1.946,0.667,2.972,1.897,3.22,2.407C370.863,176.163,371.509,179.81,369.083,181.404z"/>
				</g>
				<g>
					<g>
						<path fill="#F9A526" d="M343.501,210.351c-13.713,2.274-26.72-7.031-28.995-20.745c-2.275-13.713,7.032-26.72,20.745-28.995
							c13.713-2.274,26.72,7.031,28.995,20.745C366.521,195.069,357.214,208.076,343.501,210.351z"/>
						<circle fill="#E09422" cx="339.376" cy="185.481" r="20.242"/>
						
							<rect x="339.694" y="183.97" transform="matrix(0.9867 -0.1627 0.1627 0.9867 -25.4035 57.7409)" fill="none" width="0.279" height="0"/>
						<g>
						</g>
					</g>
					<path fill="#F9A526" d="M347.786,187.551c-0.873-1.792-3.154-3.756-6.375-4.507v-8.716c2.006,0.628,3.454,2.25,3.473,2.272
						l1.325-1.151l1.33-1.145c-0.122-0.14-2.56-2.925-6.127-3.592v-2.281h-2.732v2.23c-4.16,0.554-7.143,3.52-7.499,7.554
						c-0.172,1.949,0.432,3.821,1.699,5.273c1.377,1.575,3.426,2.536,5.8,2.73v10.056c-0.646-0.016-1.277-0.126-1.849-0.361
						c-1.576-0.649-2.629-2.173-3.129-4.531l-3.432,0.727c0.94,4.436,3.36,6.282,5.226,7.049c1.021,0.42,2.104,0.611,3.184,0.629
						v2.743h2.732v-3.047c1.389-0.328,2.671-0.892,3.689-1.561C349.19,195.233,348.857,189.754,347.786,187.551z M335.521,181.18
						c-0.643-0.735-0.937-1.654-0.847-2.656c0.199-2.254,1.708-3.845,4.004-4.311v8.48
						C337.349,182.529,336.24,182.002,335.521,181.18z M343.172,194.989c-0.504,0.331-1.109,0.623-1.762,0.845v-9.154
						c1.946,0.666,2.972,1.897,3.22,2.407C344.953,189.748,345.599,193.395,343.172,194.989z"/>
				</g>
			</g>
			<g>
				<g>
					
						<rect x="184.635" y="144.513" transform="matrix(0.9233 -0.3842 0.3842 0.9233 -47.2901 105.9614)" fill="#259C59" width="113.915" height="53.684"/>
					
						<rect x="221.344" y="120.991" transform="matrix(0.3842 0.9233 -0.9233 0.3842 306.9839 -117.5277)" fill="#71C287" width="40.496" height="100.728"/>
					<circle fill="#259C59" cx="241.592" cy="171.355" r="18.767"/>
					<circle fill="#259C59" cx="210.936" cy="187.089" r="4.888"/>
					<circle fill="#259C59" cx="275.731" cy="160.128" r="4.888"/>
					<path fill="#71C287" d="M249.766,170.365c-1.403-1.24-4.092-2.12-7.157-1.609l-3.146-7.561
						c1.968-0.178,3.809,0.706,3.833,0.717l1.474-2.949c-0.155-0.078-3.275-1.613-6.612-0.904l-0.824-1.98l-2.37,0.986l0.805,1.935
						c-3.409,1.982-4.927,5.633-3.779,9.261c0.555,1.753,1.754,3.159,3.378,3.961c1.763,0.87,3.887,0.963,6.017,0.274l3.63,8.724
						c-0.567,0.219-1.155,0.352-1.735,0.354c-1.603,0.007-3.065-0.936-4.349-2.801l-2.716,1.87c2.416,3.508,5.183,4.236,7.078,4.229
						c1.039-0.004,2.047-0.23,2.99-0.604l0.99,2.38l2.37-0.986l-1.1-2.644c1.086-0.786,1.995-1.738,2.637-2.686
						C253.758,176.522,251.491,171.888,249.766,170.365z M236.827,169.265c-0.823-0.405-1.408-1.097-1.693-1.999
						c-0.641-2.027,0.093-3.952,1.918-5.185l3.061,7.355C238.899,169.776,237.747,169.719,236.827,169.265z M248.449,178.483
						c-0.318,0.469-0.738,0.94-1.224,1.369l-3.305-7.941c1.928-0.125,3.264,0.573,3.663,0.925
						C248.102,173.293,249.979,176.223,248.449,178.483z"/>
				</g>
				<g>
					
						<rect x="185.869" y="149.081" transform="matrix(0.9915 -0.1302 0.1302 0.9915 -20.838 33.1132)" fill="#259C59" width="113.914" height="53.684"/>
					
						<rect x="222.578" y="125.559" transform="matrix(0.1302 0.9915 -0.9915 0.1302 385.6313 -87.7445)" fill="#71C287" width="40.497" height="100.728"/>
					<circle fill="#259C59" cx="242.827" cy="175.923" r="18.767"/>
					<circle fill="#259C59" cx="209.129" cy="183.121" r="4.888"/>
					<circle fill="#259C59" cx="278.713" cy="173.984" r="4.888"/>
					<path fill="#71C287" d="M250.977,177.098c-1.032-1.563-3.398-3.113-6.491-3.419l-1.066-8.119
						c1.947,0.34,3.494,1.673,3.513,1.69l2.192-2.462c-0.129-0.116-2.741-2.411-6.147-2.597l-0.279-2.126l-2.545,0.334l0.273,2.078
						c-3.808,1.025-6.225,4.153-6.063,7.956c0.078,1.836,0.87,3.507,2.229,4.704c1.475,1.299,3.501,1.943,5.737,1.834l1.23,9.368
						c-0.604,0.064-1.206,0.04-1.768-0.11c-1.548-0.412-2.715-1.703-3.468-3.839l-3.109,1.098c1.417,4.017,3.898,5.44,5.73,5.927
						c1.004,0.267,2.036,0.312,3.044,0.196l0.336,2.555l2.545-0.334l-0.373-2.838c1.253-0.476,2.379-1.159,3.246-1.906
						C253.225,184.083,252.245,179.018,250.977,177.098z M238.771,172.663c-0.688-0.607-1.074-1.427-1.114-2.371
						c-0.09-2.125,1.12-3.792,3.204-4.506l1.037,7.899C240.638,173.696,239.542,173.341,238.771,172.663z M247.588,184.591
						c-0.429,0.37-0.957,0.716-1.538,1.002l-1.12-8.528c1.893,0.382,3,1.404,3.294,1.848
						C248.606,179.491,249.655,182.809,247.588,184.591z"/>
				</g>
			</g>
		</g>
		<g>
			<path opacity="0.3" d="M596.27,587H441.413c-37.741-20.398-79.167-53.424-79.167-53.424c-9.229-4.12-13.411-15.033-9.298-24.256
				l1.071-2.422c4.114-9.215,15.026-13.403,24.256-9.298l62.852,28.015l-47.214-153.233c-2.687-8.733,2.241-18.06,10.966-20.754
				l5.554-1.714c8.725-2.686,18.06,2.257,20.755,10.981l20.195,65.544c-0.318-1.048-0.529-2.104-0.643-3.162v-0.007
				c-0.007-0.023-0.007-0.037-0.007-0.061c-0.037-0.431-0.061-0.853-0.076-1.283v-0.219c-0.008-0.415,0.009-0.837,0.039-1.252
				c0.007-0.092,0.014-0.174,0.022-0.266c0.037-0.415,0.082-0.821,0.149-1.229c0.016-0.083,0.031-0.166,0.046-0.248
				c0.067-0.416,0.159-0.824,0.257-1.239c0.015-0.037,0.03-0.082,0.039-0.128c0.052-0.204,0.112-0.407,0.173-0.603
				c0.038-0.128,0.083-0.25,0.129-0.378c0.067-0.189,0.128-0.385,0.202-0.574c0.076-0.211,0.166-0.422,0.25-0.626
				c0.098-0.226,0.188-0.445,0.287-0.656c0.082-0.174,0.174-0.339,0.263-0.513c0.122-0.234,0.234-0.47,0.37-0.702
				c0.054-0.098,0.121-0.196,0.182-0.294c0.166-0.273,0.324-0.545,0.498-0.802c0.007,0,0.007,0,0.007,0
				c2.03-2.995,5.064-5.357,8.785-6.512l5.554-1.697c8.727-2.695,18.068,2.247,20.748,10.972l5.146,16.717
				c-0.399-1.319-0.634-2.649-0.701-3.969c-0.009-0.235-0.022-0.47-0.022-0.695c0-0.113,0.007-0.22,0.007-0.324
				c0-0.264,0.007-0.528,0.021-0.793c0.009-0.09,0.009-0.181,0.016-0.271c0.009-0.143,0.023-0.287,0.037-0.431
				c0.017-0.15,0.03-0.309,0.054-0.459c0.046-0.385,0.104-0.771,0.181-1.147c0-0.009,0-0.016,0-0.016
				c0.061-0.295,0.137-0.582,0.211-0.876c0.039-0.143,0.067-0.293,0.106-0.437c0.009-0.016,0.016-0.023,0.016-0.039
				c0.091-0.309,0.195-0.61,0.302-0.913c0.03-0.067,0.046-0.144,0.074-0.211c0-0.007,0-0.015,0.009-0.023
				c0.082-0.232,0.18-0.468,0.278-0.7c0.075-0.167,0.145-0.332,0.219-0.5c0.092-0.195,0.183-0.385,0.28-0.571
				c0.104-0.213,0.218-0.415,0.333-0.62c0.081-0.151,0.165-0.311,0.256-0.452c0.211-0.354,0.431-0.702,0.67-1.043
				c2.039-2.882,5.004-5.153,8.627-6.271l5.547-1.706c8.725-2.693,18.075,2.258,20.762,10.974l6.627,21.531
				c-0.468-1.539-0.702-3.102-0.725-4.634v-0.007c0-0.25,0.014-0.499,0.022-0.747c0.008-0.211,0.008-0.424,0.021-0.626
				c0.009-0.152,0.03-0.303,0.046-0.446c0.03-0.332,0.069-0.671,0.121-0.995v-0.009c0.046-0.317,0.104-0.635,0.174-0.943
				c0.016-0.067,0.03-0.128,0.046-0.195c0.014-0.055,0.028-0.106,0.044-0.159c0.084-0.341,0.174-0.678,0.28-1.019
				c0.021-0.076,0.045-0.159,0.074-0.235c0.114-0.346,0.234-0.687,0.371-1.025c0.052-0.12,0.104-0.248,0.158-0.37
				c0.113-0.256,0.227-0.504,0.347-0.761c0.054-0.106,0.105-0.213,0.158-0.317c0.158-0.311,0.332-0.604,0.506-0.906
				c0.068-0.113,0.144-0.226,0.211-0.348c0.174-0.278,0.363-0.55,0.551-0.821c0.023-0.03,0.045-0.069,0.076-0.106
				c2.038-2.8,4.944-4.988,8.498-6.075l5.547-1.713c8.725-2.695,18.068,2.248,20.746,10.966v0.015
				c0.098,0.227,26.701,63.695,14.098,133.438l5.479,17.81h0.008L596.27,587z"/>
			<g>
				<g>
					<g>
						<g>
							<g>
								<path fill="#DFB28B" d="M428.584,587c-37.743-20.398-79.168-53.424-79.168-53.424c-9.229-4.12-13.411-15.033-9.298-24.256
									l1.072-2.422c4.114-9.215,15.027-13.403,24.256-9.298l62.851,28.015l-47.213-153.233
									c-2.687-8.733,2.241-18.06,10.965-20.754l5.554-1.714c8.724-2.686,18.062,2.257,20.749,10.981l20.202,65.544
									c-0.317-1.057-0.536-2.104-0.643-3.169c-0.028-0.28-0.053-0.559-0.067-0.837c-0.022-0.491-0.03-0.989,0-1.48
									c0-0.158,0.015-0.316,0.023-0.476c0-0.074,0.007-0.15,0.016-0.226c0.015-0.189,0.037-0.37,0.052-0.551
									c0.122-1.058,0.348-2.091,0.663-3.095c0.055-0.174,0.106-0.339,0.167-0.506c0.12-0.354,0.257-0.709,0.407-1.048
									c0.106-0.242,0.213-0.477,0.325-0.711c0.189-0.392,0.392-0.785,0.618-1.161c0.084-0.151,0.174-0.295,0.265-0.438
									c0.113-0.181,0.227-0.361,0.354-0.535l0.009-0.009c2.029-2.995,5.063-5.357,8.783-6.512l5.556-1.697
									c8.724-2.695,18.066,2.247,20.746,10.972l5.146,16.717c-0.399-1.319-0.635-2.649-0.702-3.969
									c-0.007-0.235-0.021-0.47-0.021-0.695v-0.233c0-0.385,0.015-0.771,0.044-1.155c0.061-0.92,0.204-1.826,0.415-2.709
									c0.061-0.22,0.114-0.438,0.174-0.656c0.052-0.174,0.106-0.354,0.167-0.528c0.044-0.137,0.09-0.265,0.135-0.4
									c0.03-0.084,0.061-0.158,0.092-0.234c0.061-0.174,0.128-0.348,0.195-0.52c0-0.017,0.009-0.03,0.016-0.046
									c0.112-0.265,0.226-0.521,0.348-0.777c0.082-0.174,0.165-0.354,0.256-0.528v-0.009c0.09-0.165,0.181-0.339,0.278-0.504
									c0.287-0.528,0.604-1.035,0.952-1.526c2.037-2.882,5.003-5.153,8.627-6.271l5.547-1.706
									c8.723-2.693,18.074,2.258,20.761,10.974l6.626,21.531c-0.468-1.539-0.702-3.102-0.725-4.634v-0.007
									c-0.007-0.438,0.007-0.867,0.037-1.299c0.009-0.144,0.023-0.285,0.037-0.431c0.009-0.104,0.018-0.202,0.03-0.301
									c0.018-0.144,0.03-0.288,0.055-0.43c0.044-0.348,0.104-0.695,0.172-1.035c0.017-0.091,0.03-0.181,0.054-0.271
									c0.022-0.098,0.046-0.204,0.074-0.302c0.146-0.603,0.326-1.208,0.537-1.789c0.045-0.128,0.1-0.256,0.151-0.393
									c0.06-0.166,0.136-0.338,0.203-0.505c0.167-0.4,0.348-0.785,0.552-1.163c0.045-0.098,0.098-0.195,0.158-0.293
									c0.098-0.174,0.196-0.348,0.302-0.521c0.12-0.218,0.257-0.438,0.4-0.648c0.144-0.22,0.294-0.438,0.445-0.649
									c2.037-2.8,4.942-4.988,8.497-6.075l5.547-1.713c8.725-2.695,18.068,2.248,20.746,10.966v0.015
									c0.098,0.227,26.701,63.695,14.098,133.438l5.479,17.81l0.008,0.009l1.691,5.508H428.584z"/>
								<g>
									<path fill="#D4A984" d="M440.94,412.691l26.796,86.965c0.487,1.581-0.406,3.271-1.988,3.758
										c-1.581,0.487-3.271-0.407-3.758-1.988l-24.081-78.153c-0.406-3.971,0.65-7.892,2.828-11.075
										C440.822,412.354,440.886,412.518,440.94,412.691z"/>
									<path fill="#D4A984" d="M483.322,417.188l22.15,71.889c0.484,1.567-0.401,3.241-1.963,3.723l-0.064,0.02
										c-1.563,0.481-3.234-0.404-3.717-1.973l-19.457-63.142C480.061,423.915,481.184,420.204,483.322,417.188z"/>
									<path fill="#D4A984" d="M527.363,427.044l16.097,52.242c0.463,1.503-0.39,3.118-1.894,3.581l-0.271,0.084
										c-1.509,0.466-3.116-0.39-3.581-1.896l-13.552-43.983C524.111,433.436,525.272,429.919,527.363,427.044z"/>
								</g>
							</g>
						</g>
					</g>
				</g>
			</g>
		</g>
	</g>
</g>
</svg>
