<?xml version="1.0" encoding="utf-8"?>
<!-- Generator: Adobe Illustrator 15.0.0, SVG Export Plug-In . SVG Version: 6.00 Build 0)  -->
<!DOCTYPE svg PUBLIC "-//W3C//DTD SVG 1.1//EN" "http://www.w3.org/Graphics/SVG/1.1/DTD/svg11.dtd">
<svg version="1.1" xmlns="http://www.w3.org/2000/svg" xmlns:xlink="http://www.w3.org/1999/xlink" x="0px" y="0px"
	 width="800.713px" height="600px" viewBox="0 0 800.713 600" enable-background="new 0 0 800.713 600" xml:space="preserve">
<g id="background">
</g>
<g id="laptop">
	<g>
		<path fill="#DBDBDB" d="M430.974,540.824c-1.668,0-3.259-0.094-4.727-0.279c0,0-150.79-179.871-149.499-179.729
			c0,0,479.599,3.047,491.095,21.668c9.687,15.691-317.837,154.693-317.837,154.693C444.864,539.43,437.569,540.824,430.974,540.824
			z"/>
		<path fill="#6D6E75" d="M268.805,56.745L659.376,40.57c15.517,0,16.129,13.12,15.479,21.756L652.554,396.85
			c-1.618,16.297-14.353,18.203-22.505,17.176l-382.232-41.729c-7.478-0.941-12.936-7.412-12.493-14.809l20.341-287.524
			C256.084,62.956,261.687,57.32,268.805,56.745z"/>
		<path fill="#57585E" d="M267.921,58.761l380.172-15.878c8.549-0.703,15.705,6.395,15.069,14.949l-21.569,343.383
			c-0.591,7.982-7.759,13.832-15.696,12.814l-379.409-41.625c-7.28-0.934-12.595-7.342-12.163-14.67l20.804-285.879
			C255.536,64.914,260.99,59.331,267.921,58.761z"/>
		<path fill="#FFFFFF" d="M251.972,346.078l19.021-261.366c0.277-3.816,3.295-6.86,7.109-7.171l352.732-13.642
			c4.748-0.387,8.722,3.557,8.368,8.31l-20.903,312.186c-0.327,4.422-4.284,7.668-8.684,7.129l-350.849-37.18
			C254.66,353.84,251.671,350.205,251.972,346.078z"/>
		<path fill="#D6D9E6" d="M273.607,342.895c-4.571-0.525-8.04-4.711-7.708-9.301L282.857,98.84c0.331-4.589,4.364-8.483,8.962-8.654
			l320.223-11.899c4.599-0.169,8.113,3.448,7.812,8.039l-18.818,282.962c-0.303,4.592-4.29,7.92-8.86,7.396L273.607,342.895z"/>
		<path fill="#B5B5B5" d="M453.804,61.104c0.029,2.261-1.784,4.126-4.053,4.155c-2.274,0.031-4.135-1.785-4.169-4.044
			c-0.029-2.273,1.784-4.135,4.056-4.165C451.906,57.019,453.771,58.833,453.804,61.104z"/>
		<path fill="#EDEDED" d="M452.764,61.12c0.022,1.692-1.336,3.089-3.027,3.111c-1.7,0.022-3.093-1.335-3.114-3.029
			c-0.022-1.694,1.331-3.099,3.031-3.122C451.345,58.057,452.742,59.426,452.764,61.12z"/>
		<g>
			<g>
				<path opacity="0.5" fill="#B3B3B3" d="M570.904,312.404c-34.871-6.938-69.743-13.876-104.615-20.814
					c25.754-90.085,30.563-184.73,14.232-276.725c35.43-3.892,70.858-7.783,106.286-11.674
					C605.058,105.986,599.684,211.743,570.904,312.404z"/>
				<path fill="#E6B8B8" d="M568.838,308.336c-34.907-6.816-69.814-13.632-104.721-20.451
					c25.188-89.878,29.498-184.221,12.738-275.839C512.263,8.031,547.67,4.016,583.076,0
					C601.811,102.412,596.989,207.867,568.838,308.336z"/>
				<path fill="#FFFFFF" d="M573.008,25.607c-26.165,2.326-52.332,4.652-78.499,6.978c-0.599-4.096-1.236-8.188-1.917-12.274
					c26.112-2.675,52.225-5.351,78.337-8.027C571.666,16.72,572.359,21.162,573.008,25.607z"/>
				<path fill="#FFFFFF" d="M564.891,38.722c-19.673,1.503-39.348,3.005-59.021,4.507c-0.302-2.373-0.617-4.745-0.945-7.115
					c19.654-1.653,39.307-3.305,58.96-4.958C564.234,33.677,564.569,36.199,564.891,38.722z"/>
				<path fill="#FFFFFF" d="M553.902,270.104c-19.454-3.097-38.909-6.194-58.365-9.292c0.527-2.337,1.04-4.678,1.539-7.02
					c19.487,2.949,38.975,5.897,58.463,8.847C555.008,265.129,554.463,267.617,553.902,270.104z"/>
				<path fill="#FFFFFF" d="M558.796,282.928c-24.464-4.193-48.927-8.389-73.39-12.582c0.563-2.312,1.111-4.625,1.648-6.94
					c24.509,4.008,49.017,8.014,73.523,12.024C559.999,277.93,559.404,280.43,558.796,282.928z"/>
				<path fill="#FFFFFF" d="M570.461,50.303c-22.482,1.446-44.964,2.892-67.446,4.337c-0.258-2.366-0.53-4.73-0.814-7.094
					c22.461-1.618,44.924-3.235,67.388-4.854C569.894,45.229,570.184,47.765,570.461,50.303z"/>
				
					<rect x="491.659" y="78.59" transform="matrix(0.0378 0.9993 -0.9993 0.0378 553.4224 -415.2664)" fill="#FFFFFF" width="1.394" height="2.331"/>
				<path fill="#FFFFFF" d="M498.342,80.226l-0.052-1.393l4.305-0.162l0.052,1.392L498.342,80.226z M506.949,79.902l-0.052-1.393
					l4.305-0.162l0.052,1.393L506.949,79.902z M515.557,79.578l-0.051-1.393l4.303-0.162l0.053,1.393L515.557,79.578z
					 M524.163,79.253l-0.052-1.393l4.305-0.162l0.051,1.393L524.163,79.253z M532.771,78.93l-0.052-1.393l4.305-0.162l0.052,1.393
					L532.771,78.93z M541.379,78.605l-0.052-1.393l4.303-0.162l0.052,1.393L541.379,78.605z M549.986,78.28l-0.053-1.393
					l4.305-0.162l0.052,1.393L549.986,78.28z M558.593,77.957l-0.052-1.393l4.305-0.162l0.051,1.393L558.593,77.957z
					 M567.201,77.633l-0.052-1.393l4.303-0.162l0.052,1.393L567.201,77.633z M575.807,77.308l-0.052-1.393l4.304-0.162l0.053,1.394
					L575.807,77.308z"/>
				
					<rect x="585.113" y="75.07" transform="matrix(0.0371 0.9993 -0.9993 0.0371 640.2413 -512.0017)" fill="#FFFFFF" width="1.394" height="2.329"/>
				
					<rect x="487.078" y="204.688" transform="matrix(0.9951 0.0989 -0.0989 0.9951 22.7016 -47.2717)" fill="#FFFFFF" width="2.331" height="1.394"/>
				<path fill="#FFFFFF" d="M575.531,214.793l-4.285-0.427l0.139-1.388l4.285,0.427L575.531,214.793z M566.961,213.938l-4.284-0.427
					l0.139-1.387l4.283,0.427L566.961,213.938z M558.39,213.083l-4.285-0.428l0.141-1.387l4.283,0.427L558.39,213.083z
					 M549.819,212.229l-4.286-0.427l0.14-1.388l4.284,0.427L549.819,212.229z M541.248,211.373l-4.284-0.428l0.139-1.386
					l4.286,0.427L541.248,211.373z M532.678,210.518l-4.286-0.428l0.141-1.387l4.283,0.427L532.678,210.518z M524.107,209.664
					l-4.286-0.428l0.14-1.388l4.284,0.428L524.107,209.664z M515.536,208.809l-4.286-0.428l0.14-1.388l4.284,0.428L515.536,208.809z
					 M506.966,207.954l-4.284-0.428l0.138-1.387l4.286,0.428L506.966,207.954z M498.395,207.099l-4.286-0.428l0.14-1.387
					l4.284,0.428L498.395,207.099z"/>
				
					<rect x="580.114" y="213.969" transform="matrix(0.995 0.0996 -0.0996 0.995 24.2675 -56.8205)" fill="#FFFFFF" width="2.329" height="1.395"/>
				
					<rect x="482.722" y="232.199" transform="matrix(0.9916 0.1292 -0.1292 0.9916 34.1605 -60.5884)" fill="#FFFFFF" width="2.327" height="1.393"/>
				<path fill="#FFFFFF" d="M570.84,244.948l-4.27-0.558l0.18-1.381l4.27,0.557L570.84,244.948z M562.299,243.833l-4.27-0.558
					l0.18-1.382l4.27,0.558L562.299,243.833z M553.758,242.719l-4.271-0.558l0.181-1.382l4.27,0.558L553.758,242.719z
					 M545.218,241.604l-4.27-0.558l0.18-1.382l4.27,0.558L545.218,241.604z M536.677,240.488l-4.271-0.558l0.18-1.381l4.271,0.557
					L536.677,240.488z M528.137,239.375l-4.27-0.558l0.18-1.382l4.27,0.558L528.137,239.375z M519.595,238.259l-4.271-0.558
					l0.181-1.382l4.27,0.558L519.595,238.259z M511.052,237.145l-4.27-0.558l0.182-1.382l4.27,0.558L511.052,237.145z
					 M502.513,236.029l-4.27-0.558l0.18-1.381l4.27,0.557L502.513,236.029z M493.972,234.915l-4.27-0.557l0.179-1.382l4.271,0.558
					L493.972,234.915z"/>
				
					<rect x="575.313" y="244.283" transform="matrix(0.9916 0.1295 -0.1295 0.9916 36.565 -72.5667)" fill="#FFFFFF" width="2.327" height="1.394"/>
				
					<rect x="481.73" y="237.528" transform="matrix(0.9908 0.1351 -0.1351 0.9908 36.6041 -63.0439)" fill="#FFFFFF" width="2.328" height="1.395"/>
				<path fill="#FFFFFF" d="M569.771,250.791l-4.267-0.582l0.188-1.383l4.268,0.583L569.771,250.791z M561.239,249.626l-4.267-0.583
					l0.187-1.382l4.269,0.582L561.239,249.626z M552.704,248.461l-4.268-0.583l0.188-1.382l4.267,0.583L552.704,248.461z
					 M544.171,247.295l-4.268-0.582l0.188-1.382l4.267,0.583L544.171,247.295z M535.637,246.13l-4.269-0.582l0.189-1.382
					l4.266,0.583L535.637,246.13z M527.103,244.965l-4.269-0.583l0.189-1.382l4.266,0.583L527.103,244.965z M518.568,243.801
					l-4.268-0.583l0.188-1.382l4.267,0.583L518.568,243.801z M510.034,242.635l-4.267-0.583l0.188-1.382l4.268,0.583
					L510.034,242.635z M501.5,241.47l-4.267-0.582l0.188-1.383l4.268,0.583L501.5,241.47z M492.966,240.304l-4.268-0.582
					l0.188-1.382l4.268,0.583L492.966,240.304z"/>
				
					<rect x="574.22" y="250.156" transform="matrix(0.9908 0.1351 -0.1351 0.9908 39.1574 -75.4214)" fill="#FFFFFF" width="2.328" height="1.395"/>
				<path fill="#FFFFFF" d="M500.959,190.523c-3.498-0.288-6.995-0.576-10.492-0.864c0.364-3.328,0.7-6.659,1.01-9.992
					c3.501,0.25,7.003,0.5,10.503,0.749C501.667,183.787,501.326,187.156,500.959,190.523z"/>
				<path fill="#FFFFFF" d="M584.697,197.417c-4.896-0.403-9.791-0.806-14.687-1.209c0.395-3.618,0.762-7.238,1.099-10.86
					c4.899,0.349,9.801,0.699,14.703,1.048C585.469,190.073,585.099,193.747,584.697,197.417z"/>
				<path fill="#FFFFFF" d="M548.188,194.412c-13.073-1.077-26.147-2.153-39.221-3.23c0.37-3.396,0.714-6.794,1.03-10.194
					c13.089,0.934,26.177,1.867,39.265,2.801C548.934,187.333,548.574,190.873,548.188,194.412z"/>
				<path fill="#FFFFFF" d="M579.33,236.173c-4.87-0.59-9.739-1.181-14.608-1.772c0.604-3.595,1.179-7.193,1.723-10.796
					c4.877,0.538,9.756,1.076,14.632,1.614C580.524,228.874,579.942,232.526,579.33,236.173z"/>
				<path fill="#FFFFFF" d="M543.015,231.766c-13.004-1.579-26.009-3.157-39.013-4.735c0.565-3.374,1.104-6.751,1.615-10.132
					c13.027,1.437,26.056,2.873,39.083,4.309C544.167,224.73,543.605,228.25,543.015,231.766z"/>
				<path fill="#FFFFFF" d="M502.68,172.313c-3.504-0.218-7.007-0.438-10.511-0.658c0.266-3.336,0.505-6.673,0.718-10.013
					c3.507,0.181,7.013,0.362,10.519,0.543C503.191,165.563,502.949,168.938,502.68,172.313z"/>
				<path fill="#FFFFFF" d="M586.575,177.561c-4.905-0.307-9.809-0.614-14.714-0.92c0.289-3.626,0.549-7.254,0.78-10.883
					c4.908,0.253,9.816,0.506,14.726,0.76C587.133,170.199,586.868,173.881,586.575,177.561z"/>
				<path fill="#FFFFFF" d="M557.376,175.734c-15.557-0.973-31.115-1.946-46.673-2.919c0.271-3.403,0.515-6.809,0.731-10.215
					c15.57,0.803,31.14,1.606,46.712,2.409C557.918,168.585,557.662,172.162,557.376,175.734z"/>
				<path fill="#FFFFFF" d="M503.868,154.067c-3.509-0.15-7.018-0.301-10.524-0.45c0.169-3.342,0.311-6.685,0.424-10.028
					c3.51,0.112,7.02,0.224,10.529,0.336C504.182,147.307,504.039,150.688,503.868,154.067z"/>
				<path fill="#FFFFFF" d="M587.87,157.664c-4.91-0.21-9.821-0.42-14.731-0.631c0.183-3.632,0.337-7.265,0.46-10.899
					c4.914,0.156,9.827,0.313,14.74,0.47C588.213,150.292,588.056,153.979,587.87,157.664z"/>
				<path fill="#FFFFFF" d="M544.237,155.796c-10.779-0.461-21.558-0.923-32.338-1.384c0.174-3.41,0.319-6.82,0.435-10.231
					c10.783,0.344,21.567,0.688,32.351,1.031C544.564,148.741,544.415,152.269,544.237,155.796z"/>
				<path fill="#FFFFFF" d="M504.522,135.798c-3.511-0.082-7.022-0.162-10.531-0.243c0.07-3.345,0.113-6.69,0.13-10.036
					c3.512,0.043,7.023,0.085,10.534,0.128C504.639,129.031,504.594,132.415,504.522,135.798z"/>
				<path fill="#FFFFFF" d="M588.584,137.742c-4.914-0.113-9.829-0.228-14.742-0.341c0.077-3.636,0.124-7.272,0.142-10.908
					c4.914,0.061,9.829,0.12,14.745,0.18C588.71,130.363,588.661,134.053,588.584,137.742z"/>
				<path fill="#FFFFFF" d="M552.123,136.899c-13.188-0.305-26.374-0.61-39.562-0.915c0.071-3.412,0.115-6.825,0.133-10.239
					c13.19,0.161,26.38,0.322,39.569,0.482C552.244,129.786,552.199,133.343,552.123,136.899z"/>
				<path fill="#FFFFFF" d="M504.642,117.516c-3.51-0.012-7.021-0.024-10.533-0.036c-0.026-3.346-0.082-6.692-0.161-10.038
					c3.509-0.026,7.021-0.052,10.53-0.079C504.56,110.748,504.614,114.132,504.642,117.516z"/>
				<path fill="#FFFFFF" d="M588.715,117.807c-4.915-0.018-9.83-0.034-14.744-0.051c-0.03-3.637-0.09-7.274-0.178-10.91
					c4.915-0.037,9.827-0.073,14.742-0.11C588.625,110.426,588.685,114.117,588.715,117.807z"/>
				<path fill="#FFFFFF" d="M559.834,117.707c-15.718-0.054-31.436-0.108-47.151-0.163c-0.029-3.414-0.084-6.828-0.167-10.241
					c15.715-0.117,31.431-0.234,47.144-0.353C559.747,110.537,559.806,114.122,559.834,117.707z"/>
				<path fill="#FFFFFF" d="M504.228,99.235c-3.51,0.057-7.02,0.113-10.529,0.17c-0.125-3.345-0.277-6.689-0.457-10.033
					c3.509-0.095,7.018-0.19,10.525-0.286C503.947,92.469,504.101,95.851,504.228,99.235z"/>
				<path fill="#FFFFFF" d="M588.262,97.872c-4.911,0.08-9.824,0.159-14.738,0.239c-0.135-3.636-0.301-7.271-0.495-10.905
					c4.91-0.134,9.82-0.267,14.729-0.4C587.956,90.494,588.125,94.182,588.262,97.872z"/>
				<path fill="#FFFFFF" d="M546.507,98.549c-11.415,0.185-22.83,0.37-34.243,0.556c-0.128-3.413-0.283-6.825-0.466-10.235
					c11.409-0.31,22.817-0.62,34.227-0.93C546.215,91.475,546.375,95.012,546.507,98.549z"/>
			</g>
			<g>
				<path opacity="0.5" fill="#B3B3B3" d="M412.163,227.804c-35.264-5.674-70.529-11.348-105.793-17.021
					c13.563-64.303,14.351-130.814,2.135-195.711c35.367-3.752,70.734-7.505,106.103-11.257
					C428.588,78.089,427.687,154.21,412.163,227.804z"/>
				<path fill="#85B9E6" d="M409.688,224.393c-35.29-5.551-70.58-11.101-105.87-16.651c13.169-64.089,13.613-130.328,1.105-194.91
					c35.344-3.876,70.687-7.752,106.03-11.629C425.278,75.155,424.769,151.005,409.688,224.393z"/>
				<path fill="#FFFFFF" d="M400.453,22.669c-26.127,2.223-52.254,4.446-78.382,6.669c-0.522-3.339-1.078-6.674-1.668-10.006
					c26.068-2.573,52.137-5.146,78.206-7.718C399.262,15.294,399.876,18.98,400.453,22.669z"/>
				<path fill="#FFFFFF" d="M392.168,33.641c-19.646,1.425-39.292,2.851-58.938,4.275c-0.268-1.938-0.545-3.877-0.834-5.813
					c19.624-1.576,39.249-3.152,58.874-4.728C391.582,29.463,391.881,31.551,392.168,33.641z"/>
				<path fill="#FFFFFF" d="M390.576,195.457c-19.608-2.461-39.217-4.923-58.825-7.384c0.304-1.926,0.598-3.854,0.879-5.783
					c19.631,2.311,39.262,4.623,58.893,6.935C391.219,191.303,390.903,193.38,390.576,195.457z"/>
				<path fill="#FFFFFF" d="M396.629,206.137c-24.675-3.395-49.351-6.79-74.025-10.185c0.335-1.902,0.658-3.806,0.971-5.712
					c24.707,3.207,49.414,6.413,74.122,9.62C397.353,201.954,396.996,204.046,396.629,206.137z"/>
				<path fill="#FFFFFF" d="M397.595,43.201c-22.453,1.357-44.907,2.715-67.36,4.073c-0.23-1.932-0.474-3.862-0.726-5.792
					c22.432-1.529,44.864-3.059,67.297-4.587C397.081,38.996,397.344,41.098,397.595,43.201z"/>
				
					<rect x="318.695" y="66.65" transform="matrix(0.0336 0.9994 -0.9994 0.0336 376.4266 -253.6771)" fill="#FFFFFF" width="1.394" height="2.329"/>
				<path fill="#FFFFFF" d="M325.369,68.31l-0.047-1.393l4.305-0.145l0.046,1.393L325.369,68.31z M333.978,68.019l-0.047-1.392
					l4.305-0.146l0.046,1.393L333.978,68.019z M342.585,67.729l-0.046-1.393l4.304-0.145l0.047,1.393L342.585,67.729z
					 M351.193,67.437l-0.046-1.393l4.304-0.145l0.048,1.393L351.193,67.437z M359.802,67.146l-0.046-1.393l4.303-0.146L364.106,67
					L359.802,67.146z M368.411,66.856l-0.047-1.393l4.303-0.146l0.048,1.393L368.411,66.856z M377.02,66.566l-0.047-1.393
					l4.303-0.146l0.048,1.392L377.02,66.566z M385.628,66.275l-0.046-1.393l4.303-0.146l0.048,1.393L385.628,66.275z
					 M394.235,65.983l-0.046-1.392l4.305-0.146l0.046,1.393L394.235,65.983z M402.844,65.693l-0.046-1.393l4.303-0.145l0.048,1.392
					L402.844,65.693z"/>
				
					<rect x="412.057" y="63.497" transform="matrix(0.0343 0.9994 -0.9994 0.0343 463.2018 -350.0694)" fill="#FFFFFF" width="1.393" height="2.328"/>
				
					<rect x="318.58" y="142.04" transform="matrix(0.9978 0.0664 -0.0664 0.9978 10.1778 -20.9056)" fill="#FFFFFF" width="2.332" height="1.395"/>
				<path fill="#FFFFFF" d="M407.303,149.279l-4.298-0.287l0.092-1.392l4.299,0.287L407.303,149.279z M398.707,148.705l-4.297-0.287
					l0.093-1.392l4.297,0.287L398.707,148.705z M390.114,148.132l-4.298-0.287l0.093-1.392l4.297,0.287L390.114,148.132z
					 M381.52,147.559l-4.298-0.287l0.094-1.392l4.297,0.288L381.52,147.559z M372.925,146.985l-4.297-0.287l0.093-1.392l4.297,0.286
					L372.925,146.985z M364.332,146.411l-4.298-0.286l0.092-1.392l4.298,0.286L364.332,146.411z M355.737,145.838l-4.298-0.287
					l0.092-1.392l4.298,0.287L355.737,145.838z M347.144,145.265l-4.298-0.287l0.093-1.392l4.297,0.286L347.144,145.265z
					 M338.549,144.69l-4.297-0.287l0.092-1.392l4.298,0.286L338.549,144.69z M329.954,144.117l-4.297-0.287l0.093-1.391l4.298,0.287
					L329.954,144.117z"/>
				
					<rect x="411.987" y="148.273" transform="matrix(0.9978 0.0668 -0.0668 0.9978 10.8711 -27.259)" fill="#FFFFFF" width="2.332" height="1.396"/>
				
					<rect x="316.496" y="164.555" transform="matrix(0.9953 0.0965 -0.0965 0.9953 17.4329 -29.8886)" fill="#FFFFFF" width="2.332" height="1.394"/>
				<path fill="#FFFFFF" d="M404.978,174.439l-4.287-0.416l0.136-1.388l4.285,0.417L404.978,174.439z M396.404,173.606l-4.286-0.417
					l0.135-1.387l4.286,0.416L396.404,173.606z M387.83,172.773l-4.286-0.417l0.136-1.388l4.286,0.417L387.83,172.773z
					 M379.258,171.94l-4.286-0.416l0.136-1.388l4.286,0.416L379.258,171.94z M370.686,171.107l-4.286-0.417l0.135-1.387l4.286,0.417
					L370.686,171.107z M362.112,170.273l-4.286-0.416l0.135-1.388l4.286,0.417L362.112,170.273z M353.54,169.44l-4.286-0.417
					l0.135-1.387l4.286,0.416L353.54,169.44z M344.967,168.606l-4.286-0.417l0.135-1.388l4.286,0.417L344.967,168.606z
					 M336.394,167.773l-4.286-0.417l0.136-1.388l4.286,0.417L336.394,167.773z M327.82,166.94l-4.286-0.417l0.136-1.387l4.286,0.416
					L327.82,166.94z"/>
				
					<rect x="409.641" y="173.609" transform="matrix(0.9953 0.0968 -0.0968 0.9953 18.7948 -38.9341)" fill="#FFFFFF" width="2.331" height="1.394"/>
				
					<rect x="315.972" y="168.921" transform="matrix(0.9947 0.1024 -0.1024 0.9947 19.0373 -31.5852)" fill="#FFFFFF" width="2.332" height="1.395"/>
				<path fill="#FFFFFF" d="M404.398,179.321l-4.284-0.442l0.143-1.387l4.285,0.441L404.398,179.321z M395.831,178.437l-4.285-0.442
					l0.144-1.388l4.283,0.442L395.831,178.437z M387.263,177.554l-4.285-0.442l0.144-1.387l4.283,0.441L387.263,177.554z
					 M378.694,176.669l-4.284-0.442l0.144-1.388l4.283,0.442L378.694,176.669z M370.127,175.786l-4.284-0.442l0.143-1.387
					l4.284,0.442L370.127,175.786z M361.559,174.902l-4.283-0.442l0.142-1.387l4.285,0.441L361.559,174.902z M352.991,174.019
					l-4.284-0.442l0.143-1.388l4.285,0.442L352.991,174.019z M344.424,173.134l-4.285-0.441l0.144-1.388l4.284,0.442
					L344.424,173.134z M335.855,172.251l-4.284-0.442l0.143-1.387l4.285,0.442L335.855,172.251z M327.288,171.367l-4.284-0.441
					l0.143-1.387l4.284,0.442L327.288,171.367z"/>
				
					<rect x="409.053" y="178.523" transform="matrix(0.9947 0.1027 -0.1027 0.9947 20.5653 -41.1646)" fill="#FFFFFF" width="2.331" height="1.395"/>
				<path fill="#FFFFFF" d="M412.915,166.924c-4.896-0.431-9.791-0.863-14.687-1.295c0.305-2.997,0.586-5.997,0.843-8.998
					c4.9,0.378,9.802,0.757,14.702,1.134C413.513,160.821,413.226,163.874,412.915,166.924z"/>
				<path fill="#FFFFFF" d="M376.404,163.706c-13.075-1.153-26.15-2.305-39.225-3.458c0.282-2.775,0.543-5.552,0.78-8.331
					c13.088,1.01,26.177,2.02,39.265,3.029C376.976,157.868,376.702,160.788,376.404,163.706z"/>
				<path fill="#FFFFFF" d="M331.382,128.415c-3.507-0.164-7.015-0.328-10.521-0.492c0.108-2.719,0.196-5.439,0.263-8.16
					c3.509,0.125,7.018,0.25,10.526,0.377C331.583,122.898,331.494,125.657,331.382,128.415z"/>
				<path fill="#FFFFFF" d="M415.371,132.345c-4.91-0.229-9.819-0.46-14.729-0.69c0.121-3.01,0.218-6.021,0.291-9.033
					c4.912,0.177,9.823,0.353,14.735,0.529C415.593,126.217,415.494,129.281,415.371,132.345z"/>
				<path fill="#FFFFFF" d="M371.745,130.303c-10.777-0.503-21.555-1.008-32.331-1.512c0.112-2.787,0.202-5.575,0.27-8.363
					c10.78,0.387,21.562,0.773,32.342,1.16C371.955,124.493,371.861,127.399,371.745,130.303z"/>
				<path fill="#FFFFFF" d="M331.766,113.509c-3.509-0.095-7.02-0.191-10.528-0.285c0.03-2.722,0.038-5.445,0.024-8.167
					c3.51,0.057,7.019,0.113,10.528,0.169C331.804,107.987,331.796,110.749,331.766,113.509z"/>
				<path fill="#FFFFFF" d="M415.796,115.786c-4.911-0.133-9.824-0.267-14.736-0.399c0.033-3.013,0.043-6.026,0.026-9.04
					c4.912,0.079,9.826,0.159,14.738,0.238C415.841,109.652,415.831,112.719,415.796,115.786z"/>
				<path fill="#FFFFFF" d="M379.351,114.798c-13.183-0.357-26.366-0.714-39.549-1.072c0.03-2.79,0.039-5.579,0.023-8.37
					c13.184,0.213,26.367,0.426,39.551,0.639C379.391,108.93,379.383,111.865,379.351,114.798z"/>
				<path fill="#FFFFFF" d="M331.713,98.592c-3.509-0.026-7.019-0.052-10.528-0.078c-0.05-2.722-0.121-5.445-0.215-8.168
					c3.509-0.012,7.017-0.025,10.525-0.038C331.589,93.07,331.662,95.831,331.713,98.592z"/>
				<path fill="#FFFFFF" d="M415.738,99.215c-4.913-0.036-9.824-0.073-14.736-0.109c-0.055-3.014-0.135-6.028-0.238-9.042
					c4.91-0.017,9.822-0.034,14.732-0.052C415.602,93.08,415.681,96.147,415.738,99.215z"/>
				<path fill="#FFFFFF" d="M386.874,99.001c-15.709-0.116-31.418-0.233-47.126-0.349c-0.051-2.791-0.124-5.581-0.221-8.372
					c15.704-0.055,31.408-0.111,47.112-0.166C386.742,93.077,386.819,96.039,386.874,99.001z"/>
				<path fill="#FFFFFF" d="M331.223,83.676c-3.507,0.043-7.014,0.086-10.521,0.128c-0.129-2.721-0.281-5.443-0.454-8.164
					c3.504-0.082,7.009-0.163,10.515-0.245C330.938,78.156,331.092,80.916,331.223,83.676z"/>
				<path fill="#FFFFFF" d="M415.193,82.644c-4.908,0.061-9.818,0.121-14.727,0.182c-0.143-3.013-0.311-6.026-0.502-9.037
					c4.905-0.114,9.811-0.229,14.718-0.342C414.878,76.511,415.048,79.577,415.193,82.644z"/>
				<path fill="#FFFFFF" d="M373.47,83.157c-11.405,0.14-22.812,0.281-34.218,0.421c-0.132-2.79-0.287-5.58-0.466-8.368
					c11.4-0.265,22.798-0.529,34.198-0.795C373.17,77.328,373.332,80.243,373.47,83.157z"/>
			</g>
			<g>
				<path opacity="0.5" fill="#B3B3B3" d="M400.894,116.443c1.873,43.652-1.399,87.472-9.818,130.542
					c-0.649,3.329-1.331,6.652-2.043,9.97c-0.396,1.846-0.802,3.689-1.216,5.531c1.698-1.563,3.39-3.138,5.075-4.721
					c0.927,1.967,1.845,3.94,2.751,5.922c1.71-1.588,3.413-3.187,5.109-4.794c0.924,1.983,1.837,3.976,2.741,5.974
					c1.713-1.605,3.421-3.22,5.121-4.845c0.921,2.001,1.83,4.009,2.729,6.024c1.718-1.622,3.43-3.254,5.134-4.896
					c0.917,2.018,1.823,4.044,2.718,6.075c1.721-1.639,3.438-3.288,5.145-4.947c0.914,2.035,1.815,4.078,2.708,6.127
					c1.726-1.655,3.444-3.322,5.156-4.998c0.909,2.053,1.808,4.111,2.695,6.179c1.73-1.674,3.453-3.357,5.17-5.05
					c0.906,2.069,1.801,4.146,2.686,6.23c1.733-1.69,3.461-3.392,5.18-5.102c0.903,2.087,1.794,4.181,2.675,6.282
					c1.738-1.708,3.469-3.424,5.191-5.152c0.898,2.104,1.784,4.214,2.66,6.332c1.741-1.723,3.475-3.459,5.201-5.204
					c0.895,2.121,1.779,4.249,2.652,6.383c1.746-1.74,3.482-3.493,5.214-5.254c0.892,2.139,1.773,4.284,2.641,6.434
					c1.752-1.756,3.493-3.525,5.228-5.304c0.888,2.156,1.765,4.318,2.63,6.486c0.002-0.002,0.002-0.004,0.006-0.006
					c0.464-2.063,0.919-4.127,1.36-6.192c0.793-3.697,1.554-7.398,2.276-11.105c9.397-48.065,13.05-96.967,10.961-145.684
					C464.717,114.603,432.806,115.523,400.894,116.443z"/>
				<path fill="#FFFFFF" d="M398.699,114.559c2.021,43.536-1.09,87.252-9.334,130.234c-0.638,3.321-1.306,6.638-2.003,9.949
					c-0.389,1.842-0.786,3.683-1.193,5.521c1.691-1.563,3.377-3.137,5.056-4.721c0.936,1.962,1.861,3.929,2.775,5.904
					c1.703-1.589,3.399-3.186,5.089-4.794c0.932,1.978,1.854,3.962,2.765,5.955c1.706-1.605,3.409-3.22,5.101-4.845
					c0.93,1.994,1.847,3.996,2.754,6.006c1.712-1.622,3.416-3.254,5.112-4.896c0.926,2.011,1.84,4.03,2.742,6.056
					c1.717-1.639,3.424-3.287,5.126-4.946c0.921,2.029,1.831,4.065,2.731,6.108c1.719-1.656,3.432-3.322,5.136-4.998
					c0.917,2.047,1.825,4.1,2.72,6.16c1.726-1.674,3.44-3.357,5.148-5.049c0.915,2.063,1.819,4.133,2.712,6.21
					c1.728-1.69,3.447-3.39,5.159-5.1c0.91,2.08,1.811,4.167,2.699,6.262c1.73-1.707,3.455-3.424,5.17-5.151
					c0.907,2.098,1.803,4.201,2.687,6.313c1.733-1.725,3.459-3.458,5.18-5.203c0.904,2.115,1.796,4.236,2.678,6.365
					c1.737-1.741,3.47-3.493,5.192-5.253c0.9,2.132,1.79,4.271,2.667,6.416c1.742-1.758,3.478-3.527,5.205-5.305
					c0.896,2.149,1.781,4.305,2.654,6.467c0.003-0.002,0.005-0.004,0.008-0.008c0.454-2.057,0.901-4.118,1.336-6.18
					c0.777-3.689,1.521-7.385,2.232-11.085c9.203-47.981,12.677-96.781,10.422-145.379
					C462.516,112.567,430.608,113.563,398.699,114.559z"/>
				<path fill="#E6E6E6" d="M488.792,133.213c-27.758,0.214-55.517,0.43-83.275,0.645c-0.008-0.696-0.017-1.392-0.026-2.088
					c27.756-0.284,55.514-0.568,83.271-0.853C488.772,131.682,488.784,132.448,488.792,133.213z"/>
				<path fill="#E6E6E6" d="M438.573,147.07c-9.074-0.071-18.148-0.142-27.223-0.214c0.027-2.416,0.04-4.831,0.038-7.247
					c9.073-0.007,18.148-0.014,27.224-0.022C438.616,142.082,438.602,144.576,438.573,147.07z"/>
				<path fill="#E6E6E6" d="M453.812,161.406c-14.262-0.342-28.521-0.685-42.782-1.027c0.087-2.415,0.158-4.83,0.213-7.245
					c14.264,0.219,28.527,0.438,42.791,0.657C453.975,156.331,453.901,158.869,453.812,161.406z"/>
				<path fill="#E6E6E6" d="M447.7,175.393c-12.438-0.5-24.878-1-37.316-1.5c0.146-2.413,0.273-4.825,0.386-7.239
					c12.444,0.393,24.89,0.785,37.334,1.177C447.986,170.352,447.851,172.873,447.7,175.393z"/>
				<path fill="#E6E6E6" d="M456.799,190.064c-15.795-0.892-31.59-1.783-47.385-2.674c0.203-2.409,0.389-4.819,0.56-7.23
					c15.806,0.754,31.612,1.509,47.416,2.263C457.21,184.971,457.013,187.518,456.799,190.064z"/>
				<path fill="#E6E6E6" d="M440.901,203.251c-10.928-0.794-21.854-1.588-32.782-2.382c0.26-2.405,0.505-4.812,0.735-7.219
					c10.937,0.7,21.873,1.399,32.81,2.098C441.426,198.25,441.171,200.752,440.901,203.251z"/>
				<path fill="#E6E6E6" d="M469.422,147.313c4.079,0.033,8.16,0.065,12.24,0.096c0.029-2.619,0.044-5.237,0.041-7.856
					c-4.079,0.003-8.16,0.007-12.239,0.01C469.466,142.146,469.452,144.729,469.422,147.313z"/>
				<path fill="#E6E6E6" d="M469.079,161.773c4.078,0.098,8.157,0.196,12.235,0.293c0.094-2.617,0.17-5.235,0.229-7.854
					c-4.079-0.063-8.158-0.125-12.237-0.188C469.247,156.608,469.172,159.191,469.079,161.773z"/>
				<path fill="#E6E6E6" d="M468.445,176.227c4.056,0.164,8.113,0.326,12.17,0.489c0.156-2.615,0.296-5.231,0.418-7.848
					c-4.059-0.127-8.117-0.255-12.176-0.383C468.736,171.066,468.6,173.646,468.445,176.227z"/>
				<path fill="#E6E6E6" d="M467.501,190.668c4.021,0.227,8.041,0.453,12.062,0.681c0.22-2.613,0.422-5.225,0.607-7.839
					c-4.022-0.192-8.047-0.384-12.069-0.576C467.916,185.513,467.717,188.091,467.501,190.668z"/>
				<path fill="#E6E6E6" d="M466.022,205.077c4.045,0.294,8.091,0.588,12.136,0.882c0.283-2.607,0.549-5.216,0.797-7.826
					c-4.049-0.259-8.098-0.518-12.147-0.776C466.563,199.932,466.302,202.505,466.022,205.077z"/>
				<path fill="#E6E6E6" d="M454.758,229.56c-8.482-0.86-16.965-1.72-25.448-2.581c0.373-2.465,0.73-4.932,1.071-7.4
					c8.494,0.786,16.988,1.573,25.481,2.36C455.51,224.481,455.144,227.021,454.758,229.56z"/>
				<path fill="#E6E6E6" d="M462.74,230.369c4.031,0.409,8.062,0.818,12.092,1.227c0.394-2.596,0.771-5.195,1.13-7.794
					c-4.037-0.374-8.072-0.748-12.107-1.122C463.499,225.244,463.128,227.808,462.74,230.369z"/>
				<path fill="#E6E6E6" d="M484.254,215.192c-27.62-2.274-55.241-4.549-82.861-6.823c0.086-0.691,0.168-1.384,0.252-2.076
					c27.628,2.205,55.257,4.41,82.885,6.615C484.439,213.669,484.348,214.431,484.254,215.192z"/>
			</g>
		</g>
		<g>
			<path fill="#E38A8A" d="M465.232,343.857c-33.513-3.637-65.201-7.125-98.815-9.414c-2.575-0.176-4.526-2.41-4.33-4.982
				c0.817-10.639,1.687-21.229,2.296-31.982c0.142-2.506,2.238-4.459,4.747-4.402c33.556,0.766,65.228,2.211,98.975,3.193
				c2.625,0.076,4.677,2.313,4.515,4.931c-0.798,12.828-1.666,25.492-2.242,38.236C470.256,342.119,467.901,344.148,465.232,343.857
				z"/>
			<path fill="#FFFFFF" d="M382.06,302.146c0.025-0.814,0.732-1.451,1.58-1.417c2.729,0.107,5.447,0.215,8.154,0.322
				c6.157,0.234,11.006,2.691,10.657,9.313c-0.341,6.398-5.468,8.926-11.367,8.6c-0.651-0.037-1.303-0.07-1.955-0.107
				c-0.837-0.045-1.557,0.568-1.609,1.371c-0.135,2.061-0.281,4.127-0.438,6.203c-0.062,0.809-0.794,1.426-1.635,1.373
				c-1.098-0.066-2.197-0.135-3.3-0.201c-0.845-0.051-1.479-0.746-1.416-1.549C381.354,318.066,381.796,310.242,382.06,302.146z
				 M390.984,314.119c3.463,0.18,5.204-1.223,5.348-4.051c0.143-2.832-1.687-3.969-5.118-4.117
				c-0.468-0.021-0.935-0.041-1.403-0.063c-0.839-0.037-1.547,0.592-1.582,1.402c-0.076,1.748-0.161,3.486-0.252,5.221
				c-0.043,0.803,0.602,1.486,1.438,1.529C389.938,314.068,390.461,314.094,390.984,314.119z"/>
			<path fill="#FFFFFF" d="M411.831,301.855c1.771,0.07,3.544,0.143,5.315,0.215c0.656,0.025,1.21,0.484,1.365,1.129
				c2.068,8.488,4.141,16.74,6.361,25.359c0.263,1.01-0.504,1.965-1.522,1.885c-1.146-0.088-2.292-0.176-3.437-0.262
				c-0.687-0.053-1.263-0.572-1.401-1.256c-0.301-1.496-0.601-2.98-0.896-4.457c-0.135-0.678-0.706-1.18-1.387-1.227
				c-2.036-0.133-4.07-0.266-6.104-0.395c-0.682-0.043-1.303,0.379-1.512,1.025c-0.454,1.41-0.913,2.824-1.373,4.244
				c-0.211,0.652-0.839,1.072-1.523,1.023c-1.059-0.072-2.115-0.148-3.175-0.221c-1.015-0.072-1.671-1.098-1.306-2.033
				c3.117-7.986,6.087-15.816,9.105-24.025C410.571,302.238,411.174,301.828,411.831,301.855z M410.514,318.016
				c1.955,0.113,3.911,0.229,5.868,0.344c-0.166-0.859-0.329-1.717-0.492-2.574c-0.607-2.793-1.183-6.086-1.737-9.02
				c-0.057-0.002-0.113-0.004-0.17-0.006c-0.844,2.91-1.738,6.08-2.652,8.771C411.058,316.361,410.785,317.188,410.514,318.016z"/>
			<path fill="#FFFFFF" d="M432.754,320.705c-2.171-5.398-4.264-10.703-6.332-16.063c-0.401-1.037,0.404-2.184,1.505-2.141
				c1.111,0.045,2.224,0.09,3.336,0.135c0.621,0.023,1.154,0.441,1.337,1.049c0.571,1.895,1.148,3.783,1.733,5.67
				c0.635,2.172,1.246,4.166,1.899,6.387c0.057,0.002,0.113,0.008,0.17,0.01c0.93-2.129,1.815-4.051,2.724-6.164
				c0.836-1.832,1.682-3.678,2.538-5.537c0.273-0.59,0.864-0.965,1.49-0.939c1.07,0.043,2.144,0.084,3.216,0.127
				c1.121,0.045,1.776,1.281,1.226,2.309c-2.845,5.301-5.588,10.463-8.259,15.594c-0.104,0.199-0.164,0.42-0.174,0.648
				c-0.119,2.758-0.222,5.525-0.305,8.322c-0.027,0.867-0.73,1.516-1.572,1.445c-1.098-0.09-2.195-0.18-3.29-0.268
				c-0.84-0.07-1.495-0.824-1.466-1.68c0.098-2.771,0.209-5.514,0.336-8.244C432.877,321.139,432.839,320.916,432.754,320.705z"/>
		</g>
		<path fill="#D6D9E6" d="M425.014,539.002c-1.54,0-3.008-0.096-4.362-0.281L50.236,486.637
			c-14.791-2.008-24.97-17.078-11.938-23.664l188.63-78.113c4.821-2.439,11.935-4.014,18.118-4.014c1.357,0,2.651,0.076,3.844,0.221
			l389.443,33.678c14.95,1.838,8.561,20.57-7.896,28.275l-187.855,92.324C437.837,537.602,431.104,539.002,425.014,539.002z"/>
		<path fill="#FFFFFF" d="M435.717,521.787c-4.011,1.904-10.888,2.959-15.359,2.352L42.792,473.018
			c-11.175-1.516-12.229-6.797-2.344-11.797l185.064-87.135c3.953-2,10.793-3.176,15.272-2.627l394.355,42.734
			c11.202,1.377,12.154,6.354,2.136,11.117L435.717,521.787z"/>
		<g>
			<path fill="#5E5F66" d="M598.564,423.564c-1.559,0.695-4.164,1.125-5.79,0.951l-18.031-1.91c-1.627-0.172-1.692-0.881-0.148-1.57
				l4.827-2.162c1.545-0.689,4.144-1.119,5.775-0.947l18.107,1.889c1.633,0.17,1.692,0.879,0.132,1.574L598.564,423.564z"/>
			<path fill="#5E5F66" d="M567.804,420.318c-1.542,0.689-4.131,1.113-5.756,0.941l-18.033-1.914
				c-1.625-0.17-1.708-0.873-0.182-1.559l4.767-2.143c1.526-0.686,4.109-1.107,5.742-0.938l18.107,1.889
				c1.632,0.172,1.707,0.875,0.167,1.564L567.804,420.318z"/>
			<path fill="#5E5F66" d="M537.041,417.07c-1.521,0.684-4.097,1.104-5.722,0.932l-18.031-1.912
				c-1.627-0.174-1.723-0.869-0.217-1.549l4.708-2.125c1.507-0.68,4.074-1.098,5.708-0.928l18.105,1.891
				c1.633,0.17,1.725,0.867,0.203,1.553L537.041,417.07z"/>
			<path fill="#5E5F66" d="M506.279,413.824c-1.503,0.678-4.063,1.092-5.688,0.92l-18.032-1.912
				c-1.627-0.172-1.737-0.865-0.25-1.539l4.649-2.105c1.486-0.674,4.039-1.088,5.673-0.916l18.105,1.889
				c1.634,0.17,1.738,0.865,0.236,1.543L506.279,413.824z"/>
			<path fill="#5E5F66" d="M475.517,410.576c-1.483,0.672-4.027,1.082-5.652,0.91l-18.032-1.91
				c-1.626-0.174-1.754-0.861-0.284-1.529l4.589-2.088c1.47-0.67,4.007-1.076,5.639-0.906l18.106,1.887
				c1.634,0.174,1.755,0.861,0.271,1.535L475.517,410.576z"/>
			<path fill="#5E5F66" d="M444.755,407.328c-1.466,0.668-3.993,1.074-5.618,0.9l-18.032-1.912c-1.625-0.17-1.771-0.855-0.319-1.518
				l4.53-2.07c1.451-0.662,3.973-1.064,5.604-0.893l18.106,1.887c1.633,0.17,1.77,0.857,0.305,1.523L444.755,407.328z"/>
			<path fill="#5E5F66" d="M413.991,404.084c-1.445,0.66-3.958,1.061-5.583,0.889l-18.031-1.914
				c-1.626-0.17-1.785-0.848-0.354-1.506l4.472-2.051c1.431-0.658,3.938-1.055,5.57-0.885l18.107,1.887
				c1.632,0.172,1.784,0.852,0.339,1.512L413.991,404.084z"/>
			<path fill="#5E5F66" d="M383.23,400.836c-1.427,0.654-3.924,1.051-5.55,0.879l-18.032-1.912c-1.626-0.174-1.8-0.846-0.388-1.496
				l4.412-2.033c1.413-0.652,3.903-1.045,5.536-0.875l18.106,1.889c1.633,0.17,1.801,0.846,0.373,1.5L383.23,400.836z"/>
			<path fill="#5E5F66" d="M352.469,397.59c-1.408,0.648-3.891,1.039-5.516,0.865l-18.032-1.91c-1.626-0.172-1.815-0.84-0.422-1.486
				l4.353-2.016c1.394-0.645,3.869-1.033,5.502-0.861l18.106,1.887c1.632,0.17,1.816,0.842,0.408,1.492L352.469,397.59z"/>
			<path fill="#5E5F66" d="M321.706,394.342c-1.389,0.645-3.855,1.029-5.48,0.857l-18.032-1.91
				c-1.626-0.174-1.831-0.838-0.457-1.477l4.295-1.998c1.374-0.639,3.834-1.023,5.466-0.852l18.107,1.887
				c1.633,0.172,1.831,0.836,0.442,1.48L321.706,394.342z"/>
			<path fill="#5E5F66" d="M290.944,391.096c-1.371,0.639-3.821,1.02-5.447,0.846l-18.031-1.912c-1.626-0.17-1.847-0.83-0.491-1.463
				l4.235-1.98c1.355-0.633,3.8-1.014,5.433-0.842l18.106,1.889c1.632,0.17,1.847,0.83,0.477,1.469L290.944,391.096z"/>
			<path fill="#5E5F66" d="M260.183,387.848c-1.352,0.633-3.787,1.008-5.413,0.838l-18.032-1.912
				c-1.625-0.174-1.861-0.828-0.525-1.455l4.177-1.961c1.336-0.629,3.766-1.002,5.397-0.832l18.107,1.889
				c1.632,0.172,1.861,0.826,0.511,1.459L260.183,387.848z"/>
			<path fill="#5E5F66" d="M534.213,429.926c-1.535,0.688-4.107,1.107-5.717,0.93l-14.27-1.568c-1.609-0.178-1.682-0.885-0.16-1.568
				l13.487-6.066c1.521-0.686,4.094-1.104,5.717-0.93l14.378,1.535c1.623,0.174,1.695,0.879,0.159,1.566L534.213,429.926z"/>
			<path fill="#5E5F66" d="M574.428,434.33c-1.56,0.695-4.154,1.119-5.763,0.943l-26.645-2.93c-1.609-0.18-1.667-0.889-0.129-1.576
				l13.64-6.115c1.539-0.689,4.127-1.111,5.748-0.939l26.851,2.867c1.623,0.174,1.674,0.885,0.114,1.58L574.428,434.33z"/>
			<path fill="#5E5F66" d="M226.105,408.971c-1.356,0.635-3.771,1.004-5.365,0.824l-26.372-3.014
				c-1.593-0.184-1.803-0.846-0.467-1.473l11.846-5.564c1.336-0.627,3.744-0.994,5.35-0.816l26.58,2.951
				c1.605,0.178,1.811,0.842,0.453,1.477L226.105,408.971z"/>
			<path fill="#5E5F66" d="M507.074,426.953c-1.519,0.684-4.077,1.098-5.688,0.92l-14.268-1.568
				c-1.61-0.178-1.696-0.877-0.192-1.557l13.338-6.021c1.506-0.68,4.063-1.096,5.688-0.92l14.377,1.535
				c1.623,0.174,1.709,0.873,0.192,1.557L507.074,426.953z"/>
			<path fill="#5E5F66" d="M479.935,423.98c-1.501,0.68-4.045,1.09-5.656,0.912l-14.268-1.57c-1.61-0.176-1.709-0.873-0.222-1.547
				l13.188-5.975c1.487-0.676,4.033-1.084,5.655-0.912l14.379,1.535c1.624,0.174,1.723,0.869,0.222,1.549L479.935,423.98z"/>
			<path fill="#5E5F66" d="M452.795,421.01c-1.483,0.672-4.015,1.078-5.624,0.9l-14.27-1.57c-1.608-0.176-1.723-0.867-0.251-1.537
				l13.038-5.928c1.471-0.67,4.002-1.076,5.625-0.902l14.379,1.533c1.623,0.174,1.736,0.867,0.253,1.539L452.795,421.01z"/>
			<path fill="#5E5F66" d="M425.657,418.039c-1.468,0.666-3.984,1.066-5.597,0.891l-14.267-1.57
				c-1.609-0.176-1.737-0.865-0.283-1.529l12.89-5.881c1.455-0.664,3.972-1.066,5.594-0.893l14.38,1.533
				c1.621,0.174,1.749,0.863,0.282,1.529L425.657,418.039z"/>
			<path fill="#5E5F66" d="M398.518,415.064c-1.45,0.664-3.954,1.061-5.564,0.883l-14.267-1.568c-1.61-0.178-1.752-0.861-0.314-1.52
				l12.74-5.836c1.438-0.66,3.941-1.059,5.563-0.885l14.379,1.535c1.622,0.174,1.764,0.857,0.313,1.52L398.518,415.064z"/>
			<path fill="#5E5F66" d="M371.379,412.092c-1.434,0.658-3.923,1.051-5.533,0.873l-14.269-1.568
				c-1.61-0.178-1.765-0.855-0.344-1.51l12.591-5.791c1.42-0.654,3.91-1.047,5.533-0.875l14.379,1.537
				c1.622,0.172,1.777,0.852,0.344,1.51L371.379,412.092z"/>
			<path fill="#5E5F66" d="M344.24,409.121c-1.417,0.652-3.893,1.041-5.503,0.863l-14.269-1.568
				c-1.609-0.178-1.778-0.852-0.374-1.502l12.44-5.744c1.404-0.648,3.881-1.037,5.503-0.865l14.38,1.535
				c1.621,0.174,1.791,0.85,0.374,1.502L344.24,409.121z"/>
			<path fill="#5E5F66" d="M317.101,406.15c-1.399,0.645-3.861,1.029-5.472,0.854l-14.268-1.57c-1.61-0.178-1.793-0.848-0.406-1.492
				l12.292-5.697c1.388-0.643,3.85-1.029,5.473-0.855l14.378,1.535c1.623,0.172,1.806,0.846,0.406,1.49L317.101,406.15z"/>
			<path fill="#5E5F66" d="M289.963,403.178c-1.384,0.641-3.832,1.021-5.442,0.844l-14.269-1.568
				c-1.609-0.178-1.806-0.844-0.436-1.482l12.143-5.652c1.371-0.639,3.819-1.02,5.442-0.848l14.378,1.537
				c1.623,0.172,1.818,0.84,0.437,1.48L289.963,403.178z"/>
			<path fill="#5E5F66" d="M262.823,400.203c-1.365,0.639-3.801,1.014-5.41,0.838l-14.269-1.57c-1.609-0.176-1.82-0.84-0.466-1.473
				l11.993-5.605c1.353-0.635,3.788-1.012,5.41-0.838l14.379,1.535c1.623,0.174,1.833,0.838,0.467,1.473L262.823,400.203z"/>
			<path fill="#5E5F66" d="M235.685,397.232c-1.349,0.633-3.771,1.004-5.38,0.826l-14.269-1.568
				c-1.61-0.178-1.834-0.836-0.497-1.465l11.845-5.561c1.336-0.627,3.757-1,5.379-0.826l14.38,1.535
				c1.622,0.174,1.846,0.832,0.497,1.463L235.685,397.232z"/>
			<path fill="#5E5F66" d="M548.937,445.705c-1.561,0.695-4.139,1.117-5.732,0.936l-14.125-1.615
				c-1.594-0.182-1.631-0.896-0.084-1.588l13.706-6.135c1.547-0.693,4.127-1.113,5.733-0.936l14.234,1.578
				c1.606,0.18,1.644,0.895,0.085,1.592L548.937,445.705z"/>
			<path fill="#5E5F66" d="M522.073,442.648c-1.544,0.691-4.11,1.107-5.704,0.926l-14.122-1.613
				c-1.594-0.184-1.646-0.895-0.116-1.58l13.56-6.088c1.528-0.688,4.094-1.105,5.701-0.928l14.234,1.582
				c1.606,0.178,1.657,0.889,0.115,1.578L522.073,442.648z"/>
			<path fill="#5E5F66" d="M495.209,439.592c-1.526,0.688-4.078,1.098-5.672,0.916l-14.123-1.613
				c-1.593-0.182-1.659-0.891-0.146-1.57l13.408-6.043c1.513-0.684,4.065-1.096,5.671-0.916l14.234,1.58
				c1.606,0.178,1.673,0.883,0.146,1.57L495.209,439.592z"/>
			<path fill="#5E5F66" d="M468.345,436.535c-1.509,0.682-4.046,1.09-5.64,0.906l-14.123-1.613
				c-1.594-0.182-1.674-0.885-0.178-1.561l13.259-5.998c1.496-0.676,4.035-1.084,5.642-0.906l14.234,1.58
				c1.605,0.178,1.685,0.881,0.177,1.561L468.345,436.535z"/>
			<path fill="#5E5F66" d="M441.482,433.479c-1.493,0.674-4.017,1.08-5.612,0.896l-14.122-1.613
				c-1.594-0.182-1.688-0.879-0.208-1.551l13.111-5.951c1.479-0.674,4.004-1.076,5.61-0.898l14.232,1.58
				c1.606,0.178,1.7,0.877,0.209,1.553L441.482,433.479z"/>
			<path fill="#5E5F66" d="M414.618,430.422c-1.476,0.67-3.986,1.07-5.58,0.889l-14.123-1.615c-1.594-0.182-1.701-0.877-0.238-1.541
				l12.961-5.906c1.463-0.666,3.974-1.066,5.58-0.889l14.232,1.58c1.606,0.18,1.715,0.873,0.24,1.543L414.618,430.422z"/>
			<path fill="#5E5F66" d="M387.754,427.365c-1.458,0.666-3.955,1.061-5.549,0.879l-14.123-1.615
				c-1.594-0.182-1.715-0.871-0.27-1.533l12.813-5.859c1.446-0.66,3.942-1.055,5.549-0.877l14.233,1.578
				c1.606,0.18,1.728,0.869,0.27,1.535L387.754,427.365z"/>
			<path fill="#5E5F66" d="M360.891,424.309c-1.441,0.66-3.925,1.051-5.519,0.869l-14.122-1.615c-1.594-0.182-1.729-0.867-0.3-1.521
				l12.661-5.814c1.43-0.654,3.913-1.047,5.519-0.869l14.234,1.58c1.606,0.178,1.741,0.865,0.3,1.523L360.891,424.309z"/>
			<path fill="#5E5F66" d="M334.027,421.252c-1.425,0.654-3.895,1.041-5.488,0.859l-14.123-1.615
				c-1.594-0.18-1.742-0.863-0.33-1.514l12.513-5.766c1.412-0.652,3.882-1.039,5.487-0.859l14.234,1.578
				c1.606,0.178,1.755,0.859,0.331,1.516L334.027,421.252z"/>
			<path fill="#5E5F66" d="M307.164,418.195c-1.408,0.65-3.864,1.031-5.458,0.85l-14.122-1.613
				c-1.594-0.182-1.757-0.859-0.361-1.504l12.363-5.723c1.396-0.646,3.851-1.029,5.457-0.85l14.234,1.58
				c1.606,0.178,1.769,0.855,0.361,1.506L307.164,418.195z"/>
			<path fill="#5E5F66" d="M280.3,415.139c-1.391,0.645-3.833,1.021-5.426,0.84l-14.123-1.611c-1.594-0.184-1.771-0.857-0.393-1.498
				l12.215-5.676c1.379-0.641,3.82-1.018,5.427-0.84l14.234,1.58c1.605,0.178,1.782,0.85,0.391,1.496L280.3,415.139z"/>
			<path fill="#5E5F66" d="M253.437,412.082c-1.374,0.639-3.803,1.014-5.396,0.83l-14.123-1.611
				c-1.594-0.184-1.783-0.852-0.422-1.488l12.065-5.631c1.361-0.635,3.789-1.008,5.396-0.83l14.234,1.58
				c1.605,0.18,1.796,0.848,0.422,1.486L253.437,412.082z"/>
			<path fill="#5E5F66" d="M217.307,420.912c-1.366,0.637-3.773,1.004-5.351,0.816l-39.463-4.682
				c-1.577-0.188-1.774-0.854-0.438-1.48l11.846-5.563c1.337-0.629,3.731-0.992,5.321-0.807l39.776,4.584
				c1.589,0.184,1.772,0.854,0.408,1.49L217.307,420.912z"/>
			<path fill="#5E5F66" d="M208.523,432.975c-1.373,0.637-3.775,1.004-5.336,0.813l-52.57-6.473
				c-1.561-0.191-1.745-0.863-0.408-1.49l11.845-5.563c1.338-0.627,3.719-0.986,5.292-0.799l52.991,6.342
				c1.573,0.189,1.737,0.865,0.363,1.506L208.523,432.975z"/>
			<path fill="#5E5F66" d="M523.458,457.082c-1.561,0.697-4.126,1.113-5.702,0.928l-27.264-3.234
				c-1.578-0.188-1.609-0.904-0.071-1.596l13.632-6.111c1.539-0.689,4.098-1.104,5.688-0.92l27.48,3.168
				c1.589,0.182,1.614,0.902,0.056,1.598L523.458,457.082z"/>
			<path fill="#5E5F66" d="M483.57,452.371c-1.535,0.688-4.081,1.098-5.657,0.912l-13.979-1.658
				c-1.577-0.188-1.622-0.902-0.101-1.586l13.482-6.066c1.522-0.684,4.068-1.094,5.656-0.912l14.09,1.625
				c1.589,0.184,1.636,0.896,0.103,1.586L483.57,452.371z"/>
			<path fill="#5E5F66" d="M456.981,449.229c-1.518,0.684-4.05,1.09-5.628,0.902l-13.978-1.658
				c-1.576-0.188-1.636-0.896-0.132-1.574l13.334-6.021c1.504-0.68,4.037-1.084,5.626-0.9l14.09,1.623
				c1.589,0.184,1.648,0.893,0.133,1.576L456.981,449.229z"/>
			<path fill="#5E5F66" d="M430.393,446.088c-1.501,0.678-4.018,1.08-5.597,0.893l-13.978-1.658
				c-1.577-0.188-1.65-0.893-0.163-1.566l13.186-5.975c1.487-0.674,4.006-1.074,5.596-0.893l14.089,1.625
				c1.589,0.184,1.664,0.889,0.162,1.566L430.393,446.088z"/>
			<path fill="#5E5F66" d="M403.804,442.945c-1.483,0.674-3.987,1.07-5.565,0.885l-13.978-1.66
				c-1.577-0.188-1.664-0.887-0.193-1.555l13.035-5.928c1.471-0.668,3.976-1.066,5.565-0.883l14.09,1.623
				c1.588,0.184,1.677,0.885,0.193,1.557L403.804,442.945z"/>
			<path fill="#5E5F66" d="M377.216,439.805c-1.467,0.668-3.957,1.061-5.534,0.875l-13.979-1.658
				c-1.576-0.188-1.677-0.885-0.223-1.549l12.886-5.883c1.454-0.662,3.945-1.057,5.535-0.873l14.089,1.625
				c1.589,0.184,1.689,0.879,0.224,1.547L377.216,439.805z"/>
			<path fill="#5E5F66" d="M350.627,436.664c-1.449,0.662-3.926,1.051-5.504,0.863l-13.978-1.658
				c-1.577-0.186-1.692-0.879-0.255-1.537l12.736-5.836c1.438-0.658,3.914-1.047,5.505-0.865l14.089,1.625
				c1.59,0.184,1.704,0.875,0.254,1.537L350.627,436.664z"/>
			<path fill="#5E5F66" d="M324.039,433.521c-1.433,0.658-3.896,1.043-5.473,0.855l-13.979-1.658
				c-1.577-0.188-1.706-0.875-0.285-1.527l12.587-5.791c1.421-0.652,3.884-1.039,5.474-0.854l14.089,1.623
				c1.591,0.184,1.719,0.871,0.285,1.529L324.039,433.521z"/>
			<path fill="#5E5F66" d="M297.451,430.381c-1.416,0.652-3.865,1.031-5.442,0.846l-13.979-1.658
				c-1.578-0.188-1.719-0.871-0.316-1.52l12.438-5.744c1.404-0.648,3.854-1.029,5.442-0.846l14.089,1.623
				c1.591,0.186,1.732,0.867,0.316,1.521L297.451,430.381z"/>
			<path fill="#5E5F66" d="M270.863,427.24c-1.399,0.646-3.835,1.023-5.413,0.836l-13.978-1.66
				c-1.577-0.186-1.734-0.865-0.348-1.508l12.291-5.697c1.386-0.645,3.821-1.02,5.411-0.838l14.089,1.625
				c1.59,0.182,1.745,0.861,0.346,1.508L270.863,427.24z"/>
			<path fill="#5E5F66" d="M244.274,424.098c-1.382,0.643-3.805,1.016-5.382,0.828l-13.979-1.658
				c-1.576-0.188-1.747-0.863-0.377-1.502l12.14-5.652c1.371-0.637,3.792-1.01,5.383-0.826l14.089,1.625
				c1.589,0.184,1.76,0.859,0.376,1.5L244.274,424.098z"/>
			<path fill="#5E5F66" d="M497.975,468.461c-1.561,0.695-4.113,1.109-5.675,0.916l-40.299-4.961
				c-1.561-0.193-1.586-0.912-0.057-1.598l13.556-6.09c1.531-0.688,4.07-1.094,5.644-0.908l40.622,4.863
				c1.574,0.188,1.585,0.912,0.025,1.607L497.975,468.461z"/>
			<path fill="#5E5F66" d="M445.164,461.984c-1.526,0.688-4.052,1.09-5.612,0.9l-13.833-1.705c-1.563-0.191-1.601-0.906-0.088-1.59
				l13.408-6.041c1.514-0.682,4.038-1.086,5.611-0.896l13.943,1.668c1.575,0.188,1.614,0.902,0.088,1.59L445.164,461.984z"/>
			<path fill="#5E5F66" d="M418.85,458.76c-1.509,0.682-4.02,1.082-5.581,0.887l-13.833-1.701c-1.561-0.191-1.614-0.902-0.117-1.58
				l13.258-5.996c1.496-0.678,4.009-1.076,5.581-0.889l13.944,1.668c1.573,0.189,1.626,0.9,0.117,1.58L418.85,458.76z"/>
			<path fill="#5E5F66" d="M392.537,455.533c-1.492,0.676-3.989,1.07-5.551,0.881l-13.833-1.705
				c-1.561-0.191-1.628-0.898-0.149-1.57l13.11-5.949c1.479-0.672,3.977-1.068,5.55-0.881l13.944,1.67
				c1.573,0.189,1.641,0.895,0.149,1.57L392.537,455.533z"/>
			<path fill="#5E5F66" d="M366.224,452.309c-1.475,0.67-3.959,1.061-5.519,0.867l-13.834-1.701
				c-1.561-0.191-1.643-0.895-0.179-1.561l12.96-5.906c1.462-0.666,3.946-1.057,5.52-0.867l13.943,1.666
				c1.573,0.189,1.654,0.893,0.18,1.563L366.224,452.309z"/>
			<path fill="#5E5F66" d="M339.911,449.082c-1.458,0.664-3.928,1.053-5.489,0.861l-13.833-1.705
				c-1.562-0.191-1.656-0.891-0.21-1.551l12.811-5.859c1.445-0.662,3.915-1.047,5.489-0.859l13.944,1.668
				c1.573,0.189,1.667,0.887,0.21,1.551L339.911,449.082z"/>
			<path fill="#5E5F66" d="M313.598,445.857c-1.44,0.658-3.897,1.041-5.458,0.848l-13.834-1.701
				c-1.561-0.193-1.669-0.887-0.239-1.543l12.661-5.814c1.428-0.654,3.885-1.037,5.458-0.848l13.944,1.668
				c1.574,0.188,1.682,0.883,0.24,1.543L313.598,445.857z"/>
			<path fill="#5E5F66" d="M287.285,442.631c-1.424,0.654-3.867,1.033-5.428,0.84l-13.833-1.703
				c-1.562-0.191-1.684-0.883-0.271-1.533l12.512-5.766c1.411-0.652,3.854-1.029,5.428-0.842l13.944,1.668
				c1.574,0.189,1.696,0.879,0.271,1.533L287.285,442.631z"/>
			<path fill="#5E5F66" d="M260.973,439.404c-1.408,0.648-3.837,1.023-5.397,0.83l-13.834-1.703
				c-1.561-0.191-1.696-0.875-0.302-1.521l12.363-5.723c1.396-0.645,3.824-1.02,5.397-0.83l13.943,1.67
				c1.574,0.186,1.71,0.873,0.303,1.521L260.973,439.404z"/>
			<path fill="#5E5F66" d="M234.659,436.178c-1.391,0.645-3.806,1.014-5.366,0.822l-13.834-1.703
				c-1.561-0.191-1.71-0.873-0.332-1.514l12.214-5.676c1.378-0.641,3.793-1.01,5.366-0.822l13.944,1.67
				c1.573,0.188,1.723,0.869,0.332,1.514L234.659,436.178z"/>
			<path fill="#5E5F66" d="M472.488,479.838c-1.559,0.695-4.098,1.105-5.644,0.906l-26.742-3.414
				c-1.545-0.197-1.549-0.922-0.012-1.613l13.633-6.109c1.538-0.691,4.071-1.096,5.629-0.904l26.958,3.35
				c1.557,0.193,1.556,0.92-0.003,1.615L472.488,479.838z"/>
			<path fill="#5E5F66" d="M433.906,474.932c-1.535,0.688-4.054,1.092-5.598,0.893l-13.689-1.746
				c-1.545-0.199-1.563-0.92-0.041-1.605l3.977-1.787c1.521-0.686,4.035-1.084,5.586-0.889l13.743,1.73
				c1.552,0.193,1.565,0.918,0.03,1.605L433.906,474.932z"/>
			<path fill="#5E5F66" d="M407.869,471.621c-1.519,0.684-4.024,1.08-5.568,0.885l-13.688-1.748
				c-1.544-0.197-1.577-0.914-0.072-1.594l13.337-6.021c1.506-0.68,4.01-1.076,5.567-0.885l13.8,1.715
				c1.557,0.193,1.589,0.91,0.071,1.594L407.869,471.621z"/>
			<path fill="#5E5F66" d="M381.83,468.311c-1.5,0.678-3.992,1.072-5.537,0.875l-13.688-1.748c-1.544-0.197-1.59-0.91-0.103-1.584
				l3.889-1.762c1.487-0.676,3.975-1.066,5.525-0.871l13.744,1.73c1.55,0.195,1.592,0.91,0.091,1.588L381.83,468.311z"/>
			<path fill="#5E5F66" d="M225.604,448.445c-1.399,0.648-3.809,1.018-5.354,0.818l-13.688-1.748
				c-1.546-0.195-1.674-0.883-0.287-1.527l12.292-5.699c1.387-0.643,3.796-1.01,5.353-0.818l13.799,1.715
				c1.559,0.191,1.687,0.881,0.287,1.527L225.604,448.445z"/>
			<path fill="#5E5F66" d="M199.566,445.137c-1.383,0.641-3.777,1.004-5.322,0.809l-13.688-1.748
				c-1.545-0.197-1.688-0.881-0.316-1.518l12.143-5.654c1.37-0.639,3.765-1.004,5.321-0.809l13.8,1.713
				c1.558,0.193,1.699,0.877,0.316,1.52L199.566,445.137z"/>
			<path fill="#5E5F66" d="M173.529,441.824c-1.366,0.637-3.747,0.998-5.293,0.799l-13.688-1.746
				c-1.545-0.197-1.702-0.875-0.349-1.51l11.994-5.607c1.354-0.633,3.734-0.992,5.292-0.799l13.799,1.713
				c1.557,0.193,1.714,0.873,0.348,1.51L173.529,441.824z"/>
			<path fill="#5E5F66" d="M147.491,438.514c-1.35,0.633-3.717,0.988-5.262,0.791l-13.688-1.748c-1.544-0.197-1.715-0.871-0.379-1.5
				l11.845-5.561c1.337-0.627,3.704-0.984,5.262-0.789l13.799,1.713c1.558,0.193,1.728,0.867,0.378,1.498L147.491,438.514z"/>
			<path fill="#5E5F66" d="M355.793,465c-1.484,0.672-3.962,1.061-5.506,0.865l-117.718-15.027
				c-1.545-0.199-1.659-0.889-0.256-1.537l12.441-5.746c1.404-0.648,3.827-1.02,5.385-0.828l118.669,14.736
				c1.557,0.193,1.617,0.9,0.133,1.574L355.793,465z"/>
		</g>
		<path fill="#D6D9E6" d="M314.661,495.828c-1.484,0.674-3.962,1.063-5.507,0.865L186.79,480.438
			c-1.545-0.197-1.659-0.889-0.256-1.537l41.23-18.82c1.403-0.648,3.826-1.02,5.384-0.826l118.67,14.734
			c1.557,0.193,1.617,0.902,0.133,1.574L314.661,495.828z"/>
	</g>
</g>
</svg>
