<?xml version="1.0" encoding="utf-8"?>
<!-- Generator: Adobe Illustrator 15.0.0, SVG Export Plug-In . SVG Version: 6.00 Build 0)  -->
<!DOCTYPE svg PUBLIC "-//W3C//DTD SVG 1.1//EN" "http://www.w3.org/Graphics/SVG/1.1/DTD/svg11.dtd">
<svg version="1.1" id="_x2018_ëîé_x5F_1" xmlns="http://www.w3.org/2000/svg" xmlns:xlink="http://www.w3.org/1999/xlink"
	 x="0px" y="0px" width="800px" height="500px" viewBox="0 0 800 500" enable-background="new 0 0 800 500" xml:space="preserve">
<g id="XMLID_179_">
	<g id="_x0A_line">
		<g id="XMLID_255_">
			<path id="XMLID_182_" fill="#78A1DE" d="M132.934,278.459l-0.71-1.065c2.303-1.536,4.811-3.081,7.668-4.723l0.638,1.111
				C137.697,275.409,135.213,276.939,132.934,278.459z M314.657,270.706l-1.281-0.008c0.016-2.986,0.035-5.976,0.056-8.968
				l1.281,0.011C314.692,264.73,314.673,267.719,314.657,270.706z M148.366,269.464l-0.605-1.128l1.945-1.042
				c1.98-1.059,3.963-2.119,5.942-3.208l0.617,1.124c-1.982,1.089-3.97,2.152-5.956,3.213L148.366,269.464z M164.055,260.713
				l-0.669-1.091c2.709-1.662,5.135-3.278,7.416-4.942l0.754,1.036C169.248,257.399,166.794,259.034,164.055,260.713z
				 M314.781,252.773l-1.281-0.01l0.076-8.967l1.281,0.011L314.781,252.773z M178.868,250.66l-0.643-1.108
				c2.542-1.474,5.218-2.832,7.965-4.208l0.574,1.146C184.035,247.856,181.378,249.203,178.868,250.66z M194.762,242.371
				l-0.618-1.122c3.071-1.693,5.436-3.217,7.441-4.798l0.793,1.005C200.316,239.082,197.896,240.644,194.762,242.371z
				 M314.939,234.842l-1.281-0.013l0.086-8.966l1.281,0.013L314.939,234.842z M208.563,230.732l-1.092-0.669
				c1.521-2.486,2.388-5.152,2.648-8.15l1.276,0.111C211.118,225.224,210.191,228.073,208.563,230.732z M315.113,216.909
				l-1.281-0.013l0.087-8.966l1.281,0.012L315.113,216.909z M212.062,213.065l-1.278-0.075c0.169-2.881,0.299-5.805,0.397-8.94
				l1.28,0.04C212.362,207.236,212.232,210.172,212.062,213.065z M315.285,198.977l-1.281-0.011l0.078-8.966l1.281,0.011
				L315.285,198.977z M212.641,195.111l-1.281-0.013c0.02-1.911,0.027-3.818,0.027-5.725c0-1.077-0.002-2.155-0.007-3.231
				l1.281-0.006c0.005,1.079,0.008,2.158,0.008,3.237C212.669,191.284,212.661,193.196,212.641,195.111z M315.434,181.043
				l-1.281-0.009l0.059-8.966l1.281,0.007L315.434,181.043z M211.301,177.18l-0.116-8.964l1.281-0.016l0.117,8.966L211.301,177.18z
				 M315.541,163.108l-1.281-0.005c0.013-2.99,0.023-5.978,0.032-8.966l1.281,0.004
				C315.565,157.129,315.554,160.118,315.541,163.108z M211.094,159.246c-0.011-1.663-0.017-3.328-0.017-4.995
				c0-1.325,0.003-2.651,0.012-3.979l1.281,0.009c-0.009,1.325-0.013,2.648-0.013,3.971c0,1.665,0.006,3.327,0.017,4.986
				L211.094,159.246z M315.587,145.174l-1.281-0.001l0.001-2.155c0-2.271-0.001-4.54-0.006-6.808l1.281-0.002
				c0.004,2.27,0.006,4.54,0.006,6.811L315.587,145.174z M212.512,141.328l-1.281-0.034c0.062-2.328,0.143-4.665,0.249-7.009
				c0.099-0.717,0.206-1.372,0.325-2.025l1.26,0.229c-0.116,0.639-0.22,1.277-0.311,1.916
				C212.654,136.679,212.572,139.006,212.512,141.328z M314.273,127.244c-0.014-2.99-0.031-5.978-0.053-8.964l1.281-0.01
				c0.022,2.987,0.04,5.977,0.053,8.967L314.273,127.244z M215.414,123.966l-1.199-0.451c1.087-2.899,2.431-5.643,3.992-8.153
				l1.088,0.677C217.777,118.478,216.472,121.145,215.414,123.966z M314.139,109.317c-0.032-2.991-0.069-5.979-0.111-8.963
				l1.281-0.019c0.042,2.987,0.079,5.976,0.111,8.968L314.139,109.317z M224.692,109.205l-0.768-1.024
				c2.461-1.846,4.896-3.635,7.236-5.319l0.748,1.04C229.575,105.581,227.147,107.365,224.692,109.205z M239.233,98.752
				l-0.725-1.057c2.518-1.726,5.032-3.403,7.473-4.986l0.697,1.075C244.246,95.36,241.741,97.031,239.233,98.752z M313.884,91.392
				c-0.049-2.731-0.104-5.46-0.163-8.186c-0.026-0.182-0.063-0.429-0.106-0.672l1.262-0.22c0.045,0.264,0.086,0.53,0.12,0.799
				c0.064,2.793,0.118,5.523,0.167,8.256L313.884,91.392z M254.257,89.025l-0.666-1.094c2.596-1.576,5.205-3.104,7.755-4.542
				l0.629,1.116C259.438,85.936,256.84,87.457,254.257,89.025z M269.841,80.251l-0.589-1.137c2.672-1.384,5.384-2.724,8.059-3.982
				l0.545,1.16C275.196,77.542,272.5,78.875,269.841,80.251z M309.871,74.907c-1.913-2.143-4.372-3.79-7.109-4.761l0.428-1.207
				c2.94,1.042,5.581,2.811,7.638,5.115L309.871,74.907z M286.019,72.649l-0.498-1.18c1.902-0.804,3.833-1.586,5.738-2.327
				c0.868-0.373,1.801-0.67,2.753-0.875l0.27,1.252c-0.871,0.188-1.725,0.459-2.538,0.808
				C289.83,71.072,287.911,71.85,286.019,72.649z"/>
		</g>
		<g id="XMLID_249_">
			<polygon id="XMLID_181_" fill="#78A1DE" points="313.375,286.331 313.375,278.003 314.657,278.003 314.657,284.146 
				315.213,283.836 315.839,284.954 			"/>
		</g>
		<g id="XMLID_244_">
			<g id="XMLID_257_">
				<path fill="#78A1DE" d="M356.946,465.895c-1.507,0-3.032-0.079-4.53-0.235l0.136-1.305c2.983,0.309,6.032,0.303,9.031-0.025
					l0.142,1.305C360.14,465.807,358.532,465.895,356.946,465.895z M343.312,463.728c-2.952-0.963-5.809-2.246-8.494-3.812
					l0.662-1.132c2.603,1.518,5.376,2.762,8.24,3.696L343.312,463.728z M370.818,463.649l-0.414-1.246
					c2.721-0.904,5.364-2.093,7.855-3.531l0.37-0.214l0.656,1.138l-0.369,0.213C376.348,461.49,373.623,462.716,370.818,463.649z
					 M326.896,455.259l-7.919-4.655l0.665-1.131l7.92,4.655L326.896,455.259z M387.241,455.201l-0.656-1.136l7.956-4.593
					l0.656,1.136L387.241,455.201z M403.152,446.015l-0.656-1.136l7.956-4.593l0.656,1.136L403.152,446.015z M311.057,445.947
					l-7.92-4.655l0.666-1.13l7.92,4.656L311.057,445.947z M419.065,436.828l-0.656-1.136l7.955-4.593l0.655,1.136L419.065,436.828z
					 M295.217,436.637l-7.919-4.655l0.665-1.131l7.92,4.655L295.217,436.637z M434.977,427.641l-0.656-1.135l7.957-4.593
					l0.655,1.135L434.977,427.641z M279.377,427.324l-7.92-4.654l0.666-1.131l7.92,4.655L279.377,427.324z M590.405,421.985
					l-8.017-4.485l0.642-1.146l8.016,4.486L590.405,421.985z M450.889,418.454l-0.657-1.135l7.957-4.595l0.655,1.137
					L450.889,418.454z M263.539,418.014l-7.92-4.654l0.665-1.131l7.92,4.654L263.539,418.014z M574.373,413.014l-8.019-4.485
					l0.641-1.146l8.019,4.485L574.373,413.014z M466.801,409.268l-0.656-1.136l7.957-4.594l0.656,1.136L466.801,409.268z
					 M248.063,407.847c-2.051-2.479-3.256-5.512-3.485-8.772l1.31-0.093c0.209,2.987,1.311,5.763,3.187,8.027L248.063,407.847z
					 M558.338,404.043l-8.016-4.487l0.64-1.146l8.018,4.486L558.338,404.043z M482.712,400.081l-0.656-1.136l7.957-4.594
					l0.656,1.136L482.712,400.081z M542.305,395.07l-2.013-1.126c-1.968-1.101-4.031-2.071-6.137-2.886l0.474-1.227
					c2.163,0.839,4.285,1.837,6.305,2.967l2.012,1.125L542.305,395.07z M498.759,391.348l-0.495-1.216
					c2.874-1.167,5.873-2.064,8.907-2.667l0.257,1.287C504.472,389.338,501.556,390.212,498.759,391.348z M247.901,390.575
					l-1.123-0.679c1.35-2.226,3.206-4.032,5.519-5.365l1.504-0.869l0.656,1.136l-1.504,0.869
					C250.835,386.891,249.134,388.542,247.901,390.575z M525.444,388.604c-2.835-0.519-5.737-0.779-8.623-0.779l-0.393,0.002
					l-0.014-1.313l0.4-0.002c2.972,0,5.952,0.269,8.863,0.799L525.444,388.604z M262.414,380.204l-0.656-1.136l7.956-4.593
					l0.657,1.136L262.414,380.204z M278.326,371.018l-0.656-1.136l7.957-4.595l0.656,1.136L278.326,371.018z M294.238,361.829
					l-0.656-1.135l7.956-4.594l0.656,1.135L294.238,361.829z M310.149,352.643l-0.656-1.135l7.956-4.596l0.656,1.136
					L310.149,352.643z M326.061,343.454l-0.656-1.136l7.956-4.593l0.657,1.136L326.061,343.454z M341.972,334.268l-0.656-1.136
					l7.956-4.593l0.656,1.136L341.972,334.268z M357.884,325.08l-0.656-1.136l7.956-4.594l0.656,1.136L357.884,325.08z
					 M373.796,315.894l-0.656-1.136l7.956-4.594l0.656,1.136L373.796,315.894z M389.707,306.706l-0.656-1.135l7.956-4.595
					l0.656,1.135L389.707,306.706z M405.62,297.518l-0.657-1.135l7.956-4.594l0.655,1.136L405.62,297.518z M421.531,288.331
					l-0.657-1.136l7.956-4.593l0.656,1.136L421.531,288.331z M437.442,279.144l-0.656-1.136l7.955-4.594l0.657,1.136
					L437.442,279.144z M333.393,275.15l-0.641-1.146l8.017-4.486l0.641,1.146L333.393,275.15z M453.354,269.957l-0.655-1.136
					l7.956-4.594l0.656,1.136L453.354,269.957z M349.427,266.179l-0.641-1.146l8.018-4.485l0.641,1.146L349.427,266.179z
					 M469.266,260.771l-0.656-1.136l7.956-4.595l0.656,1.135L469.266,260.771z M365.462,257.208l-0.641-1.146l8.017-4.484
					l0.641,1.145L365.462,257.208z M485.177,251.582l-0.655-1.136l7.955-4.593l0.657,1.136L485.177,251.582z M381.496,248.238
					l-0.641-1.146l8.017-4.486l0.641,1.146L381.496,248.238z M501.088,242.396l-0.655-1.136l7.955-4.594l0.657,1.136
					L501.088,242.396z M397.531,239.267l-0.641-1.146l8.016-4.486l0.642,1.146L397.531,239.267z M517,233.208l-0.656-1.136
					l7.957-4.593l0.655,1.136L517,233.208z M413.565,230.295l-0.641-1.146l8.017-4.486l0.641,1.146L413.565,230.295z
					 M532.913,224.021l-0.656-1.137l7.955-4.593l0.655,1.137L532.913,224.021z M429.601,221.324l-0.642-1.146l8.017-4.485
					l0.641,1.146L429.601,221.324z M548.824,214.833l-0.656-1.137l7.955-4.593l0.656,1.136L548.824,214.833z M445.635,212.353
					l-0.641-1.146l8.017-4.485l0.641,1.146L445.635,212.353z M564.736,205.646l-0.657-1.137l7.956-4.593l0.655,1.137
					L564.736,205.646z M461.67,203.381l-0.642-1.146l8.017-4.486l0.641,1.146L461.67,203.381z M580.647,196.459l-0.657-1.137
					l4.261-2.46c1.211-0.699,2.353-1.5,3.395-2.378l0.846,1.003c-1.1,0.929-2.305,1.774-3.583,2.513L580.647,196.459z
					 M477.702,194.41l-0.641-1.146l8.019-4.486l0.641,1.146L477.702,194.41z M493.737,185.439l-0.642-1.146l8.019-4.485l0.641,1.146
					L493.737,185.439z M594.324,184.136l-1.168-0.594c1.35-2.658,2.155-5.533,2.396-8.543l1.307,0.104
					C596.606,178.285,595.754,181.324,594.324,184.136z M509.771,176.468l-0.641-1.146l8.018-4.485l0.642,1.146L509.771,176.468z
					 M525.806,167.497l-0.641-1.146l8.019-4.486l0.641,1.146L525.806,167.497z M594.546,166.18c-0.913-2.873-2.36-5.481-4.3-7.753
					l0.997-0.852c2.056,2.406,3.587,5.167,4.553,8.207L594.546,166.18z M541.841,158.525l-0.641-1.146l8.017-4.485l0.643,1.146
					L541.841,158.525z M583.262,152.894l-4.234-2.445c-1.206-0.696-2.481-1.284-3.789-1.747l0.439-1.236
					c1.382,0.489,2.73,1.11,4.006,1.847l4.234,2.444L583.262,152.894z M557.859,149.617l-0.565-1.184
					c2.865-1.367,5.926-2.144,9.097-2.311l0.069,1.311C563.461,147.591,560.567,148.326,557.859,149.617z"/>
			</g>
		</g>
		<g id="XMLID_242_">
			
				<rect id="XMLID_180_" x="598.079" y="426.911" transform="matrix(0.8727 0.4882 -0.4882 0.8727 285.3394 -239.3503)" fill="#78A1DE" width="7.237" height="1.281"/>
		</g>
	</g>
	<g id="Laptop_1_">
		<path id="XMLID_232_" opacity="0.2" fill="#ABAAAF" d="M626.788,305.799v-0.154l-0.009,0.016
			c-0.053-2.034-1.089-4.046-3.119-5.188l-147.768-83.178c-1.891-1.064-4.201-1.051-6.078,0.032L232.401,354.351
			c-1.947,1.124-2.956,3.051-3.05,5.015l-0.019-0.012v6.406l0.046,0.023c0.116,1.939,1.1,3.835,3.022,4.944l144.778,83.613
			c1.891,1.092,4.22,1.098,6.115,0.013l240.403-137.458c2.02-1.154,3.031-3.17,3.072-5.2l0.018-0.013v-0.126
			c0-0.006,0-0.013,0-0.019L626.788,305.799L626.788,305.799z"/>
		<g id="Laptop">
			<g id="XMLID_171_">
				<path id="XMLID_166_" fill="#B8B8C4" d="M469.646,12.903c-0.008-2.034-1.097-3.911-2.858-4.925L460.401,4.3
					c-2.118-1.22-4.726-1.219-6.845,0.001L228.083,134.273c-1.921,1.111-3.127,3.183-3.127,5.405v200.083
					c0,4.802,5.217,7.815,9.379,5.405l232.87-134.393c1.94-1.111,3.126-3.202,3.126-5.443L469.646,12.903z"/>
				<path id="XMLID_165_" fill="#4A4C62" d="M469.647,13.544c-0.016-4.521-4.953-7.338-8.903-5.081L240.19,134.518
					c-1.84,1.051-2.973,2.996-2.973,5.101v188.463c0,4.532,4.948,7.365,8.907,5.1L467.362,206.58c1.844-1.055,2.978-3.009,2.97-5.12
					L469.647,13.544z"/>
				<linearGradient id="XMLID_228_" gradientUnits="userSpaceOnUse" x1="361.4063" y1="194.7031" x2="311.9239" y2="-0.8622">
					<stop  offset="0" style="stop-color:#E3EFF7"/>
					<stop  offset="1" style="stop-color:#CCE6EF"/>
				</linearGradient>
				<polygon id="XMLID_164_" fill="url(#XMLID_228_)" points="255.579,147.645 255.569,318.912 457.297,204.658 457.297,31.183 				
					"/>
			</g>
			<g id="XMLID_178_">
				<g id="XMLID_167_">
					<path id="XMLID_170_" fill="#ABAAAF" d="M620.372,299.657c-0.476-0.616-1.038-1.183-1.785-1.603l-145.245-81.756
						c-1.857-1.045-4.128-1.033-5.975,0.032L234.009,351.014c-0.36,0.209-0.65,0.473-0.946,0.731l-2.07-1.465v6.297l0.046,0.024
						c0.113,1.906,1.08,3.769,2.97,4.859l142.306,82.185c1.859,1.073,4.147,1.079,6.011,0.013l236.298-135.111
						c1.985-1.135,2.979-3.114,3.021-5.109l0.017-0.013v-0.124c0-0.007,0-0.013,0-0.019l0.001-5.793L620.372,299.657z"/>
					<path id="XMLID_169_" fill="#F4F5F7" d="M618.587,292.405l-145.245-81.757c-1.857-1.045-4.128-1.034-5.975,0.032
						L234.009,345.364c-4.021,2.32-4.022,8.125-0.001,10.447l142.306,82.185c1.859,1.073,4.147,1.078,6.011,0.014l236.298-135.112
						C622.688,300.572,622.668,294.702,618.587,292.405z"/>
					<path id="XMLID_168_" fill="#525252" d="M243.172,362.805l-3.848-2.221c-0.298-0.171-0.669,0.043-0.669,0.387v1.703
						c0,0.159,0.085,0.307,0.224,0.387l3.847,2.222c0.298,0.172,0.67-0.042,0.67-0.387v-1.704
						C243.396,363.032,243.311,362.885,243.172,362.805z"/>
				</g>
				<g id="XMLID_160_">
					<path id="XMLID_162_" fill="#BABABA" d="M530.018,342.779l-38.877-22.727c-0.779-0.457-1.742-0.459-2.524-0.008l-58.522,33.793
						c-1.677,0.969-1.674,3.388,0.003,4.352l38.815,22.331c0.772,0.445,1.723,0.447,2.496,0.005l58.585-33.396
						C531.674,346.171,531.686,343.755,530.018,342.779z"/>
					<path id="XMLID_161_" fill="#CFCCCE" d="M530.018,343.407l-38.877-22.728c-0.779-0.456-1.742-0.458-2.524-0.007l-58.522,33.793
						c-1.677,0.967-1.674,3.388,0.003,4.352l38.815,22.331c0.772,0.444,1.723,0.447,2.496,0.005l58.585-33.396
						C531.674,346.799,531.686,344.383,530.018,343.407z"/>
				</g>
				<g id="XMLID_6_">
					<g id="XMLID_157_">
						<path id="XMLID_159_" fill="#505050" d="M362.613,383.288l-11.998-6.523c-0.265-0.145-0.586-0.138-0.846,0.018l-11.517,6.902
							c-0.558,0.334-0.551,1.146,0.013,1.47l11.276,6.49c0.261,0.15,0.581,0.151,0.843,0.006l12.239-6.869
							C363.208,384.452,363.203,383.609,362.613,383.288z"/>
						<path id="XMLID_158_" fill="#626365" d="M362.538,382.883l-11.998-6.525c-0.265-0.144-0.586-0.137-0.845,0.018l-11.517,6.902
							c-0.558,0.336-0.551,1.146,0.013,1.472l11.276,6.489c0.261,0.15,0.581,0.152,0.843,0.005l12.239-6.868
							C363.132,384.046,363.127,383.203,362.538,382.883z"/>
					</g>
					<g id="XMLID_154_">
						<path id="XMLID_156_" fill="#505050" d="M379.287,373.809l-11.998-6.523c-0.265-0.146-0.587-0.138-0.846,0.018l-11.517,6.902
							c-0.558,0.334-0.551,1.146,0.013,1.47l11.277,6.491c0.261,0.149,0.581,0.151,0.842,0.005l12.239-6.87
							C379.881,374.973,379.875,374.129,379.287,373.809z"/>
						<path id="XMLID_155_" fill="#626365" d="M379.211,373.403l-11.998-6.524c-0.265-0.145-0.587-0.138-0.846,0.018l-11.517,6.902
							c-0.558,0.335-0.551,1.146,0.013,1.471l11.276,6.489c0.26,0.15,0.581,0.153,0.842,0.006l12.239-6.869
							C379.806,374.566,379.8,373.724,379.211,373.403z"/>
					</g>
					<g id="XMLID_151_">
						<path id="XMLID_153_" fill="#505050" d="M372.798,358.689l-11.998-6.525c-0.265-0.144-0.587-0.138-0.846,0.018l-11.517,6.902
							c-0.558,0.336-0.551,1.146,0.013,1.472l11.276,6.49c0.26,0.149,0.58,0.151,0.842,0.004l12.239-6.868
							C373.393,359.853,373.387,359.009,372.798,358.689z"/>
						<path id="XMLID_152_" fill="#626365" d="M372.723,358.282l-11.998-6.523c-0.265-0.145-0.587-0.138-0.846,0.018l-11.517,6.902
							c-0.559,0.334-0.551,1.146,0.013,1.47l11.277,6.491c0.26,0.15,0.58,0.151,0.842,0.004l12.239-6.869
							C373.317,359.447,373.312,358.603,372.723,358.282z"/>
					</g>
					<g id="XMLID_148_">
						<path id="XMLID_150_" fill="#505050" d="M390.821,347.679l-11.999-6.524c-0.265-0.145-0.586-0.137-0.845,0.019l-11.517,6.902
							c-0.559,0.334-0.551,1.145,0.013,1.47l11.277,6.491c0.26,0.148,0.58,0.151,0.842,0.004l12.239-6.869
							C391.416,348.843,391.41,347.999,390.821,347.679z"/>
						<path id="XMLID_149_" fill="#626365" d="M390.745,347.272l-11.999-6.523c-0.265-0.145-0.586-0.138-0.845,0.018l-11.518,6.902
							c-0.558,0.334-0.55,1.146,0.013,1.47l11.276,6.49c0.26,0.15,0.581,0.151,0.843,0.006l12.239-6.87
							C391.34,348.437,391.334,347.592,390.745,347.272z"/>
					</g>
					<g id="XMLID_145_">
						<path id="XMLID_147_" fill="#505050" d="M408.15,337.412l-11.998-6.523c-0.265-0.144-0.587-0.137-0.846,0.018l-11.517,6.902
							c-0.558,0.334-0.551,1.146,0.013,1.471l11.276,6.49c0.261,0.15,0.581,0.151,0.843,0.005l12.238-6.869
							C408.746,338.577,408.739,337.732,408.15,337.412z"/>
						<path id="XMLID_146_" fill="#626365" d="M408.075,337.007l-11.999-6.524c-0.265-0.144-0.587-0.138-0.846,0.018l-11.517,6.902
							c-0.558,0.335-0.551,1.146,0.013,1.472l11.276,6.489c0.261,0.15,0.581,0.152,0.843,0.005l12.238-6.868
							C408.669,338.171,408.664,337.327,408.075,337.007z"/>
					</g>
					<g id="XMLID_142_">
						<path id="XMLID_144_" fill="#505050" d="M426.685,327.364l-11.997-6.524c-0.266-0.145-0.587-0.138-0.846,0.018l-11.517,6.902
							c-0.559,0.335-0.552,1.146,0.012,1.471l11.277,6.491c0.26,0.148,0.58,0.151,0.842,0.003l12.238-6.868
							C427.28,328.528,427.273,327.685,426.685,327.364z"/>
						<path id="XMLID_143_" fill="#626365" d="M426.609,326.958l-11.998-6.523c-0.266-0.146-0.587-0.138-0.846,0.017l-11.517,6.903
							c-0.559,0.334-0.551,1.146,0.013,1.47l11.276,6.49c0.261,0.15,0.58,0.151,0.843,0.005l12.239-6.869
							C427.204,328.122,427.199,327.277,426.609,326.958z"/>
					</g>
					<g id="XMLID_139_">
						<path id="XMLID_141_" fill="#505050" d="M359.625,346.603l-11.998-6.524c-0.265-0.144-0.586-0.138-0.846,0.018l-11.517,6.903
							c-0.558,0.334-0.551,1.145,0.012,1.47l11.277,6.491c0.261,0.149,0.581,0.151,0.842,0.004l12.239-6.869
							C360.22,347.768,360.214,346.923,359.625,346.603z"/>
						<path id="XMLID_140_" fill="#626365" d="M359.549,346.196l-11.998-6.523c-0.265-0.146-0.586-0.138-0.846,0.018l-11.517,6.902
							c-0.559,0.334-0.551,1.146,0.013,1.47l11.276,6.491c0.26,0.149,0.581,0.151,0.842,0.005l12.239-6.87
							C360.144,347.361,360.139,346.517,359.549,346.196z"/>
					</g>
					<g id="XMLID_136_">
						<path id="XMLID_138_" fill="#505050" d="M377.648,335.593l-11.998-6.525c-0.265-0.144-0.587-0.136-0.846,0.02l-11.517,6.902
							c-0.559,0.334-0.551,1.145,0.013,1.47l11.277,6.49c0.26,0.149,0.581,0.151,0.842,0.004l12.239-6.868
							C378.243,336.757,378.237,335.913,377.648,335.593z"/>
						<path id="XMLID_137_" fill="#626365" d="M377.572,335.186l-11.998-6.523c-0.265-0.144-0.587-0.137-0.846,0.018l-11.518,6.902
							c-0.558,0.334-0.55,1.146,0.013,1.471l11.277,6.49c0.26,0.15,0.581,0.151,0.842,0.005l12.239-6.869
							C378.167,336.351,378.161,335.506,377.572,335.186z"/>
					</g>
					<g id="XMLID_133_">
						<path id="XMLID_135_" fill="#505050" d="M394.978,325.326l-11.999-6.523c-0.265-0.144-0.586-0.138-0.845,0.018l-11.518,6.902
							c-0.558,0.334-0.551,1.146,0.013,1.47l11.276,6.491c0.26,0.15,0.581,0.151,0.843,0.005l12.239-6.868
							C395.572,326.491,395.566,325.647,394.978,325.326z"/>
						<path id="XMLID_134_" fill="#626365" d="M394.901,324.921l-11.998-6.524c-0.265-0.144-0.586-0.138-0.846,0.018l-11.517,6.902
							c-0.558,0.335-0.551,1.146,0.013,1.471l11.276,6.49c0.261,0.149,0.581,0.152,0.843,0.005l12.238-6.869
							C395.497,326.086,395.491,325.241,394.901,324.921z"/>
					</g>
					<g id="XMLID_130_">
						<path id="XMLID_132_" fill="#505050" d="M413.513,315.278l-11.998-6.525c-0.266-0.144-0.587-0.138-0.846,0.018l-11.517,6.902
							c-0.559,0.336-0.551,1.146,0.012,1.472l11.277,6.49c0.26,0.149,0.581,0.151,0.842,0.004l12.239-6.868
							C414.107,316.442,414.101,315.599,413.513,315.278z"/>
						<path id="XMLID_131_" fill="#626365" d="M413.437,314.871l-11.998-6.523c-0.265-0.145-0.586-0.138-0.846,0.018l-11.518,6.902
							c-0.558,0.334-0.55,1.146,0.013,1.47l11.277,6.491c0.26,0.15,0.581,0.151,0.843,0.005l12.238-6.87
							C414.032,316.036,414.025,315.191,413.437,314.871z"/>
					</g>
					<g id="XMLID_127_">
						<path id="XMLID_129_" fill="#505050" d="M431.087,304.502l-11.999-6.525c-0.265-0.144-0.587-0.136-0.846,0.02l-11.516,6.902
							c-0.559,0.334-0.552,1.145,0.012,1.47l11.276,6.49c0.262,0.15,0.582,0.151,0.843,0.004l12.239-6.868
							C431.681,305.666,431.676,304.821,431.087,304.502z"/>
						<path id="XMLID_128_" fill="#626365" d="M431.011,304.095l-11.998-6.523c-0.265-0.144-0.586-0.138-0.846,0.018l-11.517,6.902
							c-0.559,0.334-0.551,1.146,0.013,1.47l11.276,6.491c0.261,0.15,0.581,0.151,0.842,0.005l12.239-6.87
							C431.605,305.26,431.6,304.416,431.011,304.095z"/>
					</g>
					<g id="XMLID_124_">
						<path id="XMLID_126_" fill="#505050" d="M449.109,293.491l-11.998-6.523c-0.266-0.146-0.587-0.138-0.846,0.018l-11.518,6.902
							c-0.558,0.334-0.55,1.146,0.013,1.47l11.277,6.491c0.261,0.149,0.58,0.151,0.843,0.005l12.238-6.87
							C449.704,294.655,449.698,293.812,449.109,293.491z"/>
						<path id="XMLID_125_" fill="#626365" d="M449.033,293.086l-11.997-6.524c-0.266-0.145-0.587-0.138-0.846,0.018l-11.518,6.902
							c-0.559,0.335-0.551,1.146,0.013,1.47l11.277,6.49c0.26,0.15,0.58,0.153,0.842,0.006l12.238-6.869
							C449.629,294.249,449.622,293.406,449.033,293.086z"/>
					</g>
					<g id="XMLID_121_">
						<path id="XMLID_123_" fill="#505050" d="M466.439,283.227l-11.999-6.525c-0.265-0.144-0.586-0.137-0.846,0.018l-11.517,6.902
							c-0.558,0.336-0.551,1.146,0.013,1.471l11.276,6.49c0.261,0.15,0.581,0.153,0.844,0.005l12.238-6.868
							C467.033,284.39,467.028,283.547,466.439,283.227z"/>
						<path id="XMLID_122_" fill="#626365" d="M466.363,282.819l-11.998-6.524c-0.265-0.144-0.588-0.136-0.845,0.019l-11.518,6.903
							c-0.559,0.334-0.552,1.145,0.013,1.47l11.277,6.49c0.26,0.15,0.58,0.151,0.842,0.004l12.238-6.868
							C466.959,283.984,466.952,283.14,466.363,282.819z"/>
					</g>
					<g id="XMLID_118_">
						<path id="XMLID_120_" fill="#505050" d="M461.769,266.529l-11.999-6.523c-0.265-0.145-0.586-0.138-0.845,0.018l-11.518,6.902
							c-0.558,0.334-0.55,1.145,0.013,1.47l11.276,6.491c0.261,0.15,0.581,0.151,0.844,0.004l12.238-6.869
							C462.362,267.694,462.357,266.85,461.769,266.529z"/>
						<path id="XMLID_119_" fill="#626365" d="M461.692,266.123l-11.999-6.523c-0.265-0.145-0.586-0.138-0.846,0.018l-11.517,6.902
							c-0.558,0.334-0.551,1.146,0.014,1.47l11.275,6.491c0.262,0.149,0.582,0.151,0.844,0.005l12.238-6.869
							C462.288,267.287,462.281,266.444,461.692,266.123z"/>
					</g>
					<g id="XMLID_115_">
						<path id="XMLID_117_" fill="#505050" d="M478.404,255.456l-11.997-6.524c-0.266-0.144-0.587-0.137-0.846,0.018l-11.518,6.902
							c-0.559,0.334-0.552,1.146,0.013,1.47l11.277,6.491c0.26,0.15,0.58,0.152,0.842,0.005l12.238-6.868
							C479,256.62,478.993,255.776,478.404,255.456z"/>
						<path id="XMLID_116_" fill="#626365" d="M478.329,255.05l-11.999-6.524c-0.265-0.145-0.586-0.138-0.845,0.018l-11.518,6.903
							c-0.558,0.334-0.55,1.145,0.013,1.47l11.276,6.491c0.261,0.148,0.581,0.151,0.844,0.004l12.238-6.869
							C478.923,256.215,478.918,255.37,478.329,255.05z"/>
					</g>
					<g id="XMLID_112_">
						<path id="XMLID_114_" fill="#505050" d="M446.482,255.148l-11.998-6.524c-0.266-0.144-0.587-0.137-0.846,0.019l-11.518,6.902
							c-0.558,0.334-0.551,1.146,0.013,1.47l11.277,6.491c0.26,0.15,0.58,0.151,0.842,0.005l12.239-6.87
							C447.077,256.313,447.07,255.469,446.482,255.148z"/>
						<path id="XMLID_113_" fill="#626365" d="M446.406,254.743l-11.998-6.524c-0.266-0.144-0.587-0.138-0.846,0.018l-11.518,6.902
							c-0.558,0.335-0.55,1.146,0.014,1.471l11.275,6.49c0.262,0.15,0.581,0.152,0.844,0.005l12.238-6.869
							C447,255.907,446.995,255.063,446.406,254.743z"/>
					</g>
					<g id="XMLID_109_">
						<path id="XMLID_111_" fill="#505050" d="M463.778,245.702l-11.997-6.524c-0.265-0.144-0.587-0.137-0.846,0.018l-11.518,6.903
							c-0.559,0.334-0.551,1.145,0.014,1.47l11.276,6.491c0.261,0.149,0.58,0.151,0.842,0.003l12.239-6.868
							C464.374,246.867,464.368,246.022,463.778,245.702z"/>
						<path id="XMLID_110_" fill="#626365" d="M463.704,245.296l-11.999-6.524c-0.266-0.145-0.587-0.138-0.846,0.018l-11.517,6.902
							c-0.559,0.334-0.551,1.146,0.013,1.471l11.276,6.49c0.26,0.15,0.58,0.151,0.843,0.005l12.239-6.869
							C464.298,246.46,464.293,245.616,463.704,245.296z"/>
					</g>
					<g id="XMLID_106_">
						<path id="XMLID_108_" fill="#505050" d="M336.141,341.147l-11.999-6.524c-0.265-0.144-0.586-0.137-0.845,0.019l-11.518,6.902
							c-0.558,0.334-0.551,1.145,0.013,1.47l11.277,6.491c0.26,0.148,0.58,0.151,0.842,0.004l12.239-6.869
							C336.736,342.313,336.73,341.468,336.141,341.147z"/>
						<path id="XMLID_107_" fill="#626365" d="M336.065,340.741l-11.998-6.523c-0.265-0.144-0.586-0.138-0.845,0.018l-11.517,6.902
							c-0.558,0.334-0.551,1.146,0.013,1.47l11.276,6.491c0.261,0.149,0.581,0.151,0.843,0.005l12.238-6.87
							C336.66,341.905,336.655,341.063,336.065,340.741z"/>
					</g>
					<g id="XMLID_103_">
						<path id="XMLID_105_" fill="#505050" d="M354.164,330.138l-11.998-6.523c-0.265-0.146-0.586-0.138-0.846,0.018l-11.517,6.902
							c-0.558,0.334-0.551,1.146,0.013,1.47l11.276,6.49c0.261,0.15,0.581,0.151,0.842,0.006l12.239-6.87
							C354.758,331.302,354.753,330.458,354.164,330.138z"/>
						<path id="XMLID_104_" fill="#626365" d="M354.088,329.732l-11.998-6.525c-0.265-0.144-0.586-0.138-0.846,0.018l-11.517,6.902
							c-0.558,0.336-0.551,1.146,0.013,1.47l11.276,6.491c0.261,0.15,0.581,0.152,0.842,0.005l12.239-6.868
							C354.683,330.896,354.677,330.053,354.088,329.732z"/>
					</g>
					<g id="XMLID_100_">
						<path id="XMLID_102_" fill="#505050" d="M371.493,319.872l-11.998-6.524c-0.265-0.144-0.587-0.138-0.846,0.018l-11.517,6.902
							c-0.559,0.335-0.551,1.146,0.013,1.47l11.277,6.491c0.26,0.15,0.58,0.152,0.842,0.005l12.239-6.868
							C372.088,321.036,372.083,320.192,371.493,319.872z"/>
						<path id="XMLID_101_" fill="#626365" d="M371.418,319.466l-11.998-6.523c-0.265-0.145-0.587-0.138-0.846,0.018l-11.518,6.902
							c-0.558,0.334-0.55,1.145,0.013,1.47l11.277,6.491c0.26,0.15,0.58,0.151,0.842,0.004l12.239-6.869
							C372.013,320.631,372.007,319.786,371.418,319.466z"/>
					</g>
					<g id="XMLID_97_">
						<path id="XMLID_99_" fill="#505050" d="M390.028,309.823l-11.998-6.525c-0.265-0.144-0.586-0.136-0.845,0.02l-11.517,6.902
							c-0.558,0.334-0.551,1.145,0.013,1.47l11.276,6.49c0.261,0.15,0.581,0.151,0.843,0.004l12.238-6.868
							C390.623,310.987,390.617,310.143,390.028,309.823z"/>
						<path id="XMLID_98_" fill="#626365" d="M389.952,309.416l-11.998-6.523c-0.265-0.144-0.586-0.138-0.845,0.018l-11.517,6.902
							c-0.558,0.334-0.551,1.146,0.013,1.47l11.276,6.491c0.261,0.15,0.581,0.151,0.843,0.005l12.239-6.868
							C390.547,310.581,390.542,309.737,389.952,309.416z"/>
					</g>
					<g id="XMLID_94_">
						<path id="XMLID_96_" fill="#505050" d="M407.603,299.046l-11.998-6.522c-0.265-0.146-0.587-0.138-0.846,0.017l-11.517,6.903
							c-0.558,0.334-0.551,1.146,0.013,1.47l11.276,6.49c0.261,0.15,0.58,0.151,0.842,0.005l12.239-6.869
							C408.197,300.211,408.191,299.366,407.603,299.046z"/>
						<path id="XMLID_95_" fill="#626365" d="M407.527,298.641l-11.999-6.524c-0.265-0.144-0.587-0.138-0.846,0.018l-11.517,6.902
							c-0.558,0.335-0.551,1.146,0.013,1.47l11.276,6.491c0.261,0.15,0.58,0.152,0.842,0.005l12.239-6.868
							C408.121,299.805,408.116,298.961,407.527,298.641z"/>
					</g>
					<g id="XMLID_91_">
						<path id="XMLID_93_" fill="#505050" d="M425.625,288.036l-11.998-6.523c-0.265-0.146-0.587-0.138-0.845,0.018l-11.518,6.902
							c-0.559,0.334-0.551,1.146,0.013,1.47l11.277,6.491c0.26,0.149,0.58,0.151,0.842,0.005l12.238-6.87
							C426.22,289.2,426.215,288.356,425.625,288.036z"/>
						<path id="XMLID_92_" fill="#626365" d="M425.549,287.631l-11.997-6.524c-0.266-0.145-0.587-0.138-0.846,0.018l-11.517,6.902
							c-0.559,0.335-0.551,1.146,0.012,1.471l11.277,6.489c0.26,0.15,0.58,0.153,0.842,0.005l12.238-6.868
							C426.145,288.794,426.138,287.951,425.549,287.631z"/>
					</g>
					<g id="XMLID_88_">
						<path id="XMLID_90_" fill="#505050" d="M442.955,277.771l-11.999-6.525c-0.265-0.144-0.586-0.137-0.845,0.018l-11.518,6.902
							c-0.558,0.336-0.55,1.146,0.014,1.472l11.275,6.489c0.262,0.15,0.581,0.152,0.844,0.005l12.238-6.868
							C443.549,278.936,443.544,278.092,442.955,277.771z"/>
						<path id="XMLID_89_" fill="#626365" d="M442.879,277.364l-11.997-6.523c-0.266-0.145-0.587-0.138-0.846,0.018l-11.518,6.902
							c-0.558,0.334-0.552,1.146,0.013,1.47l11.277,6.491c0.26,0.15,0.58,0.151,0.842,0.005l12.238-6.869
							C443.475,278.529,443.468,277.685,442.879,277.364z"/>
					</g>
					<g id="XMLID_85_">
						<path id="XMLID_87_" fill="#505050" d="M319.549,330.14l-11.998-6.523c-0.265-0.145-0.587-0.138-0.846,0.018l-11.517,6.902
							c-0.559,0.334-0.551,1.146,0.012,1.47l11.277,6.491c0.26,0.15,0.581,0.151,0.843,0.004l12.238-6.869
							C320.144,331.305,320.138,330.46,319.549,330.14z"/>
						<path id="XMLID_86_" fill="#626365" d="M319.473,329.734l-11.999-6.524c-0.265-0.144-0.587-0.138-0.845,0.018l-11.518,6.902
							c-0.558,0.335-0.55,1.146,0.013,1.47l11.277,6.491c0.26,0.149,0.581,0.152,0.842,0.005l12.239-6.869
							C320.068,330.897,320.063,330.055,319.473,329.734z"/>
					</g>
					<g id="XMLID_82_">
						<path id="XMLID_84_" fill="#505050" d="M337.571,319.13l-11.998-6.523c-0.265-0.145-0.587-0.138-0.845,0.018l-11.518,6.902
							c-0.558,0.334-0.55,1.146,0.013,1.47l11.276,6.49c0.261,0.15,0.581,0.151,0.843,0.005l12.238-6.869
							C338.167,320.294,338.161,319.449,337.571,319.13z"/>
						<path id="XMLID_83_" fill="#626365" d="M337.496,318.725l-11.998-6.525c-0.265-0.144-0.587-0.138-0.846,0.018l-11.517,6.902
							c-0.558,0.336-0.551,1.146,0.013,1.472l11.276,6.489c0.261,0.15,0.581,0.152,0.843,0.005l12.238-6.868
							C338.09,319.888,338.085,319.044,337.496,318.725z"/>
					</g>
					<g id="XMLID_79_">
						<path id="XMLID_81_" fill="#505050" d="M354.901,308.864l-11.998-6.524c-0.265-0.144-0.586-0.138-0.845,0.018l-11.517,6.902
							c-0.558,0.335-0.551,1.146,0.013,1.471l11.276,6.49c0.261,0.15,0.581,0.152,0.843,0.005l12.239-6.868
							C355.496,310.028,355.49,309.185,354.901,308.864z"/>
						<path id="XMLID_80_" fill="#626365" d="M354.825,308.458l-11.998-6.523c-0.265-0.145-0.586-0.138-0.845,0.018l-11.517,6.902
							c-0.558,0.334-0.551,1.146,0.013,1.47l11.276,6.491c0.261,0.15,0.581,0.151,0.843,0.005l12.239-6.87
							C355.42,309.623,355.415,308.778,354.825,308.458z"/>
					</g>
					<g id="XMLID_76_">
						<path id="XMLID_78_" fill="#505050" d="M373.436,298.814l-11.999-6.522c-0.265-0.146-0.587-0.138-0.845,0.017l-11.518,6.903
							c-0.558,0.334-0.551,1.146,0.013,1.47l11.277,6.49c0.26,0.15,0.581,0.151,0.843,0.005l12.239-6.869
							C374.031,299.979,374.025,299.135,373.436,298.814z"/>
						<path id="XMLID_77_" fill="#626365" d="M373.36,298.41l-11.999-6.525c-0.265-0.144-0.587-0.138-0.846,0.018l-11.517,6.902
							c-0.558,0.336-0.551,1.146,0.013,1.47l11.277,6.491c0.26,0.15,0.58,0.152,0.843,0.005l12.239-6.868
							C373.955,299.573,373.949,298.729,373.36,298.41z"/>
					</g>
					<g id="XMLID_73_">
						<path id="XMLID_75_" fill="#505050" d="M391.01,288.038l-11.999-6.523c-0.265-0.144-0.586-0.137-0.845,0.018l-11.518,6.902
							c-0.558,0.334-0.551,1.146,0.013,1.471l11.277,6.49c0.26,0.15,0.58,0.151,0.842,0.005l12.239-6.869
							C391.605,289.203,391.6,288.36,391.01,288.038z"/>
						<path id="XMLID_74_" fill="#626365" d="M390.935,287.633l-11.999-6.524c-0.265-0.144-0.586-0.138-0.845,0.018l-11.517,6.902
							c-0.558,0.335-0.551,1.146,0.013,1.472l11.277,6.489c0.26,0.15,0.58,0.152,0.842,0.005l12.238-6.868
							C391.53,288.798,391.524,287.953,390.935,287.633z"/>
					</g>
					<g id="XMLID_70_">
						<path id="XMLID_72_" fill="#505050" d="M409.033,277.029l-11.999-6.524c-0.265-0.144-0.586-0.138-0.846,0.018l-11.517,6.902
							c-0.558,0.335-0.551,1.146,0.013,1.47l11.276,6.491c0.261,0.149,0.581,0.152,0.843,0.005l12.238-6.869
							C409.628,278.192,409.622,277.35,409.033,277.029z"/>
						<path id="XMLID_71_" fill="#626365" d="M408.957,276.623l-11.998-6.524c-0.265-0.145-0.586-0.138-0.846,0.017l-11.517,6.904
							c-0.558,0.334-0.551,1.145,0.013,1.47l11.276,6.491c0.261,0.149,0.581,0.151,0.843,0.003l12.238-6.868
							C409.553,277.787,409.546,276.943,408.957,276.623z"/>
					</g>
					<g id="XMLID_67_">
						<path id="XMLID_69_" fill="#505050" d="M427.614,266.575l-11.997-6.522c-0.266-0.145-0.587-0.138-0.846,0.017l-11.518,6.903
							c-0.559,0.334-0.552,1.146,0.013,1.47l11.277,6.49c0.26,0.15,0.58,0.151,0.842,0.005l12.238-6.868
							C428.21,267.74,428.203,266.897,427.614,266.575z"/>
						<path id="XMLID_68_" fill="#626365" d="M427.539,266.17l-11.999-6.524c-0.265-0.144-0.586-0.138-0.845,0.018l-11.518,6.902
							c-0.558,0.336-0.55,1.146,0.014,1.472l11.275,6.49c0.261,0.149,0.581,0.151,0.844,0.004l12.238-6.868
							C428.133,267.334,428.128,266.49,427.539,266.17z"/>
					</g>
					<g id="XMLID_64_">
						<path id="XMLID_66_" fill="#505050" d="M484.974,273.177l-11.998-6.524c-0.266-0.145-0.587-0.137-0.846,0.019l-11.518,6.902
							c-0.558,0.334-0.55,1.145,0.015,1.47l11.275,6.491c0.26,0.148,0.58,0.151,0.843,0.003l12.238-6.868
							C485.568,274.341,485.563,273.497,484.974,273.177z"/>
						<path id="XMLID_65_" fill="#626365" d="M484.897,272.771l-11.997-6.523c-0.266-0.145-0.587-0.138-0.846,0.018l-11.517,6.902
							c-0.559,0.334-0.552,1.146,0.012,1.47l11.277,6.49c0.26,0.15,0.58,0.151,0.842,0.006l12.238-6.87
							C485.493,273.935,485.486,273.092,484.897,272.771z"/>
					</g>
					<g id="XMLID_61_">
						<path id="XMLID_63_" fill="#505050" d="M500.497,262.874l-11.997-6.523c-0.265-0.145-0.587-0.138-0.846,0.018l-11.517,6.902
							c-0.558,0.334-0.552,1.145,0.013,1.47l11.276,6.491c0.261,0.15,0.58,0.151,0.842,0.004l12.239-6.869
							C501.093,264.039,501.087,263.194,500.497,262.874z"/>
						<path id="XMLID_62_" fill="#626365" d="M500.423,262.469l-11.999-6.524c-0.266-0.144-0.587-0.138-0.846,0.018l-11.517,6.902
							c-0.559,0.334-0.551,1.146,0.014,1.47l11.275,6.491c0.26,0.149,0.58,0.151,0.843,0.005l12.239-6.869
							C501.017,263.633,501.012,262.789,500.423,262.469z"/>
					</g>
					<g id="XMLID_58_">
						<path id="XMLID_60_" fill="#505050" d="M521.143,271.838l-11.998-6.524c-0.265-0.144-0.586-0.138-0.846,0.018l-11.517,6.902
							c-0.558,0.334-0.552,1.146,0.013,1.47l11.276,6.491c0.261,0.149,0.581,0.151,0.842,0.005l12.239-6.869
							C521.737,273.002,521.731,272.158,521.143,271.838z"/>
						<path id="XMLID_59_" fill="#626365" d="M521.067,271.432l-11.999-6.524c-0.265-0.145-0.587-0.137-0.846,0.019l-11.517,6.902
							c-0.558,0.334-0.551,1.145,0.014,1.47l11.275,6.491c0.261,0.15,0.581,0.151,0.844,0.004l12.238-6.869
							C521.661,272.597,521.656,271.752,521.067,271.432z"/>
					</g>
					<g id="XMLID_55_">
						<path id="XMLID_57_" fill="#505050" d="M444.708,316.354l-11.998-6.524c-0.265-0.144-0.586-0.137-0.846,0.019l-11.517,6.902
							c-0.558,0.334-0.552,1.145,0.013,1.47l11.276,6.491c0.261,0.15,0.581,0.151,0.842,0.004l12.239-6.869
							C445.303,317.519,445.297,316.674,444.708,316.354z"/>
						<path id="XMLID_56_" fill="#626365" d="M444.633,315.947l-11.999-6.523c-0.265-0.144-0.587-0.138-0.846,0.018l-11.517,6.902
							c-0.558,0.334-0.551,1.146,0.013,1.47l11.276,6.491c0.261,0.149,0.58,0.151,0.844,0.005l12.238-6.87
							C445.227,317.111,445.222,316.268,444.633,315.947z"/>
					</g>
					<g id="XMLID_52_">
						<path id="XMLID_54_" fill="#505050" d="M461.921,306.088l-11.998-6.523c-0.266-0.146-0.587-0.138-0.846,0.018l-11.518,6.902
							c-0.558,0.334-0.55,1.146,0.013,1.47l11.277,6.491c0.26,0.149,0.58,0.151,0.843,0.003l12.239-6.868
							C462.516,307.252,462.511,306.408,461.921,306.088z"/>
						<path id="XMLID_53_" fill="#626365" d="M461.845,305.683l-11.998-6.525c-0.266-0.144-0.586-0.137-0.845,0.018l-11.519,6.903
							c-0.558,0.335-0.55,1.146,0.014,1.47l11.277,6.49c0.26,0.15,0.58,0.151,0.842,0.005l12.238-6.868
							C462.44,306.846,462.434,306.003,461.845,305.683z"/>
					</g>
					<g id="XMLID_49_">
						<path id="XMLID_51_" fill="#505050" d="M478.232,296.252l-11.997-6.524c-0.265-0.145-0.587-0.138-0.846,0.018l-11.517,6.902
							c-0.558,0.335-0.552,1.146,0.013,1.471l11.276,6.489c0.261,0.15,0.58,0.153,0.842,0.006l12.239-6.869
							C478.828,297.415,478.822,296.572,478.232,296.252z"/>
						<path id="XMLID_50_" fill="#626365" d="M478.158,295.846l-11.999-6.523c-0.266-0.146-0.587-0.138-0.846,0.018l-11.517,6.902
							c-0.559,0.334-0.551,1.145,0.014,1.47l11.275,6.49c0.26,0.15,0.58,0.151,0.843,0.004l12.239-6.868
							C478.752,297.01,478.747,296.166,478.158,295.846z"/>
					</g>
					<g id="XMLID_46_">
						<path id="XMLID_48_" fill="#505050" d="M395.492,364.249l-11.999-6.524c-0.264-0.144-0.586-0.138-0.845,0.018l-11.518,6.903
							c-0.558,0.334-0.55,1.145,0.013,1.47l11.277,6.491c0.26,0.148,0.58,0.151,0.842,0.004l12.239-6.869
							C396.087,365.414,396.082,364.569,395.492,364.249z"/>
						<path id="XMLID_47_" fill="#626365" d="M395.416,363.843l-11.998-6.523c-0.265-0.146-0.586-0.138-0.845,0.018l-11.517,6.902
							c-0.558,0.334-0.551,1.146,0.013,1.47l11.276,6.491c0.261,0.149,0.581,0.151,0.843,0.005l12.238-6.87
							C396.012,365.007,396.006,364.163,395.416,363.843z"/>
					</g>
					<g id="XMLID_43_">
						<path id="XMLID_45_" fill="#505050" d="M487.779,311.787l-11.997-6.523c-0.265-0.145-0.587-0.138-0.846,0.018l-11.519,6.902
							c-0.558,0.334-0.55,1.146,0.015,1.47l11.276,6.49c0.26,0.15,0.58,0.151,0.842,0.005l12.239-6.868
							C488.375,312.951,488.369,312.108,487.779,311.787z"/>
						<path id="XMLID_44_" fill="#626365" d="M487.704,311.382l-11.998-6.525c-0.266-0.144-0.587-0.138-0.846,0.018l-11.517,6.902
							c-0.559,0.336-0.551,1.146,0.012,1.472l11.277,6.49c0.26,0.149,0.58,0.151,0.843,0.004l12.239-6.868
							C488.299,312.546,488.294,311.701,487.704,311.382z"/>
					</g>
					<g id="XMLID_40_">
						<path id="XMLID_42_" fill="#505050" d="M504.824,301.934l-11.998-6.523c-0.266-0.146-0.587-0.138-0.845,0.018l-11.519,6.902
							c-0.558,0.334-0.55,1.145,0.014,1.47l11.277,6.491c0.26,0.149,0.58,0.151,0.842,0.003l12.238-6.868
							C505.418,303.098,505.413,302.254,504.824,301.934z"/>
						<path id="XMLID_41_" fill="#626365" d="M504.748,301.527l-11.997-6.523c-0.266-0.145-0.587-0.138-0.846,0.018l-11.518,6.902
							c-0.558,0.334-0.552,1.146,0.013,1.47l11.277,6.49c0.26,0.15,0.58,0.151,0.843,0.005l12.237-6.869
							C505.344,302.691,505.339,301.849,504.748,301.527z"/>
					</g>
					<g id="XMLID_37_">
						<path id="XMLID_39_" fill="#505050" d="M522.581,290.756l-11.998-6.525c-0.265-0.144-0.586-0.138-0.845,0.018l-11.518,6.902
							c-0.558,0.336-0.552,1.146,0.013,1.472l11.276,6.49c0.261,0.149,0.581,0.151,0.842,0.004l12.239-6.868
							C523.176,291.92,523.17,291.075,522.581,290.756z"/>
						<path id="XMLID_38_" fill="#626365" d="M522.506,290.349l-11.999-6.523c-0.265-0.145-0.587-0.138-0.846,0.018l-11.517,6.902
							c-0.558,0.334-0.551,1.146,0.014,1.47l11.275,6.491c0.262,0.15,0.581,0.151,0.844,0.005l12.238-6.87
							C523.1,291.514,523.095,290.669,522.506,290.349z"/>
					</g>
					<g id="XMLID_34_">
						<path id="XMLID_36_" fill="#505050" d="M352.668,370.598l-12.104-6.749c-0.109-0.06-0.241-0.06-0.35,0.002l-19.085,10.75
							c-0.242,0.136-0.243,0.483-0.003,0.621l12.009,6.925c0.11,0.063,0.246,0.064,0.356,0l19.18-10.925
							C352.913,371.083,352.912,370.733,352.668,370.598z"/>
						<path id="XMLID_35_" fill="#626365" d="M352.67,370.168l-12.104-6.748c-0.109-0.061-0.242-0.061-0.351,0.001l-19.084,10.75
							c-0.242,0.137-0.244,0.484-0.003,0.622l12.009,6.924c0.11,0.063,0.245,0.063,0.355,0.001l19.18-10.925
							C352.915,370.653,352.913,370.305,352.67,370.168z"/>
					</g>
					<g id="XMLID_31_">
						<path id="XMLID_33_" fill="#505050" d="M319.363,351.589l-12.104-6.749c-0.109-0.06-0.241-0.06-0.35,0.002l-19.084,10.75
							c-0.242,0.137-0.243,0.484-0.003,0.622l12.009,6.923c0.11,0.064,0.245,0.064,0.355,0.002l19.18-10.926
							C319.607,352.074,319.606,351.726,319.363,351.589z"/>
						<path id="XMLID_32_" fill="#626365" d="M319.364,351.16l-12.104-6.749c-0.109-0.06-0.242-0.06-0.35,0.001l-19.084,10.751
							c-0.242,0.136-0.244,0.482-0.003,0.621l12.009,6.924c0.11,0.063,0.245,0.063,0.356,0.001l19.179-10.926
							C319.609,351.646,319.607,351.296,319.364,351.16z"/>
					</g>
					<g id="XMLID_28_">
						<path id="XMLID_30_" fill="#505050" d="M302.358,341.62l-12.104-6.748c-0.108-0.061-0.241-0.061-0.35,0.001l-19.084,10.75
							c-0.242,0.137-0.244,0.484-0.003,0.622l12.009,6.925c0.11,0.063,0.245,0.063,0.356,0l19.179-10.925
							C302.603,342.105,302.602,341.757,302.358,341.62z"/>
						<path id="XMLID_29_" fill="#626365" d="M302.36,341.191l-12.104-6.748c-0.109-0.061-0.241-0.061-0.35,0.001l-19.085,10.75
							c-0.241,0.137-0.243,0.484-0.003,0.622l12.009,6.923c0.11,0.064,0.246,0.064,0.355,0.002l19.18-10.927
							C302.605,341.677,302.603,341.328,302.36,341.191z"/>
					</g>
					<g id="XMLID_24_">
						<path id="XMLID_27_" fill="#505050" d="M335.628,361.121l-12.104-6.749c-0.108-0.06-0.241-0.06-0.35,0.001l-19.084,10.751
							c-0.242,0.136-0.244,0.483-0.003,0.621l12.009,6.925c0.11,0.063,0.245,0.064,0.356,0l19.179-10.925
							C335.873,361.606,335.872,361.257,335.628,361.121z"/>
						<path id="XMLID_26_" fill="#505050" d="M342.161,357.391l-12.104-6.749c-0.109-0.061-0.241-0.061-0.35,0l-19.085,10.752
							c-0.241,0.135-0.243,0.482-0.003,0.621l12.009,6.924c0.11,0.064,0.245,0.064,0.356,0.002l19.18-10.927
							C342.406,357.876,342.404,357.525,342.161,357.391z"/>
						<path id="XMLID_25_" fill="#626365" d="M342.162,356.96l-12.104-6.748c-0.109-0.061-0.241-0.061-0.35,0.001l-19.085,10.75
							c-0.03,0.018-0.022,0.056-0.045,0.078l-6.487,3.653c-0.241,0.137-0.243,0.484-0.003,0.622l12.009,6.924
							c0.11,0.063,0.246,0.063,0.355,0.001l19.18-10.927c0.005-0.002,0.002-0.01,0.008-0.014l6.524-3.717
							C342.407,357.445,342.405,357.097,342.162,356.96z"/>
					</g>
					<g id="XMLID_21_">
						<path id="XMLID_23_" fill="#505050" d="M503.903,282.646l-12.365-6.255c-0.111-0.057-0.243-0.052-0.35,0.014l-18.638,11.509
							c-0.234,0.146-0.224,0.493,0.023,0.622l12.277,6.436c0.112,0.059,0.247,0.054,0.354-0.014l18.726-11.688
							C504.168,283.121,504.152,282.772,503.903,282.646z"/>
						<path id="XMLID_22_" fill="#626365" d="M503.888,282.217l-12.365-6.256c-0.111-0.056-0.244-0.051-0.35,0.014l-18.638,11.51
							c-0.235,0.146-0.223,0.493,0.022,0.622l12.277,6.436c0.112,0.059,0.248,0.054,0.355-0.014l18.726-11.688
							C504.152,282.692,504.137,282.343,503.888,282.217z"/>
					</g>
					<g id="XMLID_18_">
						<path id="XMLID_20_" fill="#505050" d="M486.825,232.577l-12.104-6.749c-0.109-0.061-0.241-0.06-0.351,0l-19.085,10.751
							c-0.241,0.136-0.242,0.483-0.002,0.622l12.009,6.924c0.109,0.063,0.246,0.063,0.356,0l19.18-10.926
							C487.07,233.063,487.069,232.713,486.825,232.577z"/>
						<path id="XMLID_19_" fill="#626365" d="M486.826,232.148l-12.104-6.749c-0.108-0.061-0.241-0.061-0.351,0l-19.084,10.751
							c-0.242,0.136-0.243,0.483-0.003,0.622l12.009,6.924c0.11,0.063,0.246,0.064,0.356,0l19.18-10.926
							C487.071,232.633,487.07,232.284,486.826,232.148z"/>
					</g>
					<g id="XMLID_15_">
						<path id="XMLID_17_" fill="#505050" d="M502.729,243.11l-12.104-6.749c-0.108-0.061-0.241-0.06-0.35,0.001l-19.085,10.75
							c-0.241,0.137-0.243,0.484-0.003,0.622l12.009,6.923c0.11,0.064,0.246,0.064,0.356,0.001l19.179-10.925
							C502.975,243.596,502.973,243.246,502.729,243.11z"/>
						<path id="XMLID_16_" fill="#626365" d="M502.73,242.681l-12.104-6.749c-0.109-0.061-0.242-0.06-0.351,0l-19.085,10.751
							c-0.241,0.136-0.242,0.483-0.002,0.622l12.008,6.924c0.11,0.063,0.247,0.063,0.356,0.001l19.181-10.926
							C502.976,243.167,502.975,242.817,502.73,242.681z"/>
					</g>
					<g id="XMLID_12_">
						<path id="XMLID_14_" fill="#505050" d="M469.06,322.544l-11.752-6.84l-67.995,38.611c-0.704,0.399-0.704,1.413-0.001,1.813
							l10.14,5.764c0.956,0.543,2.127,0.54,3.081-0.005l66.522-38.076C469.544,323.531,469.547,322.827,469.06,322.544z"/>
						<path id="XMLID_13_" fill="#626365" d="M469.164,321.844l-11.854-6.899l-67.996,38.611c-0.703,0.4-0.703,1.413,0,1.813
							l10.14,5.763c0.956,0.543,2.127,0.541,3.081-0.005l66.625-38.134C469.603,322.738,469.605,322.101,469.164,321.844z"/>
					</g>
					<g id="XMLID_8_">
						<path id="XMLID_11_" fill="#505050" d="M530.705,259.116l-23.335-13.188c-0.315-0.177-0.701-0.176-1.014,0.006l-12.96,7.526
							c-0.69,0.4-0.674,1.404,0.031,1.779l7.272,3.889c0.993,0.532,2.191,0.511,3.165-0.055l3.971-2.307
							c0.688-0.398,1.535-0.391,2.216,0.02l14.182,8.571c0.37,0.224,0.841,0.189,1.175-0.085l5.443-4.483
							C531.403,260.336,531.328,259.47,530.705,259.116z"/>
						<path id="XMLID_10_" fill="#626365" d="M530.708,258.468l-23.337-13.188c-0.314-0.178-0.7-0.176-1.014,0.005l-12.96,7.528
							c-0.689,0.399-0.672,1.403,0.032,1.778l7.272,3.889c0.993,0.532,2.19,0.511,3.165-0.055l3.972-2.307
							c0.687-0.397,1.535-0.391,2.214,0.021l14.183,8.57c0.37,0.225,0.841,0.189,1.175-0.085l5.444-4.483
							C531.406,259.687,531.329,258.819,530.708,258.468z"/>
					</g>
				</g>
			</g>
		</g>
	</g>
	<g id="lock">
		<path id="XMLID_248_" opacity="0.2" fill="#ABAAAF" d="M445.493,158.173c-0.375-0.283-0.775-0.549-1.203-0.79l-10.267-5.802
			v-22.102c0-10.069-5.077-19.58-13.471-24.888c-2.65-2.439-5.73-4.411-9.192-5.716c-7.174-2.695-16.267-2.979-27.208,2.73
			c0,0-24.236,9.966-25.758,50.716l-0.072,0.035v33.582l-9.946,5.556c-16.711,6.533-15.467,19.153-15.467,19.153v91.112
			c0,2.172,1.183,4.177,3.103,5.263l16.917,9.561c10.912,8.478,23.116-1.75,23.116-1.75l0,0l75.949-42.957
			c2.446-1.384,3.953-3.939,3.951-6.705l-0.027-87.241C455.918,177.931,458.439,165.425,445.493,158.173z M416.758,118.346
			c1.341,2.695,1.666,5.923,1.666,8.902l-0.063,25.15l-40.49,22.62v-29.498c0,0,1.798-22.742,18.633-31.881
			c4.769-2.589,10.279-2.799,15.228-0.844C413.681,114.114,415.462,115.723,416.758,118.346z"/>
		<g id="XMLID_189_">
			<path id="XMLID_176_" fill="#D2D4D5" d="M359.828,199.231l77.098-44.513c3.249-1.875,7.251-1.875,10.501,0l11.676,6.741
				c7.002,4.042,7.002,14.147,0,18.188l-77.097,44.513c-3.25,1.875-7.252,1.875-10.501,0l-11.676-6.741
				C352.828,213.377,352.827,203.273,359.828,199.231z"/>
			<path id="XMLID_175_" fill="#89B2E2" d="M470.731,182.449c0,0,3.015-15.197-14.32-22.052l-2.271-1.216l-2.33,10.534l2.241,15.098
				L470.731,182.449z"/>
			<path id="XMLID_174_" fill="#89B2E2" d="M388.234,217.723c-1.062-0.59-14.155-4.954-14.626-4.482
				c-0.471,0.472-6.487,7.617-6.487,7.617l9.672,14.794l16.631-8.965L388.234,217.723z"/>
			<path id="XMLID_173_" fill="#5682C4" d="M390.858,322.294c0,0-12.205,10.447-23.116,1.789l8.683-7.594l2.281-2.281l2.91,2.438
				L390.858,322.294z"/>
			<path id="XMLID_172_" fill="#89B2E2" d="M347.723,215.87c0,0-1.244-12.892,15.467-19.565l-1.212,12.832l0.001,3.225l-3.781,0.336
				L347.723,215.87z"/>
			<path id="XMLID_9_" fill="#78A1DE" d="M458.87,175.604l-77.159,44.548c-2.447,1.412-3.954,4.023-3.954,6.848v89.164
				c0,6.088,6.592,9.892,11.863,6.846l77.187-44.596c2.447-1.412,3.953-4.024,3.952-6.849l-0.027-89.116
				C470.729,176.363,464.142,172.561,458.87,175.604z"/>
			<path id="XMLID_7_" fill="#5682C4" d="M374.648,220.644l-17.621-10.151c-4.137-2.384-9.304,0.602-9.304,5.377v93.071
				c0,2.218,1.183,4.267,3.103,5.375l17.621,10.173c4.138,2.39,9.31-0.597,9.31-5.375v-93.093
				C377.757,223.802,376.571,221.752,374.648,220.644z"/>
			<path id="XMLID_5_" fill="#89B2E2" d="M455.41,159.915l-9.067-5.235c-3.144-1.815-7.014-1.825-10.166-0.026l-72.987,41.651
				c-6.851,3.91-9.957,12.002-3.122,15.939l12.586,7.25c3.158,1.819,7.047,1.817,10.203-0.004l72.554-41.889
				C462.218,173.67,462.218,163.845,455.41,159.915z"/>
			<path id="XMLID_4_" fill="#626365" d="M416.646,242.821c1.756-6.672,7.949-14.225,12.675-15.25
				c5.934-1.288,8.719,0.606,8.626,10.239c-0.031,3.305-1.917,7.033-4.378,10.098l3.498,19.606l-16.594,9.122l1.436-22.136
				C416.207,254.182,415.239,248.165,416.646,242.821z"/>
			<g id="XMLID_190_">
				<path id="XMLID_2_" fill="#78A1DE" d="M373.136,156.326v49.741l5.652,3.695l8.767-5.035v-54.74c0,0,1.848-25.179,19.273-35.322
					c5.76-3.369,12.499-3.152,18.187,0.253c2.535,1.558,4.927,3.296,6.557,6.666c1.342,2.753,1.667,6.05,1.667,9.093l-0.108,43.328
					l3.26,2.319l9.311-5.905v-38.184c0-13.405-7.571-25.939-19.526-30.541c-7.173-2.753-16.267-3.043-27.207,2.79
					c0,0-24.236,10.18-25.758,51.805L373.136,156.326z"/>
				<path id="XMLID_1_" fill="#A3C4EA" d="M378.863,155.136c1.453-38.355,24.84-47.736,24.84-47.736
					c10.566-5.377,19.343-5.128,26.259-2.586c11.583,4.257,18.875,15.801,18.875,28.143v35.879l-12.115,7.375l0.094-44.638
					c0.007-2.828-0.651-5.585-1.93-8.108c-1.575-3.108-3.558-5.029-5.994-6.425c-5.495-3.148-12.036-3.334-17.574-0.263
					c-16.835,9.334-18.633,32.566-18.633,32.566v52.408l-13.887,8.018v-54.593L378.863,155.136z"/>
			</g>
		</g>
	</g>
	<g id="key">
		<path id="XMLID_253_" opacity="0.2" fill="#ABAAAF" d="M559.306,431.994c1.359-13.3-14.584-22.264-32.365-22.264
			c-17.763,0-34.241,9.516-31.999,22.264c0,0.004,0.002,0.007,0.002,0.011c-0.271,1.481-0.282,3.023-0.002,4.617
			c0.179,1.009,0.499,1.995,0.914,2.961l-40.646,23.601l-5.988,3.473l-16.954,9.846v4.628l14.492,8.358l5.36-3.102l14.085,8.055
			l5.264-3.04l2.266-1.308v-4.629l-5.966-3.498l0.762-0.434l2.845,1.507l2.681-1.542l2.261-1.305v-2.258l8.822,5.104l3.063-1.825
			l2.066-1.301v-4.628l-9.211-5.587l30.577-17.651c4.5,1.487,9.722,2.355,15.491,2.355c17.763,0,31.171-8.009,32.182-17.781
			c0.14-1.368,0.088-2.688-0.122-3.96C559.22,432.438,559.283,432.219,559.306,431.994z M526.995,420.401
			c9.026,0,17.238,3.913,18.938,9.978c-1.595,5.17-9.105,9.219-18.827,9.219c-9.97,0-17.244-4.29-18.896-9.596
			C509.972,424.322,518.211,420.401,526.995,420.401z"/>
		<g id="XMLID_226_">
			<path id="XMLID_196_" fill="#B67B47" d="M523.331,407.886c-17.764,0-34.24,9.514-31.999,22.262
				c0.397,2.253,1.417,4.414,2.936,6.417L451.6,461.339l-5.987,3.471l-16.955,9.846l14.493,8.358l5.358-3.102l14.085,8.055
				l5.266-3.039l2.265-1.309l-9.972-5.848l4.769-2.713l2.843,1.509l2.683-1.544l2.26-1.305l-5.148-3.021l2-1.058l11.972,6.928
				l3.061-1.825l2.066-1.301l-13.119-7.96l34.487-19.906c4.499,1.487,9.722,2.354,15.489,2.354c17.763,0,31.173-8.008,32.184-17.781
				C557.057,416.85,541.111,407.886,523.331,407.886z M542.617,427.172c-0.586,5.805-8.56,10.581-19.121,10.581
				c-10.581,0-18.13-4.831-19.141-10.581c-1.341-7.586,8.469-13.243,19.031-13.243C533.947,413.929,543.427,419.273,542.617,427.172
				z"/>
			<path id="XMLID_193_" fill="#DDC357" d="M523.331,403.256c-17.764,0-34.24,9.516-31.999,22.264
				c0.397,2.253,1.417,4.414,2.936,6.415L451.6,456.71l-5.987,3.472l-16.955,9.846l14.493,8.358l5.358-3.103l14.085,8.055
				l5.266-3.039l2.265-1.308l-9.972-5.848l4.769-2.714l2.843,1.508l2.683-1.543l2.26-1.305l-5.148-3.021l2-1.059l11.972,6.927
				l3.061-1.824l2.066-1.301l-13.119-7.959l34.487-19.907c4.499,1.487,9.722,2.354,15.489,2.354
				c17.763,0,31.173-8.009,32.184-17.781C557.057,412.221,541.111,403.256,523.331,403.256z M542.617,422.543
				c-0.586,5.806-8.56,10.582-19.121,10.582c-10.581,0-18.13-4.831-19.141-10.582c-1.341-7.585,8.469-13.243,19.031-13.243
				C533.947,409.3,543.427,414.646,542.617,422.543z"/>
			<polygon id="XMLID_177_" fill="#A36A40" points="428.657,470.027 428.657,474.655 443.15,483.014 443.15,478.386 			"/>
			<polygon id="XMLID_219_" fill="#A36A40" points="448.509,479.912 448.509,475.283 462.594,483.338 462.594,487.967 			"/>
			<polygon id="XMLID_221_" fill="#CC8A58" points="470.124,478.991 470.124,483.619 462.594,487.967 462.594,483.338 			"/>
			<polygon id="XMLID_222_" fill="#A36A40" points="464.921,470.43 464.921,475.059 467.764,476.567 467.764,471.938 			"/>
			<polygon id="XMLID_223_" fill="#CC8A58" points="472.706,469.09 472.706,473.719 467.764,476.567 467.764,471.938 			"/>
			<polygon id="XMLID_224_" fill="#CC8A58" points="481.529,471.938 481.529,476.567 486.656,473.441 486.656,468.813 			"/>
			<polygon id="XMLID_225_" fill="#A36A40" points="508.024,440.946 508.024,445.575 477.447,463.225 473.537,460.854 			"/>
		</g>
	</g>
	<g id="password">
		<polygon id="XMLID_240_" opacity="0.2" fill="#686868" points="230.326,175.701 201.058,192.599 294.234,141.051 285.966,138.151 
			195.158,190.566 195.134,224.377 203.365,226.918 288.913,175.701 288.913,141.847 		"/>
		<g id="XMLID_239_">
			<g id="XMLID_231_">
				<polygon id="XMLID_3_" fill="#DDC357" points="239.271,177.251 299.05,142.709 299.049,177.251 209.384,228.991 
					209.408,194.493 				"/>
				<polygon id="XMLID_163_" fill="#B67B47" points="209.408,194.493 203.388,192.419 203.365,226.918 209.384,228.991 				"/>
				<polygon id="XMLID_230_" fill="#CC8A58" points="203.388,192.419 293.03,140.636 299.05,142.709 209.408,194.493 				"/>
			</g>
			<g id="XMLID_241_">
				<path id="XMLID_238_" fill="#F2F3F5" d="M234.572,204.072l-4.335-2.612l4.335-2.613c0.879-0.529,0.743-1.585-0.243-1.883
					l-1.217-0.368c-0.444-0.134-0.957-0.071-1.353,0.167l-3.271,1.971l0-5.184c0-1.025-0.79-1.667-1.42-1.152l-0.884,0.719
					c-0.292,0.238-0.472,0.678-0.472,1.153l0,4.462l-3.27-1.97c-0.395-0.238-0.908-0.302-1.352-0.167l-1.217,0.368
					c-0.985,0.298-1.122,1.354-0.243,1.883l4.336,2.613l-4.336,2.612c-0.869,0.523-0.748,1.565,0.218,1.875l1.193,0.383
					c0.449,0.144,0.973,0.083,1.376-0.161l3.294-1.984l-0.001,5.079c0,1.026,0.788,1.667,1.419,1.154l0.887-0.722
					c0.293-0.238,0.473-0.678,0.473-1.154l0-4.358l3.294,1.984c0.404,0.243,0.928,0.305,1.377,0.161l1.192-0.383
					C235.32,205.638,235.442,204.596,234.572,204.072z"/>
				<path id="XMLID_236_" fill="#F2F3F5" d="M253.038,193.576l-4.335-2.613l4.335-2.612c0.879-0.53,0.743-1.585-0.243-1.884
					l-1.217-0.368c-0.444-0.134-0.957-0.071-1.352,0.167l-3.271,1.971l0-5.184c0-1.026-0.79-1.667-1.42-1.153l-0.884,0.72
					c-0.292,0.238-0.472,0.678-0.473,1.153v4.463l-3.27-1.97c-0.395-0.238-0.908-0.302-1.352-0.167l-1.217,0.368
					c-0.986,0.298-1.122,1.354-0.243,1.884l4.335,2.612l-4.335,2.613c-0.869,0.523-0.748,1.565,0.218,1.875l1.193,0.383
					c0.448,0.144,0.973,0.083,1.376-0.16l3.293-1.984l0,5.079c0,1.026,0.788,1.667,1.419,1.154l0.887-0.721
					c0.293-0.238,0.473-0.678,0.473-1.155l-0.001-4.358l3.295,1.985c0.403,0.243,0.928,0.304,1.376,0.16l1.193-0.383
					C253.786,195.142,253.908,194.1,253.038,193.576z"/>
				<path id="XMLID_234_" fill="#F2F3F5" d="M271.31,183.08l-4.336-2.612l4.336-2.612c0.879-0.53,0.743-1.585-0.243-1.884
					l-1.217-0.368c-0.444-0.135-0.957-0.071-1.352,0.167l-3.271,1.971l0-5.184c0-1.026-0.789-1.667-1.42-1.153l-0.884,0.719
					c-0.292,0.238-0.472,0.678-0.472,1.153l0,4.462l-3.27-1.969c-0.395-0.238-0.908-0.302-1.352-0.167l-1.217,0.368
					c-0.985,0.298-1.121,1.354-0.243,1.884l4.336,2.612l-4.336,2.612c-0.869,0.524-0.748,1.566,0.219,1.876l1.192,0.383
					c0.449,0.144,0.973,0.083,1.377-0.16l3.293-1.985l0,5.08c0,1.026,0.788,1.667,1.419,1.154l0.888-0.721
					c0.292-0.238,0.473-0.679,0.473-1.154l0-4.358l3.294,1.985c0.404,0.243,0.928,0.304,1.377,0.16l1.192-0.383
					C272.058,184.646,272.179,183.604,271.31,183.08z"/>
				<path id="XMLID_229_" fill="#F2F3F5" d="M289.581,172.567l-4.335-2.613l4.335-2.612c0.879-0.53,0.743-1.585-0.243-1.883
					l-1.217-0.368c-0.444-0.134-0.957-0.071-1.352,0.167l-3.271,1.971l-0.001-5.183c0-1.026-0.789-1.667-1.419-1.153l-0.884,0.72
					c-0.292,0.238-0.472,0.677-0.472,1.153l-0.001,4.463l-3.269-1.97c-0.396-0.238-0.909-0.301-1.353-0.167l-1.217,0.368
					c-0.986,0.298-1.122,1.354-0.243,1.883l4.335,2.612l-4.335,2.613c-0.87,0.523-0.748,1.565,0.218,1.875l1.193,0.383
					c0.448,0.144,0.973,0.083,1.376-0.16l3.293-1.984l0,5.079c0,1.026,0.788,1.667,1.419,1.155l0.888-0.722
					c0.292-0.238,0.473-0.678,0.473-1.155l0-4.358l3.295,1.985c0.403,0.244,0.928,0.304,1.376,0.16l1.193-0.383
					C290.329,174.133,290.45,173.091,289.581,172.567z"/>
			</g>
		</g>
	</g>
</g>
</svg>
